<svg xmlns="http://www.w3.org/2000/svg" viewBox="0 0 751.24 489.02"><defs><style>.cls-1,.cls-3{fill:none;}.cls-2{font-size:18px;fill:#231f20;font-family:FuturaLT-Bold, Futura LT Book;font-weight:700;}.cls-3{stroke:#231f20;stroke-linecap:round;stroke-linejoin:round;stroke-width:9.3px;}</style></defs><g id="Layer_2" data-name="Layer 2"><g id="Layer_1-2" data-name="Layer 1"><rect class="cls-1" width="751.24" height="489.02"/><text class="cls-2" transform="translate(337.05 388.52)">the aalto</text><text class="cls-2" transform="translate(141.93 388.52)">the fold</text><text class="cls-2" transform="translate(531.07 388.52)">the knot</text><path class="cls-3" d="M410.28,106.24c-10.88-12-29-12.81-45.28-.64s-16.65,20.88-28.16,20.63-33.72-11.35-46.15,10.29,4,32.81,10.26,34,26.35.09,31.37,5.64c6.66,7.36-2.05,16.9,5.33,24.39,4.67,4.74,13.81,2.57,16.39,6.38s1.86,6.35.72,10.46-3.75,14.26,7.86,20.22,35.56-1.58,43.49-13.35,8.53-26.89,2.48-46.43,4.16-27.56,5.87-30.55S429.21,127.09,410.28,106.24Z"/><path class="cls-3" d="M83.43,268c58.08-9.22,104.4-68.66,76.58-105.46-13.77-18.21-55.49-8.8-49.71,27.64s53.92,65,88.69,59.48"/><path class="cls-3" d="M497,239s33.61-.7,47.93,9.52,24.75,55.13,55,59,33.56-26.4,33.06-39.87-8.79-40.23-37.36-43.9-55,19.18-54.2,52.23,36.77,17.49,52.61,7.89c23-14,39-16.22,73.79-9.22"/></g></g></svg>