<svg xmlns="http://www.w3.org/2000/svg" viewBox="0 0 751.24 489.02"><defs><style>.cls-1,.cls-3{fill:none;}.cls-2{fill:#231f20;}.cls-3{stroke:#231f20;stroke-linecap:round;stroke-linejoin:round;stroke-width:9.3px;}</style></defs><g id="Layer_2" data-name="Layer 2"><g id="Layer_1-2" data-name="Layer 1"><rect class="cls-1" width="751.24" height="489.02"/><path class="cls-2" d="M341.71,388.52h-3.27V382h-1.07v-2.7h1.07v-2.77h3.27v2.77h1.86V382h-1.86Z"/><path class="cls-2" d="M347.89,373.58v6.88h0a3.81,3.81,0,0,1,1.28-1.12,3.64,3.64,0,0,1,1.67-.36,3.94,3.94,0,0,1,1.53.28,2.81,2.81,0,0,1,1.08.79,3.37,3.37,0,0,1,.65,1.23,5.22,5.22,0,0,1,.22,1.59v5.65h-3.28v-4.73a6.85,6.85,0,0,0,0-.79,2.18,2.18,0,0,0-.2-.71,1.23,1.23,0,0,0-.45-.51,1.5,1.5,0,0,0-.78-.19,1.62,1.62,0,0,0-.81.19,1.65,1.65,0,0,0-.54.51,2,2,0,0,0-.28.71,3.47,3.47,0,0,0-.08.79v4.73h-3.28V373.58Z"/><path class="cls-2" d="M366,384.45H359.1a1.83,1.83,0,0,0,2,2.06,2.14,2.14,0,0,0,.91-.19,1.61,1.61,0,0,0,.66-.66h3.15a3.82,3.82,0,0,1-1.76,2.4,5,5,0,0,1-1.39.58,6.21,6.21,0,0,1-1.55.19,6.89,6.89,0,0,1-2.13-.32,4.89,4.89,0,0,1-1.69-.95,4.26,4.26,0,0,1-1.12-1.54,5.16,5.16,0,0,1-.41-2.11,5.49,5.49,0,0,1,.38-2.07,4.33,4.33,0,0,1,1.06-1.54,4.67,4.67,0,0,1,1.61-1,6.15,6.15,0,0,1,2.07-.34,6,6,0,0,1,2.14.36,4.31,4.31,0,0,1,2.57,2.64,6.18,6.18,0,0,1,.34,2.13Zm-3-1.89a1.68,1.68,0,0,0-.65-1.06,2,2,0,0,0-1.2-.39,2.15,2.15,0,0,0-1.26.37,1.66,1.66,0,0,0-.69,1.08Z"/><path class="cls-2" d="M383.76,388.52h-3.28v-1h0a2.62,2.62,0,0,1-1.21,1,4.17,4.17,0,0,1-1.58.32,4.31,4.31,0,0,1-1.88-.4,4.53,4.53,0,0,1-1.48-1.07,4.74,4.74,0,0,1-1-1.57,5.23,5.23,0,0,1-.34-1.89,5.14,5.14,0,0,1,.34-1.88,4.86,4.86,0,0,1,.94-1.57,4.45,4.45,0,0,1,3.34-1.47,4.3,4.3,0,0,1,1.58.3,3.1,3.1,0,0,1,1.28.91v-.9h3.28Zm-5.27-6.69a2.13,2.13,0,0,0-.9.17,2,2,0,0,0-.65.45,1.92,1.92,0,0,0-.42.65,2.46,2.46,0,0,0-.14.81,2.09,2.09,0,0,0,.55,1.48,2.34,2.34,0,0,0,3.11,0,2.09,2.09,0,0,0,.55-1.48,2.46,2.46,0,0,0-.14-.81,1.92,1.92,0,0,0-.42-.65,2,2,0,0,0-.65-.45A2.11,2.11,0,0,0,378.49,381.83Z"/><path class="cls-2" d="M396,388.52h-3.27v-1h0a2.64,2.64,0,0,1-1.2,1,4.22,4.22,0,0,1-1.59.32,4.34,4.34,0,0,1-1.88-.4,4.49,4.49,0,0,1-1.47-1.07,4.77,4.77,0,0,1-1-1.57,5.45,5.45,0,0,1-.34-1.89,5.36,5.36,0,0,1,.34-1.88,5.07,5.07,0,0,1,.95-1.57A4.45,4.45,0,0,1,389.9,379a4.25,4.25,0,0,1,1.57.3,3.2,3.2,0,0,1,1.29.91v-.9H396Zm-5.27-6.69a2.11,2.11,0,0,0-.89.17,1.93,1.93,0,0,0-.66.45,1.76,1.76,0,0,0-.41.65,2.24,2.24,0,0,0-.15.81,2.13,2.13,0,0,0,.55,1.48,2.36,2.36,0,0,0,3.12,0,2.13,2.13,0,0,0,.55-1.48,2.24,2.24,0,0,0-.15-.81,1.76,1.76,0,0,0-.41-.65,1.93,1.93,0,0,0-.66-.45A2.08,2.08,0,0,0,390.76,381.83Z"/><path class="cls-2" d="M401.49,388.52h-3.28V373.58h3.28Z"/><path class="cls-2" d="M407.23,388.52H404V382h-1.06v-2.7H404v-2.77h3.28v2.77h1.85V382h-1.85Z"/><path class="cls-2" d="M415,379a6.77,6.77,0,0,1,2.12.33,5.21,5.21,0,0,1,1.77.95,4.64,4.64,0,0,1,1.22,1.55,5.1,5.1,0,0,1,0,4.19,4.64,4.64,0,0,1-1.22,1.55,5.41,5.41,0,0,1-1.77,1,7.18,7.18,0,0,1-4.24,0,5.41,5.41,0,0,1-1.77-1,4.51,4.51,0,0,1-1.23-1.54,4.64,4.64,0,0,1-.45-2.1,4.7,4.7,0,0,1,.45-2.1,4.64,4.64,0,0,1,1.22-1.55,5.21,5.21,0,0,1,1.77-.95A6.78,6.78,0,0,1,415,379Zm0,2.85a2.05,2.05,0,0,0-.89.17,2,2,0,0,0-1.08,1.1,2.46,2.46,0,0,0-.14.81,2.09,2.09,0,0,0,.55,1.48,2.34,2.34,0,0,0,3.11,0,2.09,2.09,0,0,0,.55-1.48,2.46,2.46,0,0,0-.14-.81,1.92,1.92,0,0,0-.42-.65,2,2,0,0,0-.65-.45A2.11,2.11,0,0,0,415,381.83Z"/><path class="cls-2" d="M146.59,388.52h-3.28V382h-1.06v-2.7h1.06v-2.77h3.28v2.77h1.85V382h-1.85Z"/><path class="cls-2" d="M152.76,373.58v6.88h0a3.71,3.71,0,0,1,1.28-1.12,3.61,3.61,0,0,1,1.67-.36,3.94,3.94,0,0,1,1.53.28,3,3,0,0,1,1.08.79,3.37,3.37,0,0,1,.65,1.23,5.55,5.55,0,0,1,.22,1.59v5.65H156v-4.73c0-.27,0-.53,0-.79a2.18,2.18,0,0,0-.2-.71,1.23,1.23,0,0,0-.45-.51,1.51,1.51,0,0,0-.79-.19,1.67,1.67,0,0,0-.81.19,1.72,1.72,0,0,0-.53.51,2,2,0,0,0-.28.71,3.48,3.48,0,0,0-.09.79v4.73h-3.27V373.58Z"/><path class="cls-2" d="M170.87,384.45H164a1.83,1.83,0,0,0,2.05,2.06,2.14,2.14,0,0,0,.91-.19,1.61,1.61,0,0,0,.66-.66h3.15a3.82,3.82,0,0,1-.66,1.41,3.7,3.7,0,0,1-1.1,1,5,5,0,0,1-1.39.58,6.21,6.21,0,0,1-1.55.19,6.89,6.89,0,0,1-2.13-.32,5,5,0,0,1-1.7-.95,4.35,4.35,0,0,1-1.11-1.54,5.16,5.16,0,0,1-.41-2.11,5.49,5.49,0,0,1,.38-2.07,4.3,4.3,0,0,1,1-1.54,4.72,4.72,0,0,1,1.62-1,6.14,6.14,0,0,1,2.06-.34,6,6,0,0,1,2.15.36,4.31,4.31,0,0,1,2.57,2.64,6.18,6.18,0,0,1,.34,2.13Zm-3-1.89a1.65,1.65,0,0,0-.66-1.06,2,2,0,0,0-1.19-.39,2.15,2.15,0,0,0-1.26.37,1.66,1.66,0,0,0-.69,1.08Z"/><path class="cls-2" d="M182.14,388.52h-3.28V382h-1.15v-2.7h1.15v-1.17c0-.32,0-.62,0-.9a4.27,4.27,0,0,1,.11-.81,3.09,3.09,0,0,1,.28-.77,3,3,0,0,1,.53-.76,4.08,4.08,0,0,1,1.45-1.1,4.3,4.3,0,0,1,1.77-.38,4.18,4.18,0,0,1,.72.07,2.78,2.78,0,0,1,.69.26v2.82l-.56-.21a1.89,1.89,0,0,0-.6-.09,1,1,0,0,0-.88.37,2.18,2.18,0,0,0-.25,1.18v1.49h2.29V382h-2.29Z"/><path class="cls-2" d="M190.4,379a6.83,6.83,0,0,1,2.13.33,5.21,5.21,0,0,1,1.77.95,4.62,4.62,0,0,1,1.21,1.55,5.1,5.1,0,0,1,0,4.19,4.62,4.62,0,0,1-1.21,1.55,5.41,5.41,0,0,1-1.77,1,7.13,7.13,0,0,1-2.13.32,7,7,0,0,1-2.11-.32,5.56,5.56,0,0,1-1.78-1,4.52,4.52,0,0,1-1.67-3.64,4.7,4.7,0,0,1,.45-2.1,4.62,4.62,0,0,1,1.21-1.55,5.25,5.25,0,0,1,1.78-.95A6.77,6.77,0,0,1,190.4,379Zm0,2.85a2.11,2.11,0,0,0-.89.17,1.93,1.93,0,0,0-.66.45,1.89,1.89,0,0,0-.41.65,2.23,2.23,0,0,0-.14.81,2.09,2.09,0,0,0,.55,1.48,2,2,0,0,0,1.55.59,2,2,0,0,0,1.56-.59,2.13,2.13,0,0,0,.55-1.48,2.24,2.24,0,0,0-.15-.81,1.76,1.76,0,0,0-.41-.65,1.93,1.93,0,0,0-.66-.45A2.08,2.08,0,0,0,190.4,381.83Z"/><path class="cls-2" d="M200.72,388.52h-3.28V373.58h3.28Z"/><path class="cls-2" d="M209.82,387.5h0a2.62,2.62,0,0,1-1.21,1,4.17,4.17,0,0,1-1.58.32,4.31,4.31,0,0,1-1.88-.4,4.53,4.53,0,0,1-1.48-1.07,4.74,4.74,0,0,1-1-1.57,5.23,5.23,0,0,1-.34-1.89,5.14,5.14,0,0,1,.34-1.88,4.86,4.86,0,0,1,.94-1.57A4.45,4.45,0,0,1,207,379a4.3,4.3,0,0,1,1.58.3,3.17,3.17,0,0,1,1.28.91v-6.61h3.28v14.94h-3.28Zm-2-5.67a2.13,2.13,0,0,0-.9.17,2,2,0,0,0-.65.45,1.92,1.92,0,0,0-.42.65,2.46,2.46,0,0,0-.14.81,2.09,2.09,0,0,0,.55,1.48,2.34,2.34,0,0,0,3.11,0,2.09,2.09,0,0,0,.55-1.48,2.46,2.46,0,0,0-.14-.81,1.92,1.92,0,0,0-.42-.65,2,2,0,0,0-.65-.45A2.11,2.11,0,0,0,207.83,381.83Z"/><path class="cls-2" d="M535.73,388.52h-3.27V382h-1.07v-2.7h1.07v-2.77h3.27v2.77h1.86V382h-1.86Z"/><path class="cls-2" d="M541.91,373.58v6.88h0a3.81,3.81,0,0,1,1.28-1.12,3.64,3.64,0,0,1,1.67-.36,3.94,3.94,0,0,1,1.53.28,2.89,2.89,0,0,1,1.08.79,3.37,3.37,0,0,1,.65,1.23,5.22,5.22,0,0,1,.22,1.59v5.65h-3.28v-4.73a6.85,6.85,0,0,0,0-.79,2.18,2.18,0,0,0-.2-.71,1.23,1.23,0,0,0-.45-.51,1.5,1.5,0,0,0-.78-.19,1.62,1.62,0,0,0-.81.19,1.65,1.65,0,0,0-.54.51,2,2,0,0,0-.28.71,3.47,3.47,0,0,0-.08.79v4.73h-3.28V373.58Z"/><path class="cls-2" d="M560,384.45h-6.89a1.83,1.83,0,0,0,2,2.06,2.14,2.14,0,0,0,.91-.19,1.61,1.61,0,0,0,.66-.66h3.15a3.82,3.82,0,0,1-1.76,2.4,5,5,0,0,1-1.39.58,6.21,6.21,0,0,1-1.55.19,6.89,6.89,0,0,1-2.13-.32,5,5,0,0,1-1.7-.95,4.35,4.35,0,0,1-1.11-1.54,5.16,5.16,0,0,1-.41-2.11,5.49,5.49,0,0,1,.38-2.07,4.3,4.3,0,0,1,1-1.54,4.72,4.72,0,0,1,1.62-1A6.15,6.15,0,0,1,555,379a6,6,0,0,1,2.14.36,4.31,4.31,0,0,1,2.57,2.64,6.18,6.18,0,0,1,.34,2.13Zm-3-1.89a1.65,1.65,0,0,0-.66-1.06,2,2,0,0,0-1.19-.39,2.15,2.15,0,0,0-1.26.37,1.66,1.66,0,0,0-.69,1.08Z"/><path class="cls-2" d="M571,382.62l3.4-3.33h4.48l-4.62,4.26,4.91,5h-4.59L571,384.76v3.76h-3.28V373.58H571Z"/><path class="cls-2" d="M583.34,380.48h0a3.16,3.16,0,0,1,1.27-1.17,3.93,3.93,0,0,1,1.68-.33,4.19,4.19,0,0,1,1.59.28,2.7,2.7,0,0,1,1.07.79,3.14,3.14,0,0,1,.61,1.21,5.46,5.46,0,0,1,.2,1.56v5.7h-3.27v-5.24a2.75,2.75,0,0,0-.13-.81,1.37,1.37,0,0,0-.43-.63,1.48,1.48,0,0,0-.92-.25,1.83,1.83,0,0,0-.83.17,1.47,1.47,0,0,0-.52.47,2.13,2.13,0,0,0-.28.69,4.2,4.2,0,0,0-.08.81v4.79h-3.28v-9.23h3.28Z"/><path class="cls-2" d="M596.84,379a6.77,6.77,0,0,1,2.12.33,5.16,5.16,0,0,1,1.78.95,4.62,4.62,0,0,1,1.21,1.55,5.1,5.1,0,0,1,0,4.19,4.62,4.62,0,0,1-1.21,1.55,5.36,5.36,0,0,1-1.78,1,7.18,7.18,0,0,1-4.24,0,5.62,5.62,0,0,1-1.77-1,4.52,4.52,0,0,1-1.67-3.64,4.7,4.7,0,0,1,.45-2.1,4.62,4.62,0,0,1,1.21-1.55,5.16,5.16,0,0,1,1.78-.95A6.77,6.77,0,0,1,596.84,379Zm0,2.85a2.08,2.08,0,0,0-.89.17,1.93,1.93,0,0,0-.66.45,1.76,1.76,0,0,0-.41.65,2.24,2.24,0,0,0-.15.81,2.13,2.13,0,0,0,.55,1.48,2.36,2.36,0,0,0,3.12,0,2.13,2.13,0,0,0,.55-1.48,2.24,2.24,0,0,0-.15-.81,1.76,1.76,0,0,0-.41-.65,1.93,1.93,0,0,0-.66-.45A2.08,2.08,0,0,0,596.84,381.83Z"/><path class="cls-2" d="M607.46,388.52h-3.28V382h-1.06v-2.7h1.06v-2.77h3.28v2.77h1.85V382h-1.85Z"/><path class="cls-3" d="M410.28,106.24c-10.88-12-29-12.81-45.28-.64s-16.65,20.88-28.16,20.63-33.72-11.35-46.15,10.29,4,32.81,10.26,34,26.35.09,31.37,5.64c6.66,7.36-2.05,16.9,5.33,24.39,4.67,4.74,13.81,2.57,16.39,6.38s1.86,6.35.72,10.46-3.75,14.26,7.86,20.22,35.56-1.58,43.49-13.35,8.53-26.89,2.48-46.43,4.16-27.56,5.87-30.55S429.21,127.09,410.28,106.24Z"/><path class="cls-3" d="M83.43,268c58.08-9.22,104.4-68.66,76.58-105.46-13.77-18.21-55.49-8.8-49.71,27.64s53.92,65,88.69,59.48"/><path class="cls-3" d="M497,239s33.61-.7,47.93,9.52,24.75,55.13,55,59,33.56-26.4,33.06-39.87-8.79-40.23-37.36-43.9-55,19.18-54.2,52.23,36.77,17.49,52.61,7.89c23-14,39-16.22,73.79-9.22"/></g></g></svg>