<svg xmlns="http://www.w3.org/2000/svg" viewBox="0 0 841.89 1190.55"><defs><style>.cls-1,.cls-10,.cls-16,.cls-19,.cls-4,.cls-5,.cls-6{fill:#231f20;}.cls-13,.cls-14,.cls-15,.cls-17,.cls-18,.cls-2,.cls-22,.cls-27,.cls-28,.cls-29,.cls-3,.cls-30{fill:none;}.cls-14,.cls-15,.cls-2,.cls-20,.cls-21,.cls-22,.cls-24,.cls-25,.cls-26,.cls-27,.cls-29,.cls-3,.cls-30{stroke:#231f20;}.cls-11,.cls-12,.cls-18,.cls-2,.cls-22,.cls-26,.cls-29,.cls-30{stroke-linecap:round;stroke-linejoin:round;}.cls-2{stroke-width:2.45px;}.cls-3{stroke-width:3.18px;}.cls-4{font-size:11.65px;}.cls-10,.cls-16,.cls-19,.cls-4{font-family:FuturaLT-Bold, Futura LT Book;font-weight:700;}.cls-5,.cls-6{font-size:13.56px;}.cls-5,.cls-9{font-family:FuturaBT-Book, Futura Bk BT;}.cls-6{font-family:FuturaBT-Heavy, Futura Hv BT;}.cls-6,.cls-8{font-weight:800;}.cls-7{letter-spacing:-0.05em;}.cls-8{font-family:FuturaBT-HeavyItalic, Futura Hv BT;font-style:italic;}.cls-9{font-size:12.2px;font-weight:400;font-style:normal;}.cls-10{font-size:44.93px;}.cls-11,.cls-12,.cls-23,.cls-24,.cls-25,.cls-26{fill:#fff;}.cls-11,.cls-12,.cls-13,.cls-17,.cls-18{stroke:#000;}.cls-11{stroke-width:1.49px;}.cls-12{stroke-width:0.74px;}.cls-13,.cls-14,.cls-15,.cls-17,.cls-20,.cls-21,.cls-24,.cls-25,.cls-27{stroke-miterlimit:10;}.cls-13{stroke-width:2.71px;}.cls-14{stroke-width:1.57px;}.cls-15{stroke-width:1.36px;}.cls-16{font-size:13.43px;}.cls-17{stroke-width:2.06px;}.cls-18{stroke-width:1.03px;}.cls-19{font-size:12.2px;}.cls-20{stroke-width:0.61px;}.cls-21{stroke-width:0.53px;}.cls-22{stroke-width:1.02px;}.cls-24,.cls-26{stroke-width:5px;}.cls-25{stroke-width:3.76px;}.cls-27,.cls-29{stroke-width:2px;}.cls-30{stroke-width:4.1px;}</style></defs><g id="Layer_2" data-name="Layer 2"><g id="leds"><path d="M133.49,726.94c.3-1.52.55-2.93.87-4.32a8.56,8.56,0,0,1,.7-2,2.44,2.44,0,0,1,3.77-1,29.08,29.08,0,0,1,2.64,2.37l10.15-1.14c1.46-2.32,2.8-4.54,4.24-6.69a10,10,0,0,1,2-2.33c3.89-3.11,7.83-6.14,11.76-9.2,2.16-1.68,3-1.44,4.48,1.37-3.63,4.88-7.33,9.85-11,14.82l.37.39,15-11.17c.61.51,1.1.86,1.52,1.28,1.08,1.07,1.11,1.44.16,2.67-2.56,3.32-5.33,6.51-7.67,10-2.23,3.31-5.43,5.25-8.68,7.24-.75.45-1.49.94-2.34,1.48-.39,3.42-.79,6.86-1.21,10.5a16.2,16.2,0,0,1,2.16,1.9c1.42,1.76.95,3.59-1.19,4.34a46,46,0,0,1-5,1.22l-.84.24a6.35,6.35,0,0,0-.46,1c-2.36,9.06-7,16.86-13,24-2.89,3.49-5.9,6.88-8.87,10.31-.21.25-.47.47-.69.71-2.63,2.94-5.32,1.81-7.17-.43-1.42-1.73-1.37-3.42.18-5.24,2.12-2.48,4.21-5,6.44-7.36A76.83,76.83,0,0,0,148,745.31c1.86-5.07,3.89-10.07,5.81-15L152,728.49c-9.43,3.83-19.22,7-28.26,11.89-4.49,2.46-8.35,5.79-12.22,9.08-2.91,2.47-5.73,5-8.64,7.5-1.93,1.63-3.94,1.41-5.72-.46s-2.2-4.3-.37-6c9.14-8.64,18.57-16.91,30.51-21.61C129.28,728.11,131.32,727.61,133.49,726.94Zm19.76,11.36c-.84,2.16-1.64,4.1-2.36,6.06-3.76,10.3-8.7,19.91-16.26,28-2.53,2.71-4.9,5.55-7.32,8.36-1,1.1-.89,1.69.12,2.69,1.23,1.23,2.12,1.28,3.34-.12,4-4.59,8.07-9.1,11.79-13.9,4.44-5.74,8.08-12,9.86-19.14a4.94,4.94,0,0,1,4.73-4.21c1.23-.14,2.43-.52,4-.88a15.46,15.46,0,0,1-2.44-2.54,13.28,13.28,0,0,1-.88-3.09Zm-16.12-17c-.34,1.59-.7,2.9-.89,4.24a4.7,4.7,0,0,1-4,4.37,30.53,30.53,0,0,0-6.08,2.08,65.05,65.05,0,0,0-15.71,9.74c-3.88,3.37-7.8,6.69-11.64,10.1-1.17,1-1.06,2,.08,3.12s1.61,1.06,2.83,0c2.55-2.2,5.05-4.47,7.62-6.65,4.58-3.9,9.09-8,14.57-10.58,4.57-2.19,9.25-4.16,13.9-6.18,2-.86,4.08-1.6,6.23-2.43l-1.37-5C140.05,724.84,139,722.64,137.13,721.25Zm22.58-1.82,10.14-13.56c-.29-.09-.43,0-.54,0q-5,3.9-10.07,7.83a4.7,4.7,0,0,0-1,1.06c-1.43,2.23-2.88,4.45-4.22,6.74a4.72,4.72,0,0,0,1.54,6.78,1.6,1.6,0,0,1,.66,2.35c-.74,1.71-1.35,3.48-2.08,5.38l4.12,1.13c.33-2.24.65-4.29.93-6.35a3.14,3.14,0,0,1,1.57-2.51,4.77,4.77,0,0,0,.68-7.77A13.19,13.19,0,0,0,159.71,719.43Zm5.88,5.72c.19-.07.39-.12.58-.2a9.39,9.39,0,0,0,3.57-3.34c2.28-3,4.61-5.94,6.93-8.91l-.23-.23-11.5,8.64Zm-19.31,3.07,4.78-1.86c-.11-1.1-.2-2-.29-3.06l-5.64.79Z"/><path d="M160.55,724.24a2.41,2.41,0,0,1-2.43,2.42,2.54,2.54,0,0,1-2.46-2.44,2.41,2.41,0,0,1,2.56-2.44A2.27,2.27,0,0,1,160.55,724.24Z"/><circle cx="290.29" cy="752.48" r="5.77"/><path class="cls-1" d="M285.73,726.81a27.16,27.16,0,0,0-37-39.75Z"/><circle class="cls-1" cx="226.11" cy="730.77" r="27.48"/><line class="cls-2" x1="539.63" y1="758.25" x2="535.39" y2="829.35"/><path class="cls-2" d="M535.39,829.35l16.35,18.52H476.9L482,786.48c-5.81,5.08-12.35,0-12.35,0,4-1.09,5.09-9.09,5.09-9.09s-29.79-8-29.79-27.61,44.32-32.69,44.32-32.69-2.18-7.63-4.72-20.35S482.35,667,502.33,667s28,20.34,27.61,21.43-8.72,0-8.72,0l-2.54,25.8,1.89,1.17s33.08,14.44,33.93,30.16-7.22,17.84-7.22,17.84-.3,4.67,7.28,4.25c0,0-.27,8.92-14.93,8.92"/><line class="cls-2" x1="513.95" y1="797.74" x2="513.95" y2="847.87"/><path class="cls-2" d="M493.61,680.75s-1.22,21.68,26.27,21.2"/><circle class="cls-1" cx="511.05" cy="682.57" r="1.82"/><path class="cls-2" d="M607.9,693.45V656.8a13.58,13.58,0,0,1,13.59-13.59H750.86a13.58,13.58,0,0,1,13.58,13.59V760.62a13.59,13.59,0,0,1-13.58,13.59H621.49a13.59,13.59,0,0,1-13.59-13.59v-49a4.1,4.1,0,0,0-3.81-4.1c-9.8-.69-35.39-3.35-39.1-12.3,0,0,27.16,8.26,40.52,2A4.12,4.12,0,0,0,607.9,693.45Z"/><circle class="cls-3" cx="92.94" cy="312.91" r="13.51" transform="translate(-222.57 396.61) rotate(-88.32)"/><circle class="cls-3" cx="92.94" cy="645.76" r="13.51" transform="translate(-555.92 713.85) rotate(-87.8)"/><circle class="cls-3" cx="429.09" cy="312.91" r="13.51" transform="translate(-24.21 589.59) rotate(-67.5)"/><circle class="cls-3" cx="429.09" cy="645.76" r="13.51" transform="translate(-345.82 671.27) rotate(-58.28)"/><text class="cls-4" transform="translate(88 317.6)">1. </text><text class="cls-4" transform="translate(88 650.46)">3.</text><text class="cls-4" transform="translate(424.15 317.6)">2.</text><text class="cls-4" transform="translate(424.15 650.46)">4.</text><text class="cls-5" transform="translate(466.85 540.5)">Get your hands on and learn how to <tspan x="20.53" y="16.27">make a brooch that lights up!</tspan></text><text class="cls-5" transform="translate(95.81 881.38)">Assemble your electronic components nd <tspan x="46.54" y="16.27">then design your brooch!</tspan></text><text class="cls-6" transform="translate(549.17 881.38)"><tspan class="cls-7">W</tspan><tspan x="12.89" y="0">ear it!</tspan></text><text class="cls-5" transform="translate(115.78 540.5)">Register for the workshop at <tspan class="cls-8" x="168.73" y="0">AIVA </tspan><tspan class="cls-8"><tspan x="-1.51" y="16.27">(</tspan><tspan class="cls-9" x="3.05" y="16.27">Academy of International Visual Arts )</tspan></tspan></text><text class="cls-10" transform="translate(61.09 207.41)"><tspan xml:space="preserve"> jewelry workshop.</tspan></text><path d="M206.24,502.48q-19.08,0-38.17,0c-.47,0-1.27-.33-1.34-.65a2,2,0,0,1,.48-1.57q7.39-8.34,14.89-16.59a2.51,2.51,0,0,0,.7-2.37q-2.42-14.05-4.78-28.14c-1.06-6.28-2.12-12.56-3.12-18.85a1.63,1.63,0,0,0-1.29-1.47,53,53,0,0,1-14.22-7.39,24,24,0,0,1-8-9.2c-2.71-5.92-1.89-11.72.86-17.39,3.12-6.43,7.85-11.61,13-16.42a150,150,0,0,1,27.29-19.8A2.55,2.55,0,0,0,194,360c-.08-4.52,0-9,0-13.57,0-.84-.23-1.11-1.08-1.33a48.76,48.76,0,0,1-7.15-2.17c-5.43-2.34-6.41-6.58-2.63-11.11,2.81-3.38,6.53-5.63,10.39-7.6a50,50,0,0,1,17.24-5.34c4-.44,8-.4,11.78,1.32,5.39,2.45,8.12,6.94,9.46,12.43a47.71,47.71,0,0,1,.33,19.37c-.9,5.43-2.25,10.79-3.47,16.17a1.56,1.56,0,0,0,.53,1.76q10.38,9.64,20.69,19.36a21,21,0,0,1,6.62,11.05,16.71,16.71,0,0,1-2.28,12.2c-2.89,4.86-7,8.51-11.58,11.69a6.76,6.76,0,0,1-1.29.89c-2,.76-2.21,2.16-2,4.1.88,8.67,1.61,17.35,2.38,26,.68,7.79,1.32,15.6,2,23.4q.92,10.37,1.88,20.73c.29,3.06.26,3.12-2.82,3.12Zm30.89-74.79c-.34.11-.53.15-.72.22-4,1.46-8,3.06-12,4.35-3.48,1.11-7.08,1.87-10.64,2.76-.76.19-1.4,0-1.58-.85s.32-1.2,1-1.39c.2,0,.4-.07.59-.11a124.39,124.39,0,0,0,18.75-5.6c7.61-3.06,14.16-7.57,19-14.31,4.46-6.22,4.31-12.73-.35-18.77a35.39,35.39,0,0,0-3.85-4.18q-10.18-9.58-20.45-19.1a1.75,1.75,0,0,1-.54-2,102,102,0,0,0,3.9-17.69,50.6,50.6,0,0,0-.14-16.52,18,18,0,0,0-4.47-9.37c-3.54-3.63-8.05-4.46-12.83-4.08a47,47,0,0,0-23.21,8.27,26,26,0,0,0-5.4,5.13c-1.76,2.22-1.25,4,1.12,5.6a10.22,10.22,0,0,0,2.58,1.29q3.24,1,6.54,1.7c1.73.38,1.91.49,1.91,2.3,0,3.31,0,6.62,0,9.93,0,.84.29,1.17,1,1.28,1.6.23,3.18.56,4.79.7,7.75.66,13.77-2.56,17.19-9.22.66-1.28,1-2.73,1.64-4a1.87,1.87,0,0,1,1.45-.85c.7.07,1,.73.73,1.5a21.69,21.69,0,0,1-6.39,10.5c-4.06,3.49-8.87,4.65-14.08,4.4-2.08-.11-4.14-.46-6.35-.71,0,1,0,2,0,3a1.91,1.91,0,0,1-1.14,1.93c-2.51,1.46-5,2.93-7.46,4.5a133.28,133.28,0,0,0-24.11,19c-4.22,4.33-8,9-10.23,14.71-2.42,6.19-1.79,11.95,2.54,17.14,3.22,3.87,7.39,6.46,11.83,8.67,4.17,2.07,8.45,3.86,13.26,3.72.74,0,1.28.35,1.25,1.14s-.57,1.11-1.32,1.11h-3.8c.37,2.23.73,4.45,1.1,6.67q3.51,20.88,7.05,41.75a2.32,2.32,0,0,1-.67,2.16q-5.82,6.42-11.59,12.87c-.85.95-1.69,1.91-2.65,3h34.47v-1.42q0-23.14,0-46.29c0-.83,0-1.62,1.12-1.63s1.18.79,1.17,1.61v47.74h36.35C241.36,476,239.25,451.87,237.13,427.69Z"/><path d="M212.31,415.24c-.36,0-.72,0-1.09,0-.84,0-1.61-.11-1.64-1.13s.73-1.1,1.51-1.17a59.46,59.46,0,0,0,6.13-.62c10.31-2,17-8.16,20.41-18a2.88,2.88,0,0,1,.92-1.3,1.1,1.1,0,0,1,1,.22,2.16,2.16,0,0,1,.25,1.54,50.9,50.9,0,0,1-3.4,7.33c-4.91,7.79-12.2,11.84-21.24,12.91-.48.06-1,.15-1.44.18s-1,0-1.46,0Z"/><path d="M165.66,401.72a6.7,6.7,0,0,1,3.37-5.24,1.4,1.4,0,0,1,1.35.2c.24.35.09,1,0,1.5,0,.15-.28.28-.43.41-2.49,2.2-2.79,4.09-.45,6.49a32.39,32.39,0,0,0,6.3,5c2.59,1.61,5.44,2.8,8.17,4.17l.12.05c.78.31,1.62.66,1.19,1.71s-1.37.78-2.15.4a96.38,96.38,0,0,1-8.59-4.4,50,50,0,0,1-6.8-5.37A6.78,6.78,0,0,1,165.66,401.72Z"/><path d="M181.06,423.34a25.82,25.82,0,0,1-4.22-1.74c-2.24-1.43-4.33-3.07-6.45-4.67-.7-.52-1.37-1.24-.53-2.1s1.41-.17,2.08.37a52.41,52.41,0,0,0,5.1,3.85,23.67,23.67,0,0,0,4.21,1.76c.68.26,1.24.65,1,1.39C182.07,422.64,181.49,422.94,181.06,423.34Z"/><path d="M211.3,425.64c-.84.07-1.64-.05-1.71-1.05s.76-1.28,1.62-1.32a30.6,30.6,0,0,0,10-2.19c.8-.32,1.55-.41,1.91.54s-.3,1.3-1,1.6A36.74,36.74,0,0,1,211.3,425.64Z"/><path d="M204.82,338.56a1.89,1.89,0,0,1-3.78,0,1.89,1.89,0,0,1,3.78,0Z"/><polyline class="cls-11" points="196.94 438.68 210.96 436.04 210.96 404.09 196.94 406.57 182.92 404.09 182.92 436.04 196.94 438.68"/><line class="cls-12" x1="196.94" y1="406.57" x2="196.94" y2="438.68"/><circle cx="321.28" cy="174.24" r="4.12"/><circle cx="334.54" cy="174.24" r="4.12"/><circle class="cls-13" cx="461.41" cy="174.24" r="4.12"/><rect class="cls-14" x="78.31" y="983.09" width="685.98" height="140.58"/><line class="cls-15" x1="585.57" y1="999.54" x2="585.57" y2="1107.22"/><text class="cls-16" transform="translate(665.63 1019.61)">BY</text><circle class="cls-17" cx="375.95" cy="1055.25" r="18.77"/><polyline class="cls-18" points="382.12 1061.52 375.01 1056.64 375.01 1042.67"/><text class="cls-16" transform="translate(359.91 1019.61)">TIME</text><text class="cls-19" transform="translate(364.54 1096.86)">TBC</text><path class="cls-20" d="M134.39,1044.22l-1-1.24c-.42.46-.8.89-1.2,1.29-1,1-2.07,2.08-3.11,3.11-.46.46-.68.46-1.08,0a6.55,6.55,0,0,1-1.23-6.75,6.35,6.35,0,0,1,5.27-4.32,6.5,6.5,0,0,1,5.44,1.55c.53.45.53.65,0,1.14-1.13,1.11-2.25,2.24-3.39,3.38l1.07,1.26c6.52-4.14,13-4.15,19.56,0l1.12-1.3c-.48-.46-1-.89-1.44-1.35-.7-.68-1.39-1.38-2.08-2.07-.38-.38-.39-.6,0-.95a6.54,6.54,0,0,1,6.57-1.41,6.35,6.35,0,0,1,4.5,4.89,6.62,6.62,0,0,1-1.45,5.92c-.43.52-.65.53-1.11.06-1.44-1.43-2.87-2.87-4.34-4.35l-1,1.18a16.6,16.6,0,0,1,6.12,14.79,16.25,16.25,0,0,1-5.91,11.12,16.76,16.76,0,1,1-21.29-25.9Zm10.55,28.85a15.8,15.8,0,1,0-15.81-15.74A15.85,15.85,0,0,0,144.94,1073.07Zm-8.37-34.68a5.76,5.76,0,0,0-8,.87,5.65,5.65,0,0,0,0,7.17Zm16.73,0,8.06,8.06a5.74,5.74,0,0,0-8.06-8.06Z"/><path class="cls-21" d="M146.84,1055.29a2.53,2.53,0,0,1,.24,3.15,2.5,2.5,0,0,1-2.72,1c-1.2-.32-1.76-1.16-1.89-2.88l-3.88-1.14-.37-.11a.41.41,0,0,1-.26-.51.39.39,0,0,1,.52-.28c.37.09.73.21,1.1.31l3.21.94a2.48,2.48,0,0,1,1.68-1.2,3.79,3.79,0,0,1,1.34.08c.27.06.39,0,.55-.19,1.52-2.35,3.06-4.7,4.59-7l.15-.23c.15-.24.37-.35.62-.19a.4.4,0,0,1,.09.63l-1.48,2.28c-1.11,1.7-2.23,3.4-3.34,5.11A1.83,1.83,0,0,0,146.84,1055.29Zm-.16,1.72a1.68,1.68,0,0,0-3.35,0,1.68,1.68,0,1,0,3.35,0Z"/><path class="cls-21" d="M134,1056.62h1.22a.42.42,0,1,1,0,.84h-2.51a.39.39,0,0,1-.43-.43c0-.29.18-.41.45-.4Z"/><path class="cls-21" d="M155.86,1056.62h1.25c.28,0,.46.12.46.41s-.19.43-.47.43h-2.44c-.29,0-.49-.15-.48-.44s.2-.41.49-.41Z"/><path class="cls-21" d="M145.35,1068c0,.41,0,.82,0,1.23s-.18.49-.44.47a.42.42,0,0,1-.4-.48v-2.47a.42.42,0,1,1,.84,0Z"/><path class="cls-21" d="M145.35,1046.12v1.14c0,.35-.15.52-.43.51s-.41-.21-.41-.49v-2.4c0-.29.11-.49.41-.5s.43.19.43.48Z"/><text class="cls-16" transform="translate(107.23 1019.61)">DURATION</text><text class="cls-19" transform="translate(124.51 1096.86)">1.5hrs</text><path d="M277.4,1048.32v22c0,2.77-1.09,3.85-3.89,3.85H247.34c-2.35,0-3.57-1.18-3.58-3.5v-22.32Zm-31.19,8.15h5.88v-5.77h-5.88Zm13.51,0v-5.83h-5.88v5.83Zm7.63,0v-5.83h-5.9v5.83Zm7.6,0v-5.83h-5.87v5.83Zm-22.84,1.8h-5.85v5.78h5.85Zm1.74,0v5.8h5.85v-5.8Zm7.6,0v5.81h5.9v-5.81Zm13.48,5.83v-5.78H269.1v5.78Zm-28.68,1.76v5.83h5.85v-5.83Zm13.47,0h-5.85v5.81h5.85Zm1.71,5.78h5.91v-5.77h-5.91Zm7.64,0H275v-5.8h-5.88Z"/><path d="M267,1040.56c0-1,0-2,0-3,0-.81.21-1.49,1.16-1.5s1.24.68,1.24,1.54,0,1.87,0,3c1.46,0,2.87.08,4.26,0a3.3,3.3,0,0,1,3.76,3.78c-.06.75,0,1.51,0,2.33H243.79a33.74,33.74,0,0,1,0-3.49,3,3,0,0,1,3-2.6c1.52,0,3,0,4.56,0a2.59,2.59,0,0,0,.39-.11c0-.94,0-1.93,0-2.93,0-.82.23-1.47,1.19-1.47s1.19.66,1.19,1.47v3Zm2.39,1.34c0,.68,0,1.19,0,1.68,0,.74-.36,1.26-1.18,1.26s-1.16-.49-1.2-1.24c0-.51,0-1,0-1.67-1.24,1.07-1.34,2.3-.42,3.3a2.24,2.24,0,0,0,3.2,0C270.74,1044.29,270.65,1043.06,269.4,1041.9Zm-15.25,0c0,.64,0,1.11,0,1.58,0,.8-.35,1.34-1.22,1.32s-1.13-.54-1.16-1.29c0-.49,0-1,0-1.56a2.06,2.06,0,0,0-.5,3.15,2.26,2.26,0,0,0,3.29.12C255.5,1044.29,255.41,1043,254.15,1041.94Z"/><text class="cls-16" transform="translate(243.03 1019.61)">DATE</text><text class="cls-19" transform="translate(249.18 1096.86)">TBC</text><path class="cls-1" d="M617.35,1080.35V1069.6H620a4.94,4.94,0,0,1,3.12.81,3,3,0,0,1,1,2.5,3.1,3.1,0,0,1-1,2.45,4.16,4.16,0,0,1-2.82.89h-.63v4.1Zm2.31-5.89H620a2,2,0,0,0,1.37-.39,1.64,1.64,0,0,0,.42-1.25,1.47,1.47,0,0,0-.42-1.16,2.12,2.12,0,0,0-1.37-.36h-.33Z"/><path class="cls-1" d="M632.2,1080.35h-2l0-1a2.83,2.83,0,0,1-1,1,3.08,3.08,0,0,1-1.45.31,2.83,2.83,0,0,1-2.31-1.06,5,5,0,0,1,0-5.65,3,3,0,0,1,2.4-1,2.74,2.74,0,0,1,1.41.36,2.83,2.83,0,0,1,1,1.07v-1.19h2Zm-1.91-3.61a2.31,2.31,0,0,0-.48-1.54,1.86,1.86,0,0,0-2.66,0,2.66,2.66,0,0,0,0,3.06,1.93,1.93,0,0,0,2.68,0A2.23,2.23,0,0,0,630.29,1076.74Z"/><path class="cls-1" d="M636.23,1080.35h-2.09v-7.2h2.09v1.13a3.45,3.45,0,0,1,1.1-1,3,3,0,0,1,2.78,0,2.06,2.06,0,0,1,.8,1.11,3.46,3.46,0,0,1,1.13-1.1,2.68,2.68,0,0,1,1.39-.37,2.74,2.74,0,0,1,1.3.28,1.93,1.93,0,0,1,.82.85,2.15,2.15,0,0,1,.22.69,7,7,0,0,1,.07,1.19v4.43h-2.09v-3.56a3.74,3.74,0,0,0-.27-1.75,1,1,0,0,0-.94-.43,1.28,1.28,0,0,0-1.17.6,4,4,0,0,0-.36,2v3.17h-2.09v-3.56a4.08,4.08,0,0,0-.25-1.72.9.9,0,0,0-.86-.45,1.32,1.32,0,0,0-1.2.61,3.82,3.82,0,0,0-.38,2Z"/><path class="cls-1" d="M654.87,1077.27h-5.41a1.88,1.88,0,0,0,.56,1.16,1.75,1.75,0,0,0,1.2.39,2.07,2.07,0,0,0,1-.23,1.81,1.81,0,0,0,.69-.66l1.69.84a4,4,0,0,1-1.43,1.41,4.15,4.15,0,0,1-2,.45,3.66,3.66,0,0,1-2.76-1,4.28,4.28,0,0,1,0-5.59,3.68,3.68,0,0,1,2.74-1.09,3.61,3.61,0,0,1,2.71,1,3.8,3.8,0,0,1,1,2.79,1.48,1.48,0,0,1,0,.21C654.89,1077,654.88,1077.12,654.87,1077.27ZM652.8,1076a1.6,1.6,0,0,0-.5-1,1.66,1.66,0,0,0-1.11-.35,1.73,1.73,0,0,0-1.13.35,1.69,1.69,0,0,0-.54,1Z"/><path class="cls-1" d="M656.53,1080.35V1069h2.09v11.38Z"/><path class="cls-1" d="M668,1080.35h-2l0-1a2.74,2.74,0,0,1-1,1,3.09,3.09,0,0,1-1.46.31,2.82,2.82,0,0,1-2.3-1.06,5,5,0,0,1,0-5.65,3,3,0,0,1,2.4-1,2.68,2.68,0,0,1,1.4.36,2.85,2.85,0,0,1,1,1.07v-1.19h2Zm-1.91-3.61a2.26,2.26,0,0,0-.49-1.54,1.65,1.65,0,0,0-1.31-.56,1.69,1.69,0,0,0-1.34.56,2.66,2.66,0,0,0,0,3.06,1.68,1.68,0,0,0,1.33.54,1.71,1.71,0,0,0,1.35-.54A2.28,2.28,0,0,0,666,1076.74Z"/><path class="cls-1" d="M673.78,1080.35l1.64-10.75h2.41l2.07,6.33c0,.13.09.33.14.58s.1.55.14.87c0-.33.09-.63.14-.89a3.34,3.34,0,0,1,.14-.57l2.1-6.32h2.37l1.65,10.75H684.4l-.79-6.48c-.06-.48-.1-.84-.12-1.09s0-.47,0-.68,0-.2,0-.25a.66.66,0,0,1,0-.15c-.07.42-.14.78-.21,1.09s-.13.53-.18.69l-2.27,6.87h-1.3l-2.23-6.87c0-.06-.07-.24-.13-.53s-.16-.71-.28-1.26v.31a15.16,15.16,0,0,1-.13,1.84v0l-.78,6.48Z"/><path class="cls-1" d="M695.1,1080.35h-2l0-1a2.74,2.74,0,0,1-1,1,3.12,3.12,0,0,1-1.46.31,2.86,2.86,0,0,1-2.31-1.06,4.31,4.31,0,0,1-.87-2.81,4.25,4.25,0,0,1,.86-2.84,3,3,0,0,1,2.39-1,2.69,2.69,0,0,1,1.41.36,2.93,2.93,0,0,1,1,1.07v-1.19h2Zm-1.91-3.61a2.26,2.26,0,0,0-.49-1.54,1.66,1.66,0,0,0-1.32-.56,1.71,1.71,0,0,0-1.34.56,2.29,2.29,0,0,0-.48,1.54,2.23,2.23,0,0,0,.48,1.52,1.92,1.92,0,0,0,2.67,0A2.23,2.23,0,0,0,693.19,1076.74Z"/><path class="cls-1" d="M699.08,1075a3.27,3.27,0,0,1,.91-1.57,2.11,2.11,0,0,1,1.46-.52,4.58,4.58,0,0,1,.66.07l.13,0-.32,2.25a2,2,0,0,0-.47-.14,2.07,2.07,0,0,0-.5,0,1.72,1.72,0,0,0-1.38.49,2.48,2.48,0,0,0-.41,1.63v3.17h-2.1v-7.2h2.07Z"/><path class="cls-1" d="M703.44,1080.35v-5.56h-1v-1.64h1v-2.39h2.09v2.39h1v1.64h-1v5.56Z"/><path class="cls-1" d="M714.86,1077.27h-5.41a1.88,1.88,0,0,0,.57,1.16,1.72,1.72,0,0,0,1.19.39,2,2,0,0,0,1-.23,1.68,1.68,0,0,0,.69-.66l1.69.84a3.91,3.91,0,0,1-1.42,1.41,4.15,4.15,0,0,1-2,.45,3.69,3.69,0,0,1-2.77-1,4.26,4.26,0,0,1,.05-5.59,4,4,0,0,1,5.45-.07,3.84,3.84,0,0,1,1,2.79c0,.07,0,.14,0,.21A2.75,2.75,0,0,1,714.86,1077.27Zm-2.07-1.27a1.6,1.6,0,0,0-.49-1,2,2,0,0,0-2.24,0,1.69,1.69,0,0,0-.54,1Z"/><path class="cls-1" d="M716.53,1080.35V1069h2.08v11.38Z"/><path class="cls-1" d="M720.81,1080.35V1069h2.09v11.38Z"/><path class="cls-1" d="M732.59,1076.77a3.69,3.69,0,0,1-1.13,2.76,4.33,4.33,0,0,1-5.77,0,3.91,3.91,0,0,1,0-5.51,4.32,4.32,0,0,1,5.76,0A3.66,3.66,0,0,1,732.59,1076.77Zm-2.13,0a1.94,1.94,0,0,0-.51-1.41,1.83,1.83,0,0,0-1.38-.52,1.81,1.81,0,0,0-1.37.52,2.2,2.2,0,0,0,0,2.82,1.81,1.81,0,0,0,1.37.53,1.87,1.87,0,0,0,1.38-.53A1.94,1.94,0,0,0,730.46,1076.76Z"/><path class="cls-1" d="M657.8,1094.89a10.32,10.32,0,0,1-.06,1.11,2,2,0,0,1-.41,1,1.84,1.84,0,0,1-.7.57,2.14,2.14,0,0,1-.9.19,1.85,1.85,0,0,1-.87-.2,3.25,3.25,0,0,1-.77-.49l.57-.8a2.36,2.36,0,0,0,.5.38,1.11,1.11,0,0,0,.6.15.8.8,0,0,0,.58-.19,1.16,1.16,0,0,0,.3-.5,2.44,2.44,0,0,0,.11-.63c0-.23,0-.43,0-.61v-7.34h1Z"/><path class="cls-1" d="M660.19,1094.14a1.94,1.94,0,0,0,.14.76,2,2,0,0,0,.38.61,1.87,1.87,0,0,0,1.37.56,1.6,1.6,0,0,0,1-.34,2.83,2.83,0,0,0,.71-.85l.83.48a3.11,3.11,0,0,1-1.1,1.2,2.89,2.89,0,0,1-1.56.42,3,3,0,0,1-1.18-.23,2.87,2.87,0,0,1-.89-.63,2.83,2.83,0,0,1-.57-.95,3.4,3.4,0,0,1-.19-1.16,4.09,4.09,0,0,1,.18-1.22,3.15,3.15,0,0,1,.54-1,2.55,2.55,0,0,1,.88-.67,2.71,2.71,0,0,1,1.2-.25,2.65,2.65,0,0,1,1.23.27,2.37,2.37,0,0,1,.88.72,3.06,3.06,0,0,1,.51,1,3.58,3.58,0,0,1,.12,1.23Zm3.5-.84a1.82,1.82,0,0,0-.2-.58,2,2,0,0,0-.38-.49,1.77,1.77,0,0,0-.51-.32,1.54,1.54,0,0,0-.61-.12,1.62,1.62,0,0,0-.61.12,1.8,1.8,0,0,0-.94.81,1.82,1.82,0,0,0-.2.58Z"/><path class="cls-1" d="M668,1095l1.79-4.35,1.81,4.35,1.72-3.91h1.12l-2.86,6.19-1.79-4.31-1.78,4.31-2.84-6.19h1.12Z"/><path class="cls-1" d="M675.91,1094.14a1.94,1.94,0,0,0,.15.76,2,2,0,0,0,.38.61,1.87,1.87,0,0,0,1.37.56,1.6,1.6,0,0,0,1.05-.34,2.83,2.83,0,0,0,.71-.85l.83.48a3.19,3.19,0,0,1-1.1,1.2,3.12,3.12,0,0,1-2.74.19,2.76,2.76,0,0,1-.89-.63,2.68,2.68,0,0,1-.57-.95,3.4,3.4,0,0,1-.19-1.16,4.09,4.09,0,0,1,.18-1.22,2.79,2.79,0,0,1,.54-1,2.55,2.55,0,0,1,.88-.67,2.71,2.71,0,0,1,1.2-.25,2.65,2.65,0,0,1,1.23.27,2.45,2.45,0,0,1,.88.72,3.06,3.06,0,0,1,.51,1,3.58,3.58,0,0,1,.12,1.23Zm3.51-.84a1.82,1.82,0,0,0-.2-.58,2.29,2.29,0,0,0-.38-.49,1.91,1.91,0,0,0-.51-.32,1.61,1.61,0,0,0-1.22,0,1.8,1.8,0,0,0-.94.81,2.13,2.13,0,0,0-.21.58Z"/><path class="cls-1" d="M682.76,1096.82h-1v-10.14h1Z"/><path class="cls-1" d="M685.53,1091.67h0a3.71,3.71,0,0,1,.53-.57,1.2,1.2,0,0,1,.75-.22,1.34,1.34,0,0,1,.46.08,2.35,2.35,0,0,1,.43.19l-.47.9-.27-.18a.61.61,0,0,0-.32-.08.85.85,0,0,0-.63.23,1.39,1.39,0,0,0-.34.56,3.1,3.1,0,0,0-.14.7c0,.25,0,.46,0,.65v2.89h-1V1091h1Z"/><path class="cls-1" d="M688.25,1091h1.14l2,4.15,1.87-4.15h1.12l-4.27,9H689l1.87-3.79Z"/><path class="cls-1" d="M648.25,1045.21c-3.27,0-5.91,3.89-5.91,3.89s2.64,3.88,5.91,3.88,5.92-3.88,5.92-3.88S651.52,1045.21,648.25,1045.21Zm0,5.76a1.88,1.88,0,1,1,1.88-1.87A1.87,1.87,0,0,1,648.25,1051Z"/><path class="cls-1" d="M699.58,1039.42v5.36a4.32,4.32,0,1,1,0,8.64v5.35a9.68,9.68,0,0,0,0-19.35Zm2.44,17.92a1.58,1.58,0,1,1,1.58-1.58A1.58,1.58,0,0,1,702,1057.34Z"/><path class="cls-1" d="M675.21,1053.93a9.68,9.68,0,0,1-9.67-9.67h5.35a4.32,4.32,0,1,0,8.64,0h5.35A9.68,9.68,0,0,1,675.21,1053.93Z"/><path class="cls-1" d="M632.56,1040.33v11.25l-3,5.25h-6.06l-3-5.25-1.8-3.09a1,1,0,0,1,.34-1.33.89.89,0,0,1,.49-.14,1,1,0,0,1,.84.48l1.25,2.15.78-1.35v-8.91a1,1,0,0,1,1.94,0v6.93h.82v-8.88a1,1,0,0,1,1.95,0v8.88h.82v-8.88a1,1,0,0,1,1.94,0v8.88h.83v-6a1,1,0,0,1,1.94,0Z"/><path class="cls-1" d="M729.64,1040.66a1.59,1.59,0,0,0-1.77.73l-7.09,12.29a1.58,1.58,0,0,0,1.36,2.37h7.09a1.58,1.58,0,0,0,1.58-1.58v-12.29A1.56,1.56,0,0,0,729.64,1040.66Zm-4.74,13.81a1.58,1.58,0,1,1,1.58-1.58A1.58,1.58,0,0,1,724.9,1054.47Z"/><text class="cls-16" transform="translate(455.25 1019.61)">PARTICIPANTS</text><text class="cls-19" transform="translate(472.65 1096.86)">Min 10ppl</text><polyline class="cls-22" points="472.15 1063.58 470.98 1080.09 491.66 1080.09 487.28 1075.58 488.24 1060.27"/><line class="cls-22" x1="480.86" y1="1066.88" x2="480.86" y2="1080.09"/><path class="cls-22" d="M476.55,1038.28s1.05,3.94,6,3.74"/><path class="cls-22" d="M488.17,1062.93c4.51,0,4.6-2.75,4.6-2.75-2.34.13-2.25-1.31-2.25-1.31s2.49-.65,2.23-5.49-10.4-9.21-10.4-9.21l.7-8h2.79a8.31,8.31,0,0,0-8.38-6.1c-7,0-4.78,10.2-3.07,13.67,0,0-12.24,4.06-12.83,9.1s8.38,7.65,8.38,7.65.06,1.25-1.44,1.25c0,0,.06,2.09,2.61,2.09s2.36-3.07,1.64-4.32"/><circle class="cls-1" cx="480.41" cy="1035.01" r="0.62"/><path class="cls-23" d="M489.36,1063.58a2.35,2.35,0,0,1-1,.22c-2.56,0-2.63-2.09-2.63-2.09,1.52,0,1.45-1.25,1.45-1.25s-9-2.62-8.38-7.65,12.83-9.09,12.83-9.09a19,19,0,0,1-1.5-5l3.65-.49s1.06,3.94,6,3.74l-.19,2.16s10.14,4.35,10.39,9.2-2.22,5.49-2.22,5.49-.09,1.44,2.25,1.31c0,0-.09,2.75-4.61,2.75h-.08l-.8,12.65,4.38,4.51H488.19Z"/><path class="cls-23" d="M503,1036.15h-2.78l-.51,5.87c-4.94.2-6-3.74-6-3.74l-3.65.49c-.67-4.1-.13-8.74,4.57-8.74A8.31,8.31,0,0,1,503,1036.15Zm-4.81-1.14a.61.61,0,0,0-.61-.62.63.63,0,0,0-.63.62.62.62,0,0,0,.63.61A.61.61,0,0,0,498.23,1035Z"/><path class="cls-1" d="M497.62,1034.39a.61.61,0,0,1,.61.62.61.61,0,0,1-.61.61.62.62,0,0,1-.63-.61A.63.63,0,0,1,497.62,1034.39Z"/><polyline class="cls-22" points="489.36 1063.58 488.19 1080.09 498.08 1080.09 508.87 1080.09 504.49 1075.58 505.29 1062.93 505.45 1060.27"/><line class="cls-22" x1="498.08" y1="1066.87" x2="498.08" y2="1080.09"/><path class="cls-22" d="M493.75,1038.28s1.06,3.94,6,3.74"/><path class="cls-22" d="M505.37,1062.93c4.52,0,4.61-2.75,4.61-2.75-2.34.13-2.25-1.31-2.25-1.31s2.48-.65,2.22-5.49-10.39-9.2-10.39-9.2l.19-2.16.51-5.87H503a8.31,8.31,0,0,0-8.37-6.12c-4.7,0-5.24,4.64-4.57,8.74a19,19,0,0,0,1.5,5s-12.25,4-12.83,9.09,8.38,7.65,8.38,7.65.07,1.25-1.45,1.25c0,0,.07,2.09,2.63,2.09a2.35,2.35,0,0,0,1-.22c1.44-.73,1.19-3,.6-4.1"/><polyline class="cls-22" points="538.17 1063.58 539.34 1080.09 518.66 1080.09 523.04 1075.58 522.08 1060.27"/><line class="cls-22" x1="529.46" y1="1066.88" x2="529.46" y2="1080.09"/><path class="cls-22" d="M533.78,1038.28s-1,3.94-6,3.74"/><path class="cls-22" d="M522.15,1062.93c-4.51,0-4.6-2.75-4.6-2.75,2.34.13,2.25-1.31,2.25-1.31s-2.49-.65-2.23-5.49,10.4-9.21,10.4-9.21l-.69-8h-2.8a8.31,8.31,0,0,1,8.38-6.1c7,0,4.78,10.2,3.08,13.67,0,0,12.23,4.06,12.82,9.1s-8.38,7.65-8.38,7.65-.06,1.25,1.44,1.25c0,0-.06,2.09-2.61,2.09s-2.36-3.07-1.64-4.32"/><circle class="cls-1" cx="529.91" cy="1035.01" r="0.62"/><circle class="cls-24" cx="218.18" cy="730.77" r="27.48"/><circle class="cls-1" cx="689.61" cy="708.36" r="20.65"/><circle class="cls-25" cx="683.65" cy="708.36" r="20.65"/><path class="cls-26" d="M277,724.21a27.16,27.16,0,1,0-37-39.75Z"/><circle class="cls-27" cx="217.46" cy="792.01" r="2.47"/><circle class="cls-27" cx="231.23" cy="792.01" r="2.47"/><circle class="cls-27" cx="245" cy="792.01" r="2.47"/><circle class="cls-27" cx="258.78" cy="792.01" r="2.47"/><rect class="cls-27" x="209.2" y="786.43" width="57.83" height="11.17"/><path class="cls-27" d="M267,789.55s22.53-5.58,36.75-3.12"/><path class="cls-27" d="M267,793.8s24.75,6.28,35,3.8"/><text class="cls-6" transform="translate(651.52 708.24) rotate(-83.88)">L</text><text class="cls-6" transform="translate(652.08 702.04) rotate(-71.79)">E</text><text class="cls-6" transform="matrix(0.55, -0.84, 0.84, 0.55, 654.1, 695.15)">D</text><text class="cls-6" transform="translate(659.64 687.17) rotate(-44.83)"> </text><text class="cls-6" transform="translate(662.4 684.42) rotate(-38.16)">i</text><text class="cls-6" transform="matrix(0.85, -0.52, 0.52, 0.85, 665.21, 682.18)">t</text><text class="cls-6" transform="translate(668.52 680.14) rotate(-24.5)"> </text><text class="cls-6" transform="matrix(0.96, -0.27, 0.27, 0.96, 671.95, 678.46)">s</text><text class="cls-6" transform="translate(677.42 676.74) rotate(-3.63)">h</text><text class="cls-6" transform="translate(685.35 676.39) rotate(6.43)">i</text><text class="cls-6" transform="matrix(0.96, 0.29, -0.29, 0.96, 688.86, 676.55)">n</text><text class="cls-6" transform="matrix(0.86, 0.5, -0.5, 0.86, 696.37, 678.78)">e</text><text class="cls-6" transform="matrix(0.76, 0.65, -0.65, 0.76, 702.67, 682.58)">!</text><rect class="cls-28" width="841.89" height="1190.55"/><circle class="cls-29" cx="495.61" cy="730.25" r="3.59"/><line class="cls-29" x1="509.23" y1="733.4" x2="504.55" y2="732.6"/><line class="cls-29" x1="494.05" y1="744.15" x2="494.85" y2="739.47"/><line class="cls-29" x1="503.62" y1="741.57" x2="500.56" y2="737.24"/><path d="M546.33,366.56c-1-3.58-1.83-6.89-2.77-10.17-1.59-5.57-3.1-11.11-3.3-17-.48-13.88,13.92-24.39,27.07-19.83,10.4,3.6,17.26,11,22,20.55a1.38,1.38,0,0,1-1,2.14c-2.12.65-4.28,1.16-6.76,1.82-.64,7.31-1.32,14.94-2,22.67,3.49.16,6.86.25,10.23.47,9.61.63,19,2.12,27.86,6.25,8.65,4.06,15.14,10.17,17.57,19.75,2,7.77.82,15.37-1.8,22.82-.47,1.34-1,2.66-1.47,4,.16.11.25.24.33.23,2.63-.47,3.6,1,4.49,3.25,6.73,16.95,13.6,33.83,20.41,50.74a4.1,4.1,0,0,1,.31,1.49c0,3.16,0,6.32,0,9.48,0,2-.26,2.24-2.32,2.25-1.6,0-3.2,0-5,0v3.68c0,2.93,0,5.86,0,8.79,0,1.1.32,2.63-1.38,2.62s-1.27-1.46-1.28-2.52c0-3.56,0-7.13,0-10.69,0-.56,0-1.12-.08-1.77H482.51v9.71a21.68,21.68,0,0,1-.07,3.61c-.11.63-.8,1.16-1.22,1.73-.42-.58-1.19-1.15-1.21-1.73-.1-3.79-.05-7.59-.05-11.38v-2.05c-1.95,0-3.71,0-5.47,0-1.47,0-2.08-.61-2.06-2.07,0-3.21-.09-6.44.05-9.65a11.47,11.47,0,0,1,1.07-3.4q10.13-25.12,20.31-50.23a11.87,11.87,0,0,1,1.19-1.93c-1.11-3.52-2.57-7-3.29-10.68-1.69-8.57.64-16.26,6-23,5.87-7.33,13.77-11.66,22.43-14.76a94.27,94.27,0,0,1,24-4.9C544.76,366.79,545.26,366.7,546.33,366.56Zm73.34,70.19c-3.17,1,0-2.67,0-2.67,8-8.8,12.93-19.06,13.89-31a25.19,25.19,0,0,0-6.33-19.58c-4.84-5.41-11.12-8.41-17.91-10.43-9.15-2.72-18.56-3.56-28.07-3.54a7.79,7.79,0,0,1-3-.4,2.51,2.51,0,0,1-1.23-1.85,43.64,43.64,0,0,1,.41-5c.24-2.89.47-5.79.7-8.57-2.29-.12-4.41-.13-6.5-.37-9.34-1.12-18.07-10.47-18.51-19.73-.05-1-.14-2.15,1.22-2.24s1.35.95,1.45,1.92A19.55,19.55,0,0,0,577,351c1.2-.09,1.56-.56,1.62-1.68.11-2.17.36-4.34.5-6.52.09-1.35.72-1.85,2.11-1.85,1.69,0,3.38-.28,5.48-.49-4.15-7.69-9.42-13.48-16.87-17.11a19.34,19.34,0,0,0-10.47-2.24,18.14,18.14,0,0,0-16.42,19.47c.36,6.21,2.43,12,4,17.91a88.59,88.59,0,0,1,1.66,8.74c.21,1.32-.52,1.85-1.89,2.05-6.62,1-13.32,1.66-19.82,3.21-9.43,2.24-18.13,6.23-25,13.36-5.84,6.05-8.84,13.18-7.8,21.72.94,7.75,4.7,14.1,10.12,19.48,2.59,2.57,5.62,4.7,8.38,7.12.44.38.48,1.23.7,1.86.18,4.76-7.48-3.33-7.48-3.33-2.52-2.82-5-5.65-7.55-8.45a16.34,16.34,0,0,0-1.47-1.27,9.37,9.37,0,0,0-1.1,1.61q-8.49,21-16.94,41.94c-1,2.43-1.93,4.86-2.92,7.36H654.19c-.22-.65-.35-1.13-.54-1.6q-5.79-14.35-11.6-28.7c-2.6-6.43-5.16-12.87-7.8-19.29-.22-.53-.83-1.22-1.3-1.26-.87-.07-2.23,0-2.6.53-1.83,2.68-3.41,5.53-5.11,8.36A10.27,10.27,0,0,1,619.67,436.75ZM475.2,484.65H654.89v-7.74H475.2Zm128.7-49.31c-.36,0-2.19-.62-1-1.51,1.63-1.2,2.91-.84,4.89-4.18a34.75,34.75,0,0,0,3.32-6.56H520l4.84,11-1.78.16a80,80,0,0,1-8.72-19.58c-2-7-1.1-13.25,3.85-18.76,2.35-2.63,5-4.71,8.61-5.27,1.52-.24,2.47.17,2.92,1.82,1.52,5.64,3.28,11.22,4.74,16.87.93,3.58,1.49,7.26,2.22,10.91.31,0,.54.06.76.06q27.23,0,54.44,0c1.11,0,1.43-.38,1.62-1.43,1.65-9.49,3.36-19,5.07-28.44.32-1.78.82-2.11,2.42-1.55,10.83,3.81,17.89,13.17,15.35,26-1.26,6.35-4.16,12-7.41,17.48-1.2,2-2.55,3.28-5,3m-3-43.48c-1.68,9.43-3.35,18.83-5,28.32.49.05.88.12,1.27.12,4.7,0,9.41,0,14.12-.05.37,0,.92-.59,1.08-1a26.68,26.68,0,0,0,1.71-11.64C613.41,400.13,607.69,394.1,600.94,391.86ZM533.66,420.3a2.65,2.65,0,0,0,.09-.59,155.24,155.24,0,0,0-6.26-25.49c-.37-1.16-1.11-.87-1.9-.61-4.45,1.49-9.61,8.37-9.71,13.08-.1,4.5,1.28,8.69,2.83,12.83a1.52,1.52,0,0,0,1.13.75C524.42,420.32,529,420.3,533.66,420.3Z"/><path d="M617.7,363.41a7.82,7.82,0,0,1-2.22-.05,6.78,6.78,0,0,1-1.73-1.21c.55-.47,1.08-1.33,1.65-1.35a41.74,41.74,0,0,1,6.52.24c4.94.62,9.51,2.14,13,6,.23.25.59.51.63.8a13.12,13.12,0,0,1,0,1.88c-.66-.09-1.61.08-1.93-.3C629.36,364.52,623.67,363.62,617.7,363.41Z"/><path d="M514.17,361.34h2.41c1,0,1.87.41,1.6,1.47-.12.49-1.1,1-1.75,1.1-3.44.48-6.95.62-10.35,1.27a12.81,12.81,0,0,0-7.34,4.55c-.58.69-1.36,1.45-2.1.52a2.36,2.36,0,0,1,.14-2.21c2.65-3.35,6.34-5.05,10.4-5.94,2.28-.5,4.64-.67,7-1Z"/><path d="M507.78,358.2c-4,.26-7.95.87-10.95,4.05-.32.35-1.2.18-1.81.24,0-.66-.34-1.53,0-1.94a10.51,10.51,0,0,1,6.27-3.93,50.56,50.56,0,0,1,7.95-1c.67-.05,1.93.73,2,1.25.16,1.27-1,1.42-2,1.36C508.7,358.18,508.24,358.2,507.78,358.2Z"/><path d="M624.84,355a18.48,18.48,0,0,1,10.36,3.19,9.92,9.92,0,0,1,1.44,1.21c.64.68,1.38,1.49.49,2.38s-1.61.27-2.33-.46c-2.88-2.89-6.61-3.45-10.43-3.74a14.1,14.1,0,0,0-1.72,0c-.95,0-1.85-.14-1.88-1.26s.92-1.3,1.84-1.32Z"/><path d="M520.71,434.08c-.42.5-.67,1.05-1.06,1.18a1.47,1.47,0,0,1-1.35-.27c-1.43-2.42-2.79-4.87-4.06-7.37-.16-.31.23-1.13.59-1.4a1.45,1.45,0,0,1,1.38.06C517.75,428.82,519.19,431.41,520.71,434.08Z"/><path d="M611.56,435.17c-1.19-.11-1.79-.83-1.27-1.74,1.33-2.31,2.83-4.53,4.36-6.72a1.48,1.48,0,0,1,1.44-.25c.39.31.8,1.21.62,1.51-1.41,2.34-2.94,4.6-4.47,6.87C612.11,435,611.75,435.08,611.56,435.17Z"/><path d="M571.32,332.94a2.12,2.12,0,0,1-2.25,2.09,2.13,2.13,0,0,1,.08-4.25A2.1,2.1,0,0,1,571.32,332.94Z"/><circle class="cls-29" cx="550.9" cy="447.84" r="3.59"/><line class="cls-29" x1="541.6" y1="437.4" x2="544.95" y2="440.75"/><line class="cls-29" x1="560.2" y1="437.4" x2="556.84" y2="440.75"/><line class="cls-29" x1="550.9" y1="433.97" x2="550.9" y2="439.27"/><rect class="cls-29" x="573.11" y="432.74" width="21.93" height="21.93"/><line class="cls-30" x1="715.6" y1="736.8" x2="706.95" y2="732.35"/><line class="cls-30" x1="680.56" y1="750.79" x2="681.52" y2="741.11"/><line class="cls-30" x1="699.61" y1="749.33" x2="696.28" y2="738.98"/></g></g></svg>