<svg xmlns="http://www.w3.org/2000/svg" viewBox="0 0 594.67 401.33"><defs><style>.cls-1,.cls-3,.cls-4{fill:none;}.cls-1,.cls-3{stroke:#231f20;stroke-linecap:round;stroke-linejoin:round;}.cls-1{stroke-width:4.5px;}.cls-2{fill:#231f20;}.cls-3{stroke-width:6px;}</style></defs><g id="Layer_2" data-name="Layer 2"><g id="Layer_1-2" data-name="Layer 1"><path class="cls-1" d="M322,257.57c18.62-10.25,17-27.94-2.22-36.33-14.06-6.13-33.63-5.43-47.13,2-18.62,10.25-17,27.94,2.22,36.32C288.94,265.7,308.51,265,322,257.57Zm11.74-91.1c27.47-15.13,25.1-41.24-3.27-53.61-20.75-9-49.64-8-69.56,3-27.48,15.13-25.1,41.24,3.28,53.62C284.94,178.47,313.83,177.44,333.75,166.47Z"/><path class="cls-2" d="M310.87,249.82c10.21-5.62,9.33-15.33-1.22-19.92-7.71-3.37-18.45-3-25.85,1.09-10.21,5.63-9.33,15.33,1.22,19.93,7.71,3.36,18.44,3,25.85-1.1"/><path class="cls-1" d="M260.59,246.52l22.75,40.56s3.5,7.5,14,7.5,14-7.5,14-7.5l22.74-40.56"/><path class="cls-3" d="M320.66,208.07l7.95-15.82m-54.48,15.82-7.94-15.82m31.14,14.05V186.72m40.45,37.9L351.45,211m-94.56,13.67L243.22,211"/><rect class="cls-4" width="594.67" height="401.33"/></g></g></svg>