<svg xmlns="http://www.w3.org/2000/svg" viewBox="0 0 1023.45 628.4"><defs><style>.cls-1,.cls-3,.cls-4,.cls-5,.cls-6,.cls-7{fill:none;}.cls-1,.cls-3,.cls-4{stroke:#231f20;}.cls-1,.cls-3,.cls-4,.cls-5{stroke-miterlimit:10;}.cls-1,.cls-5{stroke-width:6.78px;}.cls-2{fill:#231f20;}.cls-3{stroke-width:2.7px;}.cls-4{stroke-width:6.1px;}.cls-5{stroke:#ed1c24;}.cls-6{stroke:#000;stroke-width:5px;}</style></defs><g id="Layer_2" data-name="Layer 2"><g id="Layer_1-2" data-name="Layer 1"><path class="cls-1" d="M283.22,155s83.86,21.29,118.5,12.87m-118.5-27.28s76.33-18.9,124.52-10.56M283.22,167.89h-196V130.05h196ZM263.59,149a8.36,8.36,0,1,1-8.36-8.36A8.35,8.35,0,0,1,263.59,149Zm-46.68,0a8.36,8.36,0,1,1-8.35-8.36A8.35,8.35,0,0,1,216.91,149Zm-46.67,0a8.36,8.36,0,1,1-8.36-8.36A8.35,8.35,0,0,1,170.24,149Zm-46.68,0a8.36,8.36,0,1,1-8.35-8.36A8.35,8.35,0,0,1,123.56,149Z"/><path class="cls-2" d="M98.61,145.3H85.4v-4.69H98.61a2.35,2.35,0,1,1,0,4.69"/><path class="cls-2" d="M98.61,152.64H85.4v4.68H98.61a2.34,2.34,0,1,0,0-4.68"/><polygon class="cls-2" points="58.65 141.79 58.65 139.39 63.39 139.39 63.39 134.3 66.08 134.3 66.08 139.39 70.81 139.39 70.81 141.79 66.08 141.79 66.08 146.92 63.39 146.92 63.39 141.79 58.65 141.79"/><rect class="cls-2" x="61.6" y="156.12" width="5.98" height="2.41"/><path class="cls-2" d="M132.21,210.5V197.63h1.53V209h4.86v1.46Z"/><path class="cls-2" d="M140.42,210.5V197.63h6.78V199H142v3.69h5.25v1.42H142v4.93h5.25v1.43Z"/><path class="cls-2" d="M149.8,210.5V197.63h2.47a17.92,17.92,0,0,1,3.86.28,5.14,5.14,0,0,1,2,.92,5.41,5.41,0,0,1,1.68,2.18,8.54,8.54,0,0,1,0,6.11,5.38,5.38,0,0,1-3.61,3.1,14.83,14.83,0,0,1-3.35.28h-3Zm1.54-1.45h1a17.41,17.41,0,0,0,3.29-.2,3.69,3.69,0,0,0,1.52-.71,4.11,4.11,0,0,0,1.2-1.7,6.34,6.34,0,0,0,.41-2.39,6.49,6.49,0,0,0-.4-2.38,4.33,4.33,0,0,0-1.21-1.69,3.61,3.61,0,0,0-1.54-.72,17,17,0,0,0-3.27-.22h-1Z"/><path class="cls-2" d="M167.16,209.14l1.18-.79a2.44,2.44,0,0,0,.85,1,2.15,2.15,0,0,0,1.2.32,1.69,1.69,0,0,0,1.09-.33,1.07,1.07,0,0,0,.42-.88.94.94,0,0,0-.28-.7,2.65,2.65,0,0,0-1-.52l-.23-.08c-2-.67-2.94-1.52-2.94-2.53a2.21,2.21,0,0,1,.79-1.75,3.08,3.08,0,0,1,2.06-.68,3.56,3.56,0,0,1,1.79.42,2.42,2.42,0,0,1,1.08,1.18l-1.12.69a1.8,1.8,0,0,0-.73-.85,2.05,2.05,0,0,0-1.11-.3,1.44,1.44,0,0,0-1,.34,1.1,1.1,0,0,0-.38.86c0,.49.53.91,1.6,1.24l.48.15a4.39,4.39,0,0,1,1.82,1,2,2,0,0,1,.51,1.43,2.34,2.34,0,0,1-.81,1.85,3.12,3.12,0,0,1-2.12.71,4,4,0,0,1-1.91-.42A3.19,3.19,0,0,1,167.16,209.14Z"/><path class="cls-2" d="M175.56,203.59h-1.48v-1.14h1.48v-3.24H177v3.24h1.48v1.14H177v6.91h-1.4Z"/><path class="cls-2" d="M180,210.5v-8.05h1.22v1.67a4.4,4.4,0,0,1,1.18-1.49,2.55,2.55,0,0,1,1.52-.45,2.45,2.45,0,0,1,.48,0,3.74,3.74,0,0,1,.45.12l-.45,1.24-.45-.12a1.94,1.94,0,0,0-.4,0,1.85,1.85,0,0,0-1.64.79,4.19,4.19,0,0,0-.54,2.37v3.92Z"/><path class="cls-2" d="M186.07,198.58a1,1,0,0,1,.29-.71,1,1,0,0,1,.72-.29,1,1,0,0,1,.71.29,1,1,0,0,1,.29.72,1,1,0,0,1-.29.71,1,1,0,0,1-.71.29,1,1,0,0,1-1-1Zm.33,11.92v-8.05h1.38v8.05Z"/><path class="cls-2" d="M190.68,214.41v-12H192V204a3.37,3.37,0,0,1,1.23-1.33,3.23,3.23,0,0,1,1.71-.47,3.55,3.55,0,0,1,2.79,1.19,4.53,4.53,0,0,1,1.06,3.15,4.64,4.64,0,0,1-1,3.16,3.48,3.48,0,0,1-2.77,1.18,3.26,3.26,0,0,1-1.73-.45,3.45,3.45,0,0,1-1.2-1.35v5.37ZM192,206.5a3.1,3.1,0,0,0,.75,2.17,2.57,2.57,0,0,0,2,.81,2.43,2.43,0,0,0,1.89-.74,3,3,0,0,0,.69-2.08,3.59,3.59,0,0,0-.69-2.33,2.35,2.35,0,0,0-1.92-.84,2.54,2.54,0,0,0-2,.8A3.18,3.18,0,0,0,192,206.5Z"/><path class="cls-2" d="M88.62,235.54l-.91.49a17.34,17.34,0,0,1-1.59-4.11,19.5,19.5,0,0,1-.53-4.59,19.77,19.77,0,0,1,.53-4.7,15,15,0,0,1,1.59-4l.91.43a17,17,0,0,0-1.35,3.9,20.87,20.87,0,0,0-.44,4.39,21.16,21.16,0,0,0,.44,4.47A14.48,14.48,0,0,0,88.62,235.54Z"/><path class="cls-2" d="M90.8,232.09V218.47h1.4v13.62Z"/><path class="cls-2" d="M94.83,220.18a1,1,0,0,1,1-1,1,1,0,0,1,.71.3,1,1,0,0,1,.29.72,1,1,0,0,1-.29.71,1,1,0,0,1-.71.29,1,1,0,0,1-1-1Zm.33,11.91v-8h1.38v8Z"/><path class="cls-2" d="M106.93,224.05V232a7.28,7.28,0,0,1-.17,1.87,2.62,2.62,0,0,1-.58,1,3.62,3.62,0,0,1-1.38.91,5.61,5.61,0,0,1-1.87.29,4.36,4.36,0,0,1-2.85-.83A3,3,0,0,1,99,232.82h1.55v.1a1.7,1.7,0,0,0,.62,1.4,2.8,2.8,0,0,0,1.77.49,3.35,3.35,0,0,0,1.41-.27,1.91,1.91,0,0,0,.89-.79,2.09,2.09,0,0,0,.27-.7,6.34,6.34,0,0,0,.08-1.13v-1.35a3.41,3.41,0,0,1-1.23,1.32,3.13,3.13,0,0,1-1.69.46,3.54,3.54,0,0,1-2.79-1.18,5.2,5.2,0,0,1,0-6.25,3.49,3.49,0,0,1,2.75-1.16,3.3,3.3,0,0,1,1.76.46,3.1,3.1,0,0,1,1.19,1.33v-1.5Zm-1.33,4a3.15,3.15,0,0,0-.74-2.18,2.77,2.77,0,0,0-3.88-.07,3.09,3.09,0,0,0-.69,2.14,3.28,3.28,0,0,0,.7,2.25,2.83,2.83,0,0,0,3.91,0A3.11,3.11,0,0,0,105.6,228.1Z"/><path class="cls-2" d="M109.72,232.09V218.47h1.34v6.82a3.49,3.49,0,0,1,1.25-1.15,3.66,3.66,0,0,1,1.69-.38,3.07,3.07,0,0,1,2.22.76,2.71,2.71,0,0,1,.8,2.1v5.47h-1.4v-4.73a2.74,2.74,0,0,0-.52-1.82,2,2,0,0,0-1.58-.59,2.78,2.78,0,0,0-1.13.22,2.29,2.29,0,0,0-.83.64,1.9,1.9,0,0,0-.37.72,6.34,6.34,0,0,0-.11,1.41v4.15Z"/><path class="cls-2" d="M120,225.19h-1.48v-1.14H120v-3.24h1.4v3.24h1.48v1.14h-1.48v6.9H120Z"/><path class="cls-2" d="M136.89,228.28h-6.37v.12a3,3,0,0,0,.74,2.09,2.5,2.5,0,0,0,1.93.8,2.55,2.55,0,0,0,1.45-.44,3.86,3.86,0,0,0,1.16-1.31l1,.7a4.06,4.06,0,0,1-3.72,2.2,3.9,3.9,0,0,1-3-1.22A4.46,4.46,0,0,1,129,228a4.34,4.34,0,0,1,1.13-3.09,3.78,3.78,0,0,1,2.89-1.2,3.62,3.62,0,0,1,2.82,1.14,4.42,4.42,0,0,1,1,3.12Zm-1.47-1.12a2.32,2.32,0,0,0-.71-1.64A2.52,2.52,0,0,0,133,225a2.36,2.36,0,0,0-2.45,2.21Z"/><path class="cls-2" d="M150.17,232.09v-4.73a2.8,2.8,0,0,0-.5-1.82,1.85,1.85,0,0,0-1.51-.59,2.31,2.31,0,0,0-1,.22,2.27,2.27,0,0,0-.8.64,2,2,0,0,0-.34.74,6.32,6.32,0,0,0-.11,1.39v4.15h-1.32v-4.73a2.87,2.87,0,0,0-.49-1.82,1.89,1.89,0,0,0-1.52-.59,2.38,2.38,0,0,0-1,.22,2.18,2.18,0,0,0-.8.64,1.78,1.78,0,0,0-.33.71,6.56,6.56,0,0,0-.1,1.42v4.15H139v-8h1.34v1.24a3.45,3.45,0,0,1,1.2-1.15,3.29,3.29,0,0,1,1.6-.38,3.12,3.12,0,0,1,1.66.42,2.61,2.61,0,0,1,1,1.22,3.5,3.5,0,0,1,1.22-1.23,3.25,3.25,0,0,1,1.64-.41,2.63,2.63,0,0,1,2.86,2.86v5.47Z"/><path class="cls-2" d="M154,220.18a1,1,0,0,1,1-1,1,1,0,0,1,.71.3,1,1,0,0,1,.29.72,1,1,0,0,1-.29.71,1,1,0,0,1-.71.29,1,1,0,0,1-1-1Zm.33,11.91v-8h1.38v8Z"/><path class="cls-2" d="M158.81,225.19h-1.48v-1.14h1.48v-3.24h1.4v3.24h1.48v1.14h-1.48v6.9h-1.4Z"/><path class="cls-2" d="M163.46,225.19H162v-1.14h1.47v-3.24h1.41v3.24h1.48v1.14h-1.48v6.9h-1.41Z"/><path class="cls-2" d="M167.66,220.18a1,1,0,0,1,.29-.71,1,1,0,0,1,.72-.3.94.94,0,0,1,.7.3,1,1,0,0,1-.7,1.72,1,1,0,0,1-.72-.29A1,1,0,0,1,167.66,220.18Zm.32,11.91v-8h1.39v8Z"/><path class="cls-2" d="M172.27,232.09v-8h1.35v1.24a3.39,3.39,0,0,1,1.24-1.15,3.66,3.66,0,0,1,1.69-.38,3.07,3.07,0,0,1,2.22.76,2.71,2.71,0,0,1,.8,2.1v5.47h-1.4v-4.73a2.69,2.69,0,0,0-.52-1.82,2,2,0,0,0-1.58-.59,2.7,2.7,0,0,0-1.12.22,2.24,2.24,0,0,0-.84.64,2.05,2.05,0,0,0-.37.72,6.34,6.34,0,0,0-.11,1.41v4.15Z"/><path class="cls-2" d="M189.79,224.05V232a6.75,6.75,0,0,1-.18,1.87,2.62,2.62,0,0,1-.58,1,3.51,3.51,0,0,1-1.37.91,5.69,5.69,0,0,1-1.87.29,4.36,4.36,0,0,1-2.85-.83,3,3,0,0,1-1.07-2.36h1.54v.1a1.68,1.68,0,0,0,.63,1.4,2.76,2.76,0,0,0,1.77.49,3.35,3.35,0,0,0,1.41-.27,2,2,0,0,0,.89-.79,2.08,2.08,0,0,0,.26-.7,6.34,6.34,0,0,0,.08-1.13v-1.35a3.47,3.47,0,0,1-1.22,1.32,3.16,3.16,0,0,1-1.7.46,3.57,3.57,0,0,1-2.79-1.18,5.2,5.2,0,0,1,0-6.25,3.51,3.51,0,0,1,2.75-1.16,3.28,3.28,0,0,1,1.76.46,3.18,3.18,0,0,1,1.2,1.33v-1.5Zm-1.34,4a3.15,3.15,0,0,0-.74-2.18,2.75,2.75,0,0,0-3.87-.07,3,3,0,0,0-.7,2.14,3.33,3.33,0,0,0,.7,2.25,2.5,2.5,0,0,0,2,.79,2.45,2.45,0,0,0,1.93-.78A3.06,3.06,0,0,0,188.45,228.1Z"/><path class="cls-2" d="M205.37,218.47v13.62H204v-1.45A3.37,3.37,0,0,1,202.8,232a3.13,3.13,0,0,1-1.68.47,3.55,3.55,0,0,1-2.79-1.19,4.57,4.57,0,0,1-1.06-3.15,4.62,4.62,0,0,1,1-3.16,3.51,3.51,0,0,1,2.76-1.18,3.18,3.18,0,0,1,1.74.46,3.28,3.28,0,0,1,1.2,1.34v-7.09ZM204,228.11a3.08,3.08,0,0,0-.74-2.16,2.54,2.54,0,0,0-2-.83,2.46,2.46,0,0,0-1.91.75,2.94,2.94,0,0,0-.68,2.07,3.55,3.55,0,0,0,.69,2.32,2.35,2.35,0,0,0,1.92.84,2.53,2.53,0,0,0,2-.79A3.15,3.15,0,0,0,204,228.11Z"/><path class="cls-2" d="M207.92,220.18a1,1,0,0,1,1-1,1,1,0,0,1,.71.3,1,1,0,0,1,.29.72,1,1,0,0,1-.29.71,1,1,0,0,1-.71.29,1,1,0,0,1-1-1Zm.32,11.91v-8h1.39v8Z"/><path class="cls-2" d="M211.88,228.1a4.3,4.3,0,0,1,.33-1.68,4.09,4.09,0,0,1,.95-1.4,4.3,4.3,0,0,1,1.41-.94,4.54,4.54,0,0,1,1.69-.32,4.35,4.35,0,0,1,3.09,1.28,4,4,0,0,1,1,1.39,4.25,4.25,0,0,1,.33,1.67,4.19,4.19,0,0,1-.33,1.65,4.06,4.06,0,0,1-1,1.39,4.39,4.39,0,0,1-1.43,1,4.15,4.15,0,0,1-1.66.34,4.35,4.35,0,0,1-3.1-1.28,4.29,4.29,0,0,1-.95-1.4A4.2,4.2,0,0,1,211.88,228.1Zm1.46,0a3,3,0,0,0,.85,2.15,2.83,2.83,0,0,0,4.12,0,3.18,3.18,0,0,0,0-4.31,2.83,2.83,0,0,0-4.12,0A3,3,0,0,0,213.34,228.1Z"/><path class="cls-2" d="M230.26,218.47v13.62h-1.34v-1.45a3.37,3.37,0,0,1-1.23,1.33,3.13,3.13,0,0,1-1.68.47,3.55,3.55,0,0,1-2.79-1.19,4.57,4.57,0,0,1-1.06-3.15,4.62,4.62,0,0,1,1-3.16,3.54,3.54,0,0,1,2.76-1.18,3.18,3.18,0,0,1,1.74.46,3.28,3.28,0,0,1,1.2,1.34v-7.09Zm-1.34,9.64a3.08,3.08,0,0,0-.74-2.16,2.54,2.54,0,0,0-2-.83,2.46,2.46,0,0,0-1.91.75,2.94,2.94,0,0,0-.68,2.07,3.55,3.55,0,0,0,.69,2.32,2.35,2.35,0,0,0,1.92.84,2.53,2.53,0,0,0,2-.79A3.15,3.15,0,0,0,228.92,228.11Z"/><path class="cls-2" d="M240.24,228.28h-6.37v.12a3,3,0,0,0,.74,2.09,2.5,2.5,0,0,0,1.93.8,2.53,2.53,0,0,0,1.45-.44,3.86,3.86,0,0,0,1.16-1.31l1,.7a4,4,0,0,1-3.72,2.2,3.9,3.9,0,0,1-3-1.22,4.46,4.46,0,0,1-1.13-3.18,4.34,4.34,0,0,1,1.13-3.09,3.78,3.78,0,0,1,2.89-1.2,3.62,3.62,0,0,1,2.82,1.14,4.42,4.42,0,0,1,1,3.12Zm-1.47-1.12a2.32,2.32,0,0,0-.71-1.64,2.52,2.52,0,0,0-1.74-.57,2.36,2.36,0,0,0-2.45,2.21Z"/><path class="cls-2" d="M241.62,235.54A14.85,14.85,0,0,0,243,231.8a21.16,21.16,0,0,0,.44-4.47,20.22,20.22,0,0,0-.44-4.39,17.47,17.47,0,0,0-1.34-3.9l.89-.43a15,15,0,0,1,1.61,4,19.79,19.79,0,0,1,.52,4.7,19.5,19.5,0,0,1-.53,4.59,17,17,0,0,1-1.6,4.11Z"/><path class="cls-2" d="M60.23,248.89h-1.1l1.39-10.59h1.09Z"/><path class="cls-2" d="M62.52,248.89l.82-6.25h1.09l-.83,6.25Zm.89-9.21a.74.74,0,0,1,.22-.52.73.73,0,0,1,.53-.22.69.69,0,0,1,.53.22.67.67,0,0,1,.22.52.73.73,0,0,1-.22.54.69.69,0,0,1-.53.22.75.75,0,0,1-.75-.76Z"/><path class="cls-2" d="M71.44,242.64h1.07l-.63,5c0,.1,0,.24,0,.43a7,7,0,0,1-.63,2.52,2.57,2.57,0,0,1-1.08,1,3.76,3.76,0,0,1-1.7.32,2.84,2.84,0,0,1-2-.69,2.42,2.42,0,0,1-.78-1.85l1.07-.14a1.79,1.79,0,0,0,.54,1.32,2,2,0,0,0,1.43.47,1.7,1.7,0,0,0,1.33-.57,2.89,2.89,0,0,0,.63-1.63l.11-.95a3.14,3.14,0,0,1-1,.9,2.76,2.76,0,0,1-1.27.29,2.44,2.44,0,0,1-1.94-.86,3.16,3.16,0,0,1-.77-2.19,3.71,3.71,0,0,1,.92-2.57,3,3,0,0,1,2.3-1,2.59,2.59,0,0,1,1.41.37,2.3,2.3,0,0,1,.88,1.09Zm-2.59,5.43a2,2,0,0,0,1.54-.75,2.85,2.85,0,0,0,.64-1.87,2.24,2.24,0,0,0-.5-1.52,1.61,1.61,0,0,0-1.29-.58,2.2,2.2,0,0,0-1.71.73,2.64,2.64,0,0,0-.66,1.85,2.15,2.15,0,0,0,.55,1.54A1.85,1.85,0,0,0,68.85,248.07Z"/><path class="cls-2" d="M73.79,248.89l1.39-10.59h1.08l-.74,5.36a3.32,3.32,0,0,1,1.06-.94,2.78,2.78,0,0,1,1.28-.31,2,2,0,0,1,1.42.5,1.73,1.73,0,0,1,.52,1.34c0,.1,0,.21,0,.32s0,.25,0,.37l-.52,3.95H78.14l.49-3.83s0-.08,0-.13a3.73,3.73,0,0,0,0-.44,1.07,1.07,0,0,0-.34-.86,1.47,1.47,0,0,0-1-.29A1.72,1.72,0,0,0,76,244a3.35,3.35,0,0,0-.69,1.78l-.42,3.16Z"/><path class="cls-2" d="M81.64,248.89l.7-5.34H81.18l.12-.91h1.16l.32-2.52h1.11l-.33,2.52h1.37l-.12.91H83.43l-.7,5.34Z"/><path class="cls-2" d="M91.78,248l.7-.83a2.48,2.48,0,0,0,.77.83,1.79,1.79,0,0,0,1,.28,1.5,1.5,0,0,0,.94-.27.88.88,0,0,0,.34-.73c0-.34-.32-.66-1-1l-.39-.19a3.52,3.52,0,0,1-1.19-.8,1.44,1.44,0,0,1-.29-.93,1.82,1.82,0,0,1,.63-1.42,2.42,2.42,0,0,1,1.64-.56,2.8,2.8,0,0,1,1.16.24,2.76,2.76,0,0,1,1,.69l-.65.78a2.19,2.19,0,0,0-.68-.58,2.06,2.06,0,0,0-.87-.19,1.23,1.23,0,0,0-.8.27.8.8,0,0,0-.33.64c0,.34.39.67,1.16,1l.11.05a3.33,3.33,0,0,1,1.24.79,1.58,1.58,0,0,1,.32,1,1.89,1.89,0,0,1-.62,1.49,2.41,2.41,0,0,1-1.68.55,3.06,3.06,0,0,1-1.39-.29A2.87,2.87,0,0,1,91.78,248Z"/><path class="cls-2" d="M97.83,246a3.55,3.55,0,0,1,1-2.57,3.37,3.37,0,0,1,2.52-1,3.1,3.1,0,0,1,2.24.86,2.83,2.83,0,0,1,.89,2.14,3.78,3.78,0,0,1-1,2.71,3.33,3.33,0,0,1-2.53,1A3,3,0,0,1,97.83,246Zm3.47-2.72a2.14,2.14,0,0,0-1.7.76,2.82,2.82,0,0,0-.68,1.94,2.36,2.36,0,0,0,.59,1.66,2,2,0,0,0,1.54.63,2.14,2.14,0,0,0,1.69-.76,2.76,2.76,0,0,0,.67-1.92,2.33,2.33,0,0,0-.59-1.66A1.93,1.93,0,0,0,101.3,243.3Z"/><path class="cls-2" d="M106.48,242.64h1.09l-.36,2.77c0,.07,0,.18,0,.31a12.58,12.58,0,0,0-.15,1.38,1,1,0,0,0,.35.79,1.88,1.88,0,0,0,2.21-.17,4.28,4.28,0,0,0,.58-2l.4-3.1h1.08l-.42,3.18a1.22,1.22,0,0,1,0,.22,4.35,4.35,0,0,1-.82,2.35,2.24,2.24,0,0,1-.88.57,3.47,3.47,0,0,1-1.2.2,2.63,2.63,0,0,1-1.71-.53,1.69,1.69,0,0,1-.65-1.4,15.85,15.85,0,0,1,.16-1.59v-.1Z"/><path class="cls-2" d="M116.8,243.66a1.78,1.78,0,0,0-.36-.14,1.64,1.64,0,0,0-.37-.05,1.31,1.31,0,0,0-1.14.61,4.27,4.27,0,0,0-.59,1.86l-.4,2.95h-1.06l.82-6.25h1.08l-.17,1a3.59,3.59,0,0,1,.87-.93,1.78,1.78,0,0,1,1-.29,1.76,1.76,0,0,1,.31,0,1.31,1.31,0,0,1,.32.1Z"/><path class="cls-2" d="M123.12,244.26a3.19,3.19,0,0,0-1-.72,2.72,2.72,0,0,0-1.11-.23,2.25,2.25,0,0,0-1.78.77,2.84,2.84,0,0,0-.69,2,2.15,2.15,0,0,0,.6,1.59,2.13,2.13,0,0,0,1.58.6,2.39,2.39,0,0,0,.94-.19,4.47,4.47,0,0,0,1-.64l-.17,1.18a2.87,2.87,0,0,1-.88.42,4.32,4.32,0,0,1-1.11.14,2.94,2.94,0,0,1-3.08-3.11,3.49,3.49,0,0,1,3.65-3.64,4.23,4.23,0,0,1,1.13.16,4.57,4.57,0,0,1,1.06.49Z"/><path class="cls-2" d="M130,246h-5v.11a2.34,2.34,0,0,0,.51,1.59,1.79,1.79,0,0,0,1.4.57,2,2,0,0,0,1-.26,3.27,3.27,0,0,0,.9-.83l.75.62a3.83,3.83,0,0,1-1.2,1.06,3,3,0,0,1-1.43.35,3,3,0,0,1-2.23-.84,3.18,3.18,0,0,1-.82-2.28,3.66,3.66,0,0,1,1-2.6,3.17,3.17,0,0,1,2.4-1,2.61,2.61,0,0,1,2,.8,3.22,3.22,0,0,1,.73,2.25v.3A1.28,1.28,0,0,0,130,246Zm-1-.89a1.89,1.89,0,0,0-.46-1.31,1.71,1.71,0,0,0-1.27-.45,2.13,2.13,0,0,0-1.39.47,2.23,2.23,0,0,0-.76,1.29Z"/><path class="cls-2" d="M138.31,248.89l.7-5.34h-1.16l.12-.91h1.17l.32-2.52h1.1l-.33,2.52h1.37l-.11.91h-1.38l-.71,5.34Z"/><path class="cls-2" d="M142.07,248.89l1.39-10.59h1.08l-.74,5.36a3.32,3.32,0,0,1,1.06-.94,2.78,2.78,0,0,1,1.28-.31,2,2,0,0,1,1.42.5,1.73,1.73,0,0,1,.52,1.34c0,.1,0,.21,0,.32s0,.25,0,.37l-.52,3.95h-1.09l.49-3.83s0-.08,0-.13a3.73,3.73,0,0,0,0-.44,1.07,1.07,0,0,0-.34-.86,1.47,1.47,0,0,0-1-.29,1.72,1.72,0,0,0-1.38.61,3.35,3.35,0,0,0-.69,1.78l-.42,3.16Z"/><path class="cls-2" d="M155.24,242.64h1.07l-.82,6.25H154.4l.15-.93a3.14,3.14,0,0,1-1,.9,2.73,2.73,0,0,1-1.27.29,2.43,2.43,0,0,1-2-.88,3.36,3.36,0,0,1-.75-2.27,3.69,3.69,0,0,1,.91-2.57,3,3,0,0,1,2.31-1,2.58,2.58,0,0,1,1.4.37,2.4,2.4,0,0,1,.88,1.12Zm-2.59,5.51a1.93,1.93,0,0,0,1.55-.76,2.86,2.86,0,0,0,.63-1.89,2.29,2.29,0,0,0-.49-1.53,1.62,1.62,0,0,0-1.3-.59,2.16,2.16,0,0,0-1.7.74,2.72,2.72,0,0,0-.67,1.88,2.21,2.21,0,0,0,.55,1.55A1.86,1.86,0,0,0,152.65,248.15Z"/><path class="cls-2" d="M157.85,248.89l.71-5.34h-1.17l.13-.91h1.16l.32-2.52h1.11l-.34,2.52h1.38l-.12.91h-1.38l-.7,5.34Z"/><path class="cls-2" d="M174.41,246h-5v.11a2.34,2.34,0,0,0,.51,1.59,1.79,1.79,0,0,0,1.4.57,2,2,0,0,0,1-.26,3.27,3.27,0,0,0,.9-.83l.75.62a3.83,3.83,0,0,1-1.2,1.06,3,3,0,0,1-1.43.35,3,3,0,0,1-2.22-.84,3.15,3.15,0,0,1-.83-2.28,3.66,3.66,0,0,1,1-2.6,3.17,3.17,0,0,1,2.4-1,2.64,2.64,0,0,1,2,.8,3.27,3.27,0,0,1,.72,2.25v.3A1.28,1.28,0,0,0,174.41,246Zm-1-.89a1.89,1.89,0,0,0-.46-1.31,1.7,1.7,0,0,0-1.26-.45,2.14,2.14,0,0,0-1.4.47,2.23,2.23,0,0,0-.76,1.29Z"/><path class="cls-2" d="M179.46,248.89l.5-3.84a2.7,2.7,0,0,0,0-.28c0-.1,0-.19,0-.28a1.18,1.18,0,0,0-.29-.86,1.15,1.15,0,0,0-.86-.29,1.39,1.39,0,0,0-1.18.6,3.71,3.71,0,0,0-.6,1.79l-.42,3.16h-1.08l.84-6.25h1l-.15,1a3.09,3.09,0,0,1,1-.89,2.3,2.3,0,0,1,1.15-.3,1.85,1.85,0,0,1,1.07.31,1.52,1.52,0,0,1,.58.87,3.23,3.23,0,0,1,1-.88,2.44,2.44,0,0,1,1.18-.3,1.66,1.66,0,0,1,1.27.5,1.85,1.85,0,0,1,.47,1.34c0,.13,0,.34-.05.62v.07l-.52,3.95h-1.1l.51-3.83,0-.29a2.62,2.62,0,0,0,0-.28,1.18,1.18,0,0,0-.29-.86,1.15,1.15,0,0,0-.86-.29,1.41,1.41,0,0,0-1.19.57,4,4,0,0,0-.59,1.82l-.41,3.16Z"/><path class="cls-2" d="M186.63,248.89l.83-6.25h1.08l-.82,6.25Zm.9-9.21a.75.75,0,1,1,1.49,0,.76.76,0,0,1-.21.54.71.71,0,0,1-.53.22.75.75,0,0,1-.53-.22A.73.73,0,0,1,187.53,239.68Z"/><path class="cls-2" d="M190.23,248.89l.7-5.34h-1.16l.12-.91h1.16l.32-2.52h1.11l-.33,2.52h1.37l-.12.91H192l-.7,5.34Z"/><path class="cls-2" d="M193.51,248l.69-.83a2.61,2.61,0,0,0,.78.83,1.79,1.79,0,0,0,1,.28,1.47,1.47,0,0,0,.93-.27.89.89,0,0,0,.35-.73c0-.34-.33-.66-1-1l-.39-.19a3.42,3.42,0,0,1-1.19-.8,1.44,1.44,0,0,1-.3-.93A1.83,1.83,0,0,1,195,243a2.39,2.39,0,0,1,1.63-.56,2.84,2.84,0,0,1,2.13.93l-.66.78a1.8,1.8,0,0,0-1.54-.77,1.21,1.21,0,0,0-.8.27.8.8,0,0,0-.33.64c0,.34.39.67,1.16,1l.11.05a3.33,3.33,0,0,1,1.24.79,1.57,1.57,0,0,1,.31,1,1.88,1.88,0,0,1-.61,1.49,2.41,2.41,0,0,1-1.68.55,3.1,3.1,0,0,1-1.4-.29A2.93,2.93,0,0,1,193.51,248Z"/><path class="cls-2" d="M207.72,248.89h-1.1L208,238.3h1.09Z"/><path class="cls-2" d="M210,248.89l.82-6.25h1.09l-.83,6.25Zm.89-9.21a.74.74,0,0,1,.22-.52.73.73,0,0,1,.53-.22.69.69,0,0,1,.53.22.67.67,0,0,1,.22.52.73.73,0,0,1-.22.54.69.69,0,0,1-.53.22.75.75,0,0,1-.75-.76Z"/><path class="cls-2" d="M218.93,242.64H220l-.63,5c0,.1,0,.24-.05.43a7,7,0,0,1-.63,2.52,2.51,2.51,0,0,1-1.08,1,3.76,3.76,0,0,1-1.7.32,2.84,2.84,0,0,1-2-.69,2.42,2.42,0,0,1-.78-1.85l1.07-.14a1.79,1.79,0,0,0,.54,1.32,2,2,0,0,0,1.43.47,1.7,1.7,0,0,0,1.33-.57,2.89,2.89,0,0,0,.63-1.63l.11-.95a3.14,3.14,0,0,1-1,.9,2.76,2.76,0,0,1-1.27.29,2.44,2.44,0,0,1-1.94-.86,3.16,3.16,0,0,1-.77-2.19,3.71,3.71,0,0,1,.92-2.57,3,3,0,0,1,2.3-1,2.59,2.59,0,0,1,1.41.37,2.3,2.3,0,0,1,.88,1.09Zm-2.59,5.43a2,2,0,0,0,1.54-.75,2.79,2.79,0,0,0,.64-1.87,2.24,2.24,0,0,0-.5-1.52,1.61,1.61,0,0,0-1.29-.58,2.2,2.2,0,0,0-1.71.73,2.64,2.64,0,0,0-.66,1.85,2.15,2.15,0,0,0,.55,1.54A1.85,1.85,0,0,0,216.34,248.07Z"/><path class="cls-2" d="M221.28,248.89l1.39-10.59h1.08l-.74,5.36a3.32,3.32,0,0,1,1.06-.94,2.78,2.78,0,0,1,1.28-.31,2,2,0,0,1,1.42.5,1.73,1.73,0,0,1,.52,1.34c0,.1,0,.21,0,.32s0,.25,0,.37l-.52,3.95h-1.09l.49-3.83s0-.08,0-.13a3.73,3.73,0,0,0,0-.44,1.07,1.07,0,0,0-.34-.86,1.47,1.47,0,0,0-1-.29,1.72,1.72,0,0,0-1.38.61,3.35,3.35,0,0,0-.69,1.78l-.42,3.16Z"/><path class="cls-2" d="M229.13,248.89l.7-5.34h-1.16l.12-.91H230l.32-2.52h1.11l-.33,2.52h1.37l-.11.91h-1.39l-.7,5.34Z"/><path class="cls-2" d="M239.48,242.64h1.15l1.22,4.28,2.53-4.7,1.4,4.7,2.31-4.28h1.15l-3.74,6.63-1.38-4.57-2.5,4.57Z"/><path class="cls-2" d="M249.71,248.89l1.4-10.59h1.08l-.75,5.36a3.35,3.35,0,0,1,1.07-.94,2.75,2.75,0,0,1,1.28-.31,2,2,0,0,1,1.42.5,1.73,1.73,0,0,1,.52,1.34c0,.1,0,.21,0,.32s0,.25,0,.37l-.52,3.95h-1.1l.49-3.83s0-.08,0-.13a3.73,3.73,0,0,0,0-.44,1.1,1.1,0,0,0-.34-.86,1.47,1.47,0,0,0-1-.29,1.73,1.73,0,0,0-1.39.61,3.35,3.35,0,0,0-.68,1.78l-.43,3.16Z"/><path class="cls-2" d="M263.24,246h-5v.11a2.34,2.34,0,0,0,.52,1.59,1.79,1.79,0,0,0,1.4.57,2,2,0,0,0,1-.26,3.27,3.27,0,0,0,.9-.83l.75.62a3.83,3.83,0,0,1-1.2,1.06,3,3,0,0,1-1.43.35,3,3,0,0,1-2.23-.84,3.18,3.18,0,0,1-.82-2.28,3.66,3.66,0,0,1,1-2.6,3.17,3.17,0,0,1,2.4-1,2.61,2.61,0,0,1,2,.8,3.22,3.22,0,0,1,.73,2.25v.3A1.28,1.28,0,0,0,263.24,246Zm-1-.89a1.89,1.89,0,0,0-.46-1.31,1.71,1.71,0,0,0-1.27-.45,2.13,2.13,0,0,0-1.39.47,2.23,2.23,0,0,0-.76,1.29Z"/><path class="cls-2" d="M264.41,248.89l.82-6.25h1l-.14,1a3.61,3.61,0,0,1,1.1-.94,2.67,2.67,0,0,1,1.26-.31,2,2,0,0,1,1.41.5,1.73,1.73,0,0,1,.53,1.34c0,.1,0,.21,0,.32s0,.25,0,.37l-.52,3.95h-1.09l.49-3.83s0-.08,0-.13c0-.22,0-.37,0-.44a1.07,1.07,0,0,0-.35-.86,1.45,1.45,0,0,0-1-.29,1.73,1.73,0,0,0-1.39.61,3.43,3.43,0,0,0-.69,1.78l-.42,3.16Z"/><path class="cls-2" d="M99.45,261.06a3.19,3.19,0,0,0-1-.72,2.71,2.71,0,0,0-1.1-.23,2.31,2.31,0,0,0-1.79.77,2.85,2.85,0,0,0-.69,2,2.06,2.06,0,0,0,2.18,2.18,2.39,2.39,0,0,0,.94-.19,4.76,4.76,0,0,0,1-.63l-.17,1.17a2.87,2.87,0,0,1-.88.42,4.3,4.3,0,0,1-1.1.14,3,3,0,0,1-2.24-.86,3.08,3.08,0,0,1-.85-2.25,3.49,3.49,0,0,1,3.65-3.64,4.17,4.17,0,0,1,1.13.16,4.39,4.39,0,0,1,1.06.49Z"/><path class="cls-2" d="M101.19,259.44h1.09l-.36,2.77c0,.07,0,.18,0,.31-.09.7-.14,1.16-.14,1.38a.94.94,0,0,0,.35.79,1.87,1.87,0,0,0,2.2-.17,4.16,4.16,0,0,0,.58-2l.41-3.1h1.08l-.43,3.18c0,.05,0,.12,0,.22a4.4,4.4,0,0,1-.82,2.35,2.35,2.35,0,0,1-.89.57,3.2,3.2,0,0,1-1.19.2,2.58,2.58,0,0,1-1.72-.53,1.72,1.72,0,0,1-.65-1.4c0-.23.06-.75.16-1.59v-.09Z"/><path class="cls-2" d="M111.51,260.46a1.78,1.78,0,0,0-.36-.14,1.57,1.57,0,0,0-.37-.05,1.31,1.31,0,0,0-1.14.61,4.41,4.41,0,0,0-.59,1.86l-.39,3H107.6l.82-6.26h1.08l-.17,1a3.1,3.1,0,0,1,.87-.92,1.55,1.55,0,0,1,1.27-.26,1.7,1.7,0,0,1,.32.1Z"/><path class="cls-2" d="M116.24,260.46a1.78,1.78,0,0,0-.36-.14,1.57,1.57,0,0,0-.37-.05,1.31,1.31,0,0,0-1.14.61,4.41,4.41,0,0,0-.59,1.86l-.39,3h-1.06l.82-6.26h1.08l-.17,1a3.1,3.1,0,0,1,.87-.92,1.65,1.65,0,0,1,1-.3,1.73,1.73,0,0,1,.63.14Z"/><path class="cls-2" d="M123,262.75h-5v.11a2.31,2.31,0,0,0,.51,1.58,1.79,1.79,0,0,0,1.4.58,2,2,0,0,0,1-.27,3.12,3.12,0,0,0,.9-.83l.76.62a4,4,0,0,1-1.21,1.06,3.25,3.25,0,0,1-3.65-.49,3.14,3.14,0,0,1-.82-2.28,3.66,3.66,0,0,1,1-2.6,3.17,3.17,0,0,1,2.4-1,2.61,2.61,0,0,1,2,.8,3.27,3.27,0,0,1,.72,2.25v.3C123,262.63,123,262.69,123,262.75Zm-1-.89a1.84,1.84,0,0,0-.46-1.31,1.7,1.7,0,0,0-1.26-.45,2.15,2.15,0,0,0-2.15,1.76Z"/><path class="cls-2" d="M124.17,265.7l.82-6.26h1l-.15,1a3.76,3.76,0,0,1,1.1-.94,2.7,2.7,0,0,1,1.26-.31,2,2,0,0,1,1.42.5,1.74,1.74,0,0,1,.52,1.34c0,.1,0,.21,0,.32s0,.25,0,.37l-.52,4h-1.1l.5-3.84s0-.07,0-.13a3.73,3.73,0,0,0,0-.44,1.07,1.07,0,0,0-.34-.86,1.53,1.53,0,0,0-1-.29,1.74,1.74,0,0,0-1.39.61,3.35,3.35,0,0,0-.68,1.78l-.42,3.17Z"/><path class="cls-2" d="M132,265.7l.71-5.35h-1.16l.12-.91h1.16l.32-2.52h1.11l-.34,2.52h1.38l-.12.91h-1.38l-.7,5.35Z"/><path class="cls-2" d="M140.22,265.7l.7-5.35h-1.15l.12-.91h1.16l.24-1.84a4.64,4.64,0,0,1,.62-2.07,1.52,1.52,0,0,1,1.29-.56,2.1,2.1,0,0,1,.51.06,2.43,2.43,0,0,1,.49.18l-.18,1-.45-.18a1,1,0,0,0-.28,0,.63.63,0,0,0-.57.29,3.74,3.74,0,0,0-.32,1.26l-.26,1.95h1.39l-.13.91H142l-.7,5.35Z"/><path class="cls-2" d="M145.28,265.7h-1.11l1.4-10.6h1.09Z"/><path class="cls-2" d="M147.35,262.82a3.52,3.52,0,0,1,1-2.57,3.36,3.36,0,0,1,2.51-1,3.11,3.11,0,0,1,2.25.86,2.87,2.87,0,0,1,.89,2.14,3.82,3.82,0,0,1-1,2.71,3.35,3.35,0,0,1-2.54,1,3.12,3.12,0,0,1-2.29-.86A3.08,3.08,0,0,1,147.35,262.82Zm3.48-2.72a2.18,2.18,0,0,0-1.71.76,2.81,2.81,0,0,0-.67,1.94,2.33,2.33,0,0,0,.58,1.66,2,2,0,0,0,1.54.63,2.16,2.16,0,0,0,1.7-.76,2.76,2.76,0,0,0,.67-1.92,2.37,2.37,0,0,0-.59-1.66A2,2,0,0,0,150.83,260.1Z"/><path class="cls-2" d="M155,259.44h1.15l1.21,4.28,2.53-4.7,1.4,4.7,2.32-4.28h1.14L161,266.07l-1.38-4.57-2.49,4.57Z"/><path class="cls-2" d="M164.72,264.79l.7-.83a2.51,2.51,0,0,0,.78.83,1.79,1.79,0,0,0,1,.28,1.47,1.47,0,0,0,.93-.27.89.89,0,0,0,.35-.73c0-.34-.33-.66-1-1l-.38-.19a3.42,3.42,0,0,1-1.19-.8,1.44,1.44,0,0,1-.3-.93,1.79,1.79,0,0,1,.64-1.42,2.39,2.39,0,0,1,1.63-.56,2.89,2.89,0,0,1,2.13.93l-.66.78a1.94,1.94,0,0,0-.68-.57,1.91,1.91,0,0,0-.86-.2,1.19,1.19,0,0,0-.8.27.8.8,0,0,0-.33.64c0,.34.38.67,1.15,1l.12,0a3.42,3.42,0,0,1,1.24.79,1.57,1.57,0,0,1,.31,1,1.88,1.88,0,0,1-.61,1.49,2.42,2.42,0,0,1-1.69.55,3.09,3.09,0,0,1-1.39-.29A3,3,0,0,1,164.72,264.79Z"/><path class="cls-2" d="M175.24,265.7l.7-5.35h-1.16l.12-.91h1.16l.33-2.52h1.1l-.33,2.52h1.37l-.11.91H177l-.71,5.35Z"/><path class="cls-2" d="M179,265.7l1.39-10.6h1.08l-.74,5.36a3.17,3.17,0,0,1,1.06-.93,2.67,2.67,0,0,1,1.28-.32,2,2,0,0,1,1.42.5,1.74,1.74,0,0,1,.52,1.34c0,.1,0,.21,0,.32s0,.25,0,.37l-.52,4h-1.1l.5-3.84s0-.07,0-.13a3.73,3.73,0,0,0,0-.44,1.07,1.07,0,0,0-.34-.86,1.53,1.53,0,0,0-1-.29,1.76,1.76,0,0,0-1.39.61,3.43,3.43,0,0,0-.68,1.78l-.42,3.17Z"/><path class="cls-2" d="M190.5,260.46a1.78,1.78,0,0,0-.36-.14,1.57,1.57,0,0,0-.37-.05,1.31,1.31,0,0,0-1.14.61,4.27,4.27,0,0,0-.59,1.86l-.4,3h-1.06l.83-6.26h1.08l-.18,1a3.25,3.25,0,0,1,.88-.92,1.55,1.55,0,0,1,1.27-.26,1.7,1.7,0,0,1,.32.1Z"/><path class="cls-2" d="M191.14,262.82a3.52,3.52,0,0,1,1-2.57,3.36,3.36,0,0,1,2.51-1,3.11,3.11,0,0,1,2.25.86,2.87,2.87,0,0,1,.89,2.14,3.82,3.82,0,0,1-1,2.71,3.35,3.35,0,0,1-2.53,1,3.09,3.09,0,0,1-2.29-.86A3.05,3.05,0,0,1,191.14,262.82Zm3.48-2.72a2.18,2.18,0,0,0-1.71.76,2.81,2.81,0,0,0-.67,1.94,2.33,2.33,0,0,0,.58,1.66,2,2,0,0,0,1.54.63,2.16,2.16,0,0,0,1.7-.76,2.76,2.76,0,0,0,.67-1.92,2.37,2.37,0,0,0-.59-1.66A2,2,0,0,0,194.62,260.1Z"/><path class="cls-2" d="M199.79,259.44h1.1l-.37,2.77c0,.07,0,.18,0,.31-.09.7-.14,1.16-.14,1.38a.94.94,0,0,0,.35.79,1.51,1.51,0,0,0,1,.28,1.54,1.54,0,0,0,1.23-.45,4.41,4.41,0,0,0,.58-2l.4-3.1H205l-.42,3.18c0,.05,0,.12,0,.22a4.4,4.4,0,0,1-.82,2.35,2.28,2.28,0,0,1-.89.57,3.2,3.2,0,0,1-1.19.2,2.58,2.58,0,0,1-1.72-.53,1.72,1.72,0,0,1-.65-1.4c0-.23.06-.75.16-1.59l0-.09Z"/><path class="cls-2" d="M211.78,259.44h1.08l-.63,5c0,.1,0,.24-.06.43a7,7,0,0,1-.63,2.52,2.55,2.55,0,0,1-1.07,1,3.82,3.82,0,0,1-1.7.32,2.85,2.85,0,0,1-2-.69,2.45,2.45,0,0,1-.77-1.85l1.07-.14a1.79,1.79,0,0,0,.54,1.32,2,2,0,0,0,1.42.47,1.72,1.72,0,0,0,1.34-.57,2.86,2.86,0,0,0,.62-1.63l.11-.95a3.14,3.14,0,0,1-1,.9,2.72,2.72,0,0,1-1.26.29,2.47,2.47,0,0,1-1.95-.86,3.16,3.16,0,0,1-.76-2.19,3.67,3.67,0,0,1,.92-2.57,3,3,0,0,1,2.3-1,2.64,2.64,0,0,1,1.41.37,2.28,2.28,0,0,1,.87,1.09Zm-2.59,5.43a2,2,0,0,0,1.55-.75,2.82,2.82,0,0,0,.63-1.87,2.24,2.24,0,0,0-.49-1.52,1.63,1.63,0,0,0-1.3-.58,2.18,2.18,0,0,0-1.7.73,2.64,2.64,0,0,0-.66,1.85,2.15,2.15,0,0,0,.55,1.54A1.83,1.83,0,0,0,209.19,264.87Z"/><path class="cls-2" d="M214.13,265.7l1.4-10.6h1.08l-.75,5.36a3.19,3.19,0,0,1,1.07-.93,2.64,2.64,0,0,1,1.28-.32,2,2,0,0,1,1.42.5,1.78,1.78,0,0,1,.52,1.34c0,.1,0,.21,0,.32s0,.25,0,.37l-.51,4h-1.1l.49-3.84a1.23,1.23,0,0,0,0-.13c0-.22,0-.37,0-.44a1.1,1.1,0,0,0-.34-.86,1.53,1.53,0,0,0-1-.29,1.73,1.73,0,0,0-1.39.61,3.35,3.35,0,0,0-.68,1.78l-.43,3.17Z"/><path class="cls-2" d="M225.8,265.7l.82-6.26h1.09l-.83,6.26Zm.89-9.22a.74.74,0,0,1,.22-.52.77.77,0,0,1,.53-.22.75.75,0,0,1,.75.74.73.73,0,0,1-.22.54.69.69,0,0,1-.53.22.75.75,0,0,1-.75-.76Z"/><path class="cls-2" d="M229.39,265.7l.71-5.35h-1.17l.13-.91h1.16l.32-2.52h1.11l-.34,2.52h1.38l-.12.91h-1.38l-.7,5.35Z"/><path class="cls-2" d="M233.34,265.05a.75.75,0,0,1,.23-.55.78.78,0,0,1,1.11,0,.75.75,0,0,1,.23.55.77.77,0,0,1-.23.56.75.75,0,0,1-.55.22.75.75,0,0,1-.56-.22A.77.77,0,0,1,233.34,265.05Z"/><path class="cls-2" d="M532,286.75h1.57v.15a2,2,0,0,0,.64,1.56A2.54,2.54,0,0,0,536,289a2.8,2.8,0,0,0,2-.64,2.82,2.82,0,0,0,0-3.72,3,3,0,0,0-2.09-.64h-.27l-.18,0v-1.26h.41a3,3,0,0,0,2-.58,2.49,2.49,0,0,0,.06-3.33,2.33,2.33,0,0,0-1.67-.59,2.58,2.58,0,0,0-1.76.55,2.2,2.2,0,0,0-.68,1.59h-1.51a3.45,3.45,0,0,1,1.11-2.54,4.22,4.22,0,0,1,2.87-.89,4.13,4.13,0,0,1,2.82.92,3.19,3.19,0,0,1,1,2.5,3.1,3.1,0,0,1-.6,1.93,2.92,2.92,0,0,1-1.68,1.07,2.76,2.76,0,0,1,1.8,1,3.84,3.84,0,0,1-.5,4.88,4.64,4.64,0,0,1-3.17,1,4.27,4.27,0,0,1-2.85-.91A3.11,3.11,0,0,1,532,287Z"/><path class="cls-2" d="M546.88,290.51l-5.44-13.37h1.66l3.78,9.84,3.76-9.84h1.65Z"/><path class="cls-2" d="M558.81,276.38h1.37v7.1a3.31,3.31,0,0,1,1.2-1.35,3.26,3.26,0,0,1,1.73-.46,3.52,3.52,0,0,1,2.77,1.18,4.67,4.67,0,0,1,1,3.16,4.55,4.55,0,0,1-1.06,3.15,3.55,3.55,0,0,1-2.79,1.19,3.22,3.22,0,0,1-1.7-.47,3.54,3.54,0,0,1-1.24-1.33V290h-1.31Zm1.31,9.65a3.13,3.13,0,0,0,.72,2.19,2.53,2.53,0,0,0,2,.79,2.38,2.38,0,0,0,1.93-.84,3.48,3.48,0,0,0,.7-2.32,2.94,2.94,0,0,0-.69-2.07,2.46,2.46,0,0,0-1.89-.74,2.55,2.55,0,0,0-2,.82A3.06,3.06,0,0,0,560.12,286Z"/><path class="cls-2" d="M576.59,282V290h-1.33v-1.46a3.58,3.58,0,0,1-1.24,1.34,3.12,3.12,0,0,1-1.68.46,3.56,3.56,0,0,1-2.79-1.19,5.29,5.29,0,0,1,0-6.31,3.48,3.48,0,0,1,2.75-1.18,3.31,3.31,0,0,1,1.75.46,3.18,3.18,0,0,1,1.2,1.35V282Zm-1.33,4.1a3.17,3.17,0,0,0-.74-2.19,2.77,2.77,0,0,0-3.88-.07,3.08,3.08,0,0,0-.69,2.14,3.28,3.28,0,0,0,.7,2.25,2.84,2.84,0,0,0,3.91,0A3.06,3.06,0,0,0,575.26,286.06Z"/><path class="cls-2" d="M579.56,283.1h-1.48V282h1.48v-3.24H581V282h1.48v1.14H581V290h-1.4Z"/><path class="cls-2" d="M584.21,283.1h-1.47V282h1.47v-3.24h1.41V282h1.48v1.14h-1.48V290h-1.41Z"/><path class="cls-2" d="M595.84,286.19h-6.37v.13a2.94,2.94,0,0,0,.74,2.08,2.5,2.5,0,0,0,1.92.8,2.56,2.56,0,0,0,1.46-.44,3.65,3.65,0,0,0,1.15-1.31l1,.7a4,4,0,0,1-3.73,2.2,3.88,3.88,0,0,1-3-1.21A4.51,4.51,0,0,1,588,286a4.35,4.35,0,0,1,1.12-3.09,3.79,3.79,0,0,1,2.89-1.2,3.64,3.64,0,0,1,2.83,1.14,4.47,4.47,0,0,1,1,3.12Zm-1.47-1.11a2.34,2.34,0,0,0-.71-1.64,2.5,2.5,0,0,0-1.75-.58,2.41,2.41,0,0,0-1.67.6,2.46,2.46,0,0,0-.77,1.62Z"/><path class="cls-2" d="M597.93,290V282h1.23v1.67a4.27,4.27,0,0,1,1.17-1.49,2.55,2.55,0,0,1,1.52-.45,3.58,3.58,0,0,1,.48,0l.46.12-.46,1.24-.45-.12a1.94,1.94,0,0,0-.4,0,1.85,1.85,0,0,0-1.64.79,4.19,4.19,0,0,0-.54,2.37V290Z"/><path class="cls-2" d="M603.91,293.93l2.18-4.71L602.93,282h1.6l2.33,5.78,2.48-5.78h1.51l-5.39,12Z"/><path class="cls-2" d="M530.79,309.86l1.21-9.31h1.1l-.15,1a3.2,3.2,0,0,1,1-.91,2.59,2.59,0,0,1,1.25-.29,2.48,2.48,0,0,1,1.95.87,3.37,3.37,0,0,1,.75,2.26A3.72,3.72,0,0,1,537,306a3,3,0,0,1-2.28,1,2.53,2.53,0,0,1-1.4-.37,2.31,2.31,0,0,1-.86-1.1l-.56,4.28Zm4.06-8.52a2,2,0,0,0-1.56.76,2.83,2.83,0,0,0-.63,1.88,2.26,2.26,0,0,0,.5,1.52,1.61,1.61,0,0,0,1.29.58,2.19,2.19,0,0,0,1.71-.73,2.65,2.65,0,0,0,.66-1.86,2.18,2.18,0,0,0-.55-1.55A1.83,1.83,0,0,0,534.85,301.34Z"/><path class="cls-2" d="M539,303.94a3.56,3.56,0,0,1,1-2.58,3.39,3.39,0,0,1,2.52-1,3.1,3.1,0,0,1,2.25.85,2.88,2.88,0,0,1,.89,2.14,3.81,3.81,0,0,1-1,2.71,3.32,3.32,0,0,1-2.54,1,3,3,0,0,1-3.15-3.13Zm3.47-2.73a2.17,2.17,0,0,0-1.7.76,2.81,2.81,0,0,0-.67,1.94,2.33,2.33,0,0,0,.58,1.66,2,2,0,0,0,1.54.63,2.18,2.18,0,0,0,1.7-.75,2.85,2.85,0,0,0,.67-1.93,2.37,2.37,0,0,0-.59-1.66A2,2,0,0,0,542.5,301.21Z"/><path class="cls-2" d="M546.65,300.55h1.15l1.21,4.28,2.53-4.7,1.4,4.7,2.31-4.28h1.15l-3.74,6.63-1.38-4.57-2.49,4.57Z"/><path class="cls-2" d="M562.81,303.86h-5V304a2.26,2.26,0,0,0,.52,1.58,1.78,1.78,0,0,0,1.4.58,2,2,0,0,0,1-.27,3.12,3.12,0,0,0,.9-.83l.75.62a3.81,3.81,0,0,1-1.2,1.06,2.94,2.94,0,0,1-1.43.35,3,3,0,0,1-2.23-.84,3.11,3.11,0,0,1-.82-2.28,3.64,3.64,0,0,1,1-2.59,3.1,3.1,0,0,1,2.4-1,2.57,2.57,0,0,1,2,.8,3.18,3.18,0,0,1,.73,2.24,2.55,2.55,0,0,1,0,.31A1,1,0,0,1,562.81,303.86Zm-1-.89a1.82,1.82,0,0,0-.47-1.3,1.65,1.65,0,0,0-1.26-.46,2.12,2.12,0,0,0-1.39.48,2.21,2.21,0,0,0-.76,1.28Z"/><path class="cls-2" d="M567.91,301.57a2.35,2.35,0,0,0-.37-.14,1.47,1.47,0,0,0-.36,0,1.32,1.32,0,0,0-1.14.6,4.27,4.27,0,0,0-.59,1.86l-.4,3H564l.82-6.26h1.08l-.17,1a3.38,3.38,0,0,1,.87-.92,1.68,1.68,0,0,1,1-.29l.31,0a2,2,0,0,1,.32.1Z"/><path class="cls-2" d="M572.28,305.9l.69-.83a2.51,2.51,0,0,0,.78.83,1.71,1.71,0,0,0,1,.28,1.47,1.47,0,0,0,.93-.27.88.88,0,0,0,.35-.73c0-.34-.33-.66-1-1a3.61,3.61,0,0,1-.39-.19,3.42,3.42,0,0,1-1.19-.8,1.4,1.4,0,0,1-.3-.93,1.83,1.83,0,0,1,.64-1.42,2.38,2.38,0,0,1,1.63-.55,2.79,2.79,0,0,1,2.13.92l-.66.79a1.84,1.84,0,0,0-.67-.58,1.92,1.92,0,0,0-.87-.2,1.21,1.21,0,0,0-.8.27.82.82,0,0,0-.33.64c0,.34.38.67,1.16,1l.11,0a3.33,3.33,0,0,1,1.24.79,1.57,1.57,0,0,1,.31,1,1.92,1.92,0,0,1-.61,1.5,2.46,2.46,0,0,1-1.68.54,3.24,3.24,0,0,1-1.4-.28A3,3,0,0,1,572.28,305.9Z"/><path class="cls-2" d="M579.26,300.55h1.1l-.37,2.77c0,.07,0,.18,0,.31-.09.7-.14,1.16-.14,1.39a.92.92,0,0,0,.35.78,1.51,1.51,0,0,0,1,.28,1.54,1.54,0,0,0,1.23-.45,4.4,4.4,0,0,0,.58-2l.4-3.11h1.08l-.42,3.18s0,.12,0,.22a4.4,4.4,0,0,1-.82,2.35,2.28,2.28,0,0,1-.89.57,3.2,3.2,0,0,1-1.19.2,2.58,2.58,0,0,1-1.72-.53,1.72,1.72,0,0,1-.65-1.4c0-.23.06-.75.16-1.59l0-.09Z"/><path class="cls-2" d="M585.19,309.86l1.22-9.31h1.09l-.14,1a3.07,3.07,0,0,1,1-.91,2.59,2.59,0,0,1,1.25-.29,2.48,2.48,0,0,1,2,.87,3.37,3.37,0,0,1,.76,2.26,3.72,3.72,0,0,1-.92,2.56,3,3,0,0,1-2.28,1,2.56,2.56,0,0,1-1.4-.37,2.31,2.31,0,0,1-.86-1.1l-.56,4.28Zm4.06-8.52a2,2,0,0,0-1.56.76,2.83,2.83,0,0,0-.63,1.88,2.26,2.26,0,0,0,.5,1.52,1.61,1.61,0,0,0,1.29.58,2.19,2.19,0,0,0,1.71-.73,2.65,2.65,0,0,0,.66-1.86,2.18,2.18,0,0,0-.55-1.55A1.83,1.83,0,0,0,589.25,301.34Z"/><path class="cls-2" d="M593.12,309.86l1.22-9.31h1.1l-.15,1a3.2,3.2,0,0,1,1-.91,2.59,2.59,0,0,1,1.25-.29,2.45,2.45,0,0,1,1.94.87,3.32,3.32,0,0,1,.76,2.26,3.72,3.72,0,0,1-.91,2.56,3,3,0,0,1-2.28,1,2.53,2.53,0,0,1-1.4-.37,2.25,2.25,0,0,1-.86-1.1l-.56,4.28Zm4.07-8.52a2,2,0,0,0-1.56.76A2.83,2.83,0,0,0,595,304a2.21,2.21,0,0,0,.5,1.52,1.61,1.61,0,0,0,1.29.58,2.19,2.19,0,0,0,1.71-.73,2.65,2.65,0,0,0,.66-1.86,2.18,2.18,0,0,0-.55-1.55A1.84,1.84,0,0,0,597.19,301.34Z"/><path class="cls-2" d="M602.67,306.81h-1.1l1.39-10.6h1.1Z"/><path class="cls-2" d="M604.38,309.86l2.18-3.74-1.7-5.57H606l1.29,4.47,2.43-4.47H611l-5.39,9.31Z"/><path class="cls-2" d="M815.47,288.1v1.6a4.27,4.27,0,0,1-1.22.49,6.92,6.92,0,0,1-1.48.16,4,4,0,0,1-3-1.18,4.3,4.3,0,0,1-1.14-3.11,4.4,4.4,0,0,1,1.18-3.16,4,4,0,0,1,3-1.23,5.64,5.64,0,0,1,1.3.15,5.14,5.14,0,0,1,1.2.41v1.47a4.73,4.73,0,0,0-1.09-.52,3.67,3.67,0,0,0-1.14-.18,2.89,2.89,0,0,0-2.17.85,3.1,3.1,0,0,0-.82,2.25,2.84,2.84,0,0,0,.82,2.08A2.77,2.77,0,0,0,813,289a3.47,3.47,0,0,0,1.23-.22A5.09,5.09,0,0,0,815.47,288.1Z"/><path class="cls-2" d="M816.74,286a4.52,4.52,0,0,1,.32-1.68,4.4,4.4,0,0,1,1-1.4,4.26,4.26,0,0,1,1.42-.93,4.32,4.32,0,0,1,1.69-.33,4.24,4.24,0,0,1,1.66.33,4.58,4.58,0,0,1,1.43.95,4.25,4.25,0,0,1,.95,1.39,4.47,4.47,0,0,1,.32,1.67,4.15,4.15,0,0,1-1.27,3,4.75,4.75,0,0,1-1.44,1,4.26,4.26,0,0,1-1.65.33,4.35,4.35,0,0,1-1.69-.33,4.45,4.45,0,0,1-1.42-.94,4.8,4.8,0,0,1-1-1.41A4.38,4.38,0,0,1,816.74,286Zm1.46,0a3,3,0,0,0,.85,2.15,2.78,2.78,0,0,0,2.07.89,2.71,2.71,0,0,0,2-.89A3,3,0,0,0,824,286a3,3,0,0,0-.85-2.16,2.7,2.7,0,0,0-2-.88,2.77,2.77,0,0,0-2.08.88A3,3,0,0,0,818.2,286Z"/><path class="cls-2" d="M827.37,278.09a1,1,0,0,1,.3-.71,1,1,0,0,1,.71-.29,1,1,0,0,1,.72,1.72,1,1,0,0,1-.72.29,1,1,0,0,1-.71-.29A1,1,0,0,1,827.37,278.09ZM827.7,290V282h1.39V290Z"/><path class="cls-2" d="M832,290V282h1.34v1.24a3.41,3.41,0,0,1,1.25-1.15,3.66,3.66,0,0,1,1.69-.38,3.11,3.11,0,0,1,2.22.76,2.75,2.75,0,0,1,.8,2.1V290h-1.41v-4.74a2.75,2.75,0,0,0-.51-1.82,2,2,0,0,0-1.59-.59,2.9,2.9,0,0,0-1.12.22,2.54,2.54,0,0,0-.84.64,1.88,1.88,0,0,0-.36.72,6.34,6.34,0,0,0-.11,1.41V290Z"/><path class="cls-2" d="M853.49,288.1v1.6a4.27,4.27,0,0,1-1.22.49,6.9,6.9,0,0,1-1.47.16,4,4,0,0,1-3-1.18,4.34,4.34,0,0,1-1.13-3.11,4.39,4.39,0,0,1,1.17-3.16,4,4,0,0,1,3-1.23,5.64,5.64,0,0,1,1.3.15,5.14,5.14,0,0,1,1.2.41v1.47a4.73,4.73,0,0,0-1.09-.52,3.67,3.67,0,0,0-1.14-.18,2.89,2.89,0,0,0-2.17.85,3.14,3.14,0,0,0-.82,2.25,2.88,2.88,0,0,0,.82,2.08A2.77,2.77,0,0,0,851,289a3.46,3.46,0,0,0,1.22-.22A4.92,4.92,0,0,0,853.49,288.1Z"/><path class="cls-2" d="M862.59,286.19h-6.37v.13a2.9,2.9,0,0,0,.74,2.08,2.5,2.5,0,0,0,1.92.8,2.56,2.56,0,0,0,1.46-.44,3.74,3.74,0,0,0,1.15-1.31l1,.7a4,4,0,0,1-3.73,2.2,3.88,3.88,0,0,1-3-1.21,4.46,4.46,0,0,1-1.13-3.19,4.35,4.35,0,0,1,1.12-3.09,3.79,3.79,0,0,1,2.89-1.2,3.64,3.64,0,0,1,2.83,1.14,4.47,4.47,0,0,1,1,3.12Zm-1.48-1.11a2.29,2.29,0,0,0-.7-1.64,2.5,2.5,0,0,0-1.75-.58,2.41,2.41,0,0,0-1.67.6,2.46,2.46,0,0,0-.77,1.62Z"/><path class="cls-2" d="M864.74,290V276.38h1.4V290Z"/><path class="cls-2" d="M869.09,290V276.38h1.41V290Z"/><path class="cls-2" d="M799,306.81h-1.11l1.4-10.6h1.1l-.72,5.32a3,3,0,0,1,1-.89,2.66,2.66,0,0,1,1.26-.3,2.45,2.45,0,0,1,2,.87,3.5,3.5,0,0,1,.75,2.34,3.73,3.73,0,0,1-.21,1.22,4.24,4.24,0,0,1-.6,1.13,3,3,0,0,1-1.05.87,3.1,3.1,0,0,1-1.35.3,2.49,2.49,0,0,1-1.39-.37,2.42,2.42,0,0,1-.88-1.11Zm2.56-5.45a2,2,0,0,0-1.55.75,2.85,2.85,0,0,0-.63,1.88,2.29,2.29,0,0,0,.5,1.55,1.61,1.61,0,0,0,1.29.58,2.19,2.19,0,0,0,1.71-.74,2.7,2.7,0,0,0,.66-1.88A2.16,2.16,0,0,0,803,302,1.86,1.86,0,0,0,801.58,301.36Z"/><path class="cls-2" d="M811.54,300.55h1.07l-.82,6.26H810.7l.15-.94a2.93,2.93,0,0,1-1,.9,2.76,2.76,0,0,1-1.27.29,2.43,2.43,0,0,1-2-.88,3.31,3.31,0,0,1-.76-2.27,3.7,3.7,0,0,1,.92-2.57,3,3,0,0,1,2.3-1,2.45,2.45,0,0,1,1.4.37,2.33,2.33,0,0,1,.89,1.11ZM809,306.06a1.92,1.92,0,0,0,1.54-.76,2.78,2.78,0,0,0,.64-1.88,2.3,2.3,0,0,0-.5-1.54,1.61,1.61,0,0,0-1.29-.59,2.21,2.21,0,0,0-1.71.74,2.71,2.71,0,0,0-.66,1.88,2.2,2.2,0,0,0,.55,1.56A1.88,1.88,0,0,0,809,306.06Z"/><path class="cls-2" d="M814.15,306.81l.7-5.35h-1.16l.12-.91H815l.32-2.52h1.1l-.33,2.52h1.37l-.11.91H816l-.71,5.35Z"/><path class="cls-2" d="M818.17,306.81l.7-5.35h-1.16l.12-.91H819l.33-2.52h1.1l-.33,2.52h1.37l-.11.91H820l-.71,5.35Z"/><path class="cls-2" d="M827.86,303.86h-5V304a2.31,2.31,0,0,0,.51,1.58,1.79,1.79,0,0,0,1.4.58,2,2,0,0,0,1-.27,3.28,3.28,0,0,0,.91-.83l.75.62a3.84,3.84,0,0,1-1.21,1.06,2.87,2.87,0,0,1-1.42.35,3,3,0,0,1-2.23-.84,3.11,3.11,0,0,1-.82-2.28,3.68,3.68,0,0,1,1-2.59,3.13,3.13,0,0,1,2.4-1,2.58,2.58,0,0,1,2,.8,3.23,3.23,0,0,1,.72,2.24v.31A1,1,0,0,1,827.86,303.86Zm-1-.89a1.82,1.82,0,0,0-.46-1.3,1.67,1.67,0,0,0-1.26-.46,2.12,2.12,0,0,0-1.39.48A2.16,2.16,0,0,0,823,303Z"/><path class="cls-2" d="M833,301.57a2.24,2.24,0,0,0-.36-.14,1.5,1.5,0,0,0-.37,0,1.33,1.33,0,0,0-1.14.6,4.41,4.41,0,0,0-.59,1.86l-.39,3H829l.82-6.26h1.08l-.17,1a3.1,3.1,0,0,1,.87-.92,1.65,1.65,0,0,1,1-.29l.31,0a1.86,1.86,0,0,1,.31.1Z"/><path class="cls-2" d="M833.23,309.86l2.18-3.74-1.7-5.57h1.16l1.29,4.47,2.43-4.47h1.25l-5.39,9.31Z"/><path class="cls-2" d="M844.31,306.81l1.39-10.6h1.08l-.74,5.36a3.28,3.28,0,0,1,1.06-.93,2.66,2.66,0,0,1,1.28-.31,2,2,0,0,1,1.42.49,1.74,1.74,0,0,1,.52,1.34c0,.1,0,.21,0,.33s0,.24,0,.37l-.52,3.95h-1.09l.49-3.84s0-.07,0-.13a3.73,3.73,0,0,0,0-.44,1.07,1.07,0,0,0-.34-.86,1.53,1.53,0,0,0-1-.29,1.72,1.72,0,0,0-1.38.61,3.35,3.35,0,0,0-.69,1.78l-.42,3.17Z"/><path class="cls-2" d="M851.73,303.94a3.52,3.52,0,0,1,1-2.58,3.36,3.36,0,0,1,2.51-1,3.1,3.1,0,0,1,2.25.85,2.88,2.88,0,0,1,.89,2.14,3.81,3.81,0,0,1-1,2.71,3.3,3.3,0,0,1-2.53,1,3,3,0,0,1-3.15-3.13Zm3.47-2.73a2.18,2.18,0,0,0-1.71.76,2.81,2.81,0,0,0-.67,1.94,2.33,2.33,0,0,0,.58,1.66,2,2,0,0,0,1.55.63,2.17,2.17,0,0,0,1.69-.75,2.8,2.8,0,0,0,.67-1.93,2.37,2.37,0,0,0-.59-1.66A1.93,1.93,0,0,0,855.2,301.21Z"/><path class="cls-2" d="M860.74,306.81h-1.11l1.4-10.6h1.09Z"/><path class="cls-2" d="M869.1,296.21h1.09l-1.4,10.6H867.7l.15-.94a2.93,2.93,0,0,1-1,.9,2.73,2.73,0,0,1-1.27.29,2.43,2.43,0,0,1-2-.88,3.36,3.36,0,0,1-.75-2.27,3.69,3.69,0,0,1,.91-2.57,3,3,0,0,1,2.31-1,2.5,2.5,0,0,1,1.4.37,2.32,2.32,0,0,1,.88,1.11ZM866,306.06a2,2,0,0,0,1.55-.76,2.83,2.83,0,0,0,.63-1.88,2.3,2.3,0,0,0-.49-1.54,1.63,1.63,0,0,0-1.3-.59,2.15,2.15,0,0,0-1.69.74,2.68,2.68,0,0,0-.66,1.88,2.24,2.24,0,0,0,.54,1.56A1.86,1.86,0,0,0,866,306.06Z"/><path class="cls-2" d="M876.85,303.86h-5V304a2.26,2.26,0,0,0,.52,1.58,1.78,1.78,0,0,0,1.4.58,2,2,0,0,0,1-.27,3.12,3.12,0,0,0,.9-.83l.75.62a3.81,3.81,0,0,1-1.2,1.06,2.94,2.94,0,0,1-1.43.35,3,3,0,0,1-2.23-.84,3.11,3.11,0,0,1-.82-2.28,3.64,3.64,0,0,1,1-2.59,3.1,3.1,0,0,1,2.4-1,2.57,2.57,0,0,1,2,.8,3.18,3.18,0,0,1,.73,2.24,2.55,2.55,0,0,1,0,.31A1,1,0,0,1,876.85,303.86Zm-1-.89a1.82,1.82,0,0,0-.47-1.3,1.65,1.65,0,0,0-1.26-.46,2.12,2.12,0,0,0-1.39.48,2.21,2.21,0,0,0-.76,1.28Z"/><path class="cls-2" d="M882,301.57a2.35,2.35,0,0,0-.37-.14,1.47,1.47,0,0,0-.36,0,1.32,1.32,0,0,0-1.14.6,4.27,4.27,0,0,0-.59,1.86l-.4,3H878l.82-6.26h1.08l-.17,1a3.38,3.38,0,0,1,.87-.92,1.68,1.68,0,0,1,1-.29l.31,0a2,2,0,0,1,.32.1Z"/><path class="cls-2" d="M301.38,534.49v-12h1.31V524a3.37,3.37,0,0,1,1.23-1.33,3.22,3.22,0,0,1,1.7-.47,3.57,3.57,0,0,1,2.8,1.19,5.31,5.31,0,0,1,0,6.31,3.48,3.48,0,0,1-2.76,1.18,3.21,3.21,0,0,1-1.74-.46,3.35,3.35,0,0,1-1.2-1.34v5.37Zm1.33-7.91a3.09,3.09,0,0,0,.74,2.17,2.57,2.57,0,0,0,2,.81,2.47,2.47,0,0,0,1.89-.74,3,3,0,0,0,.69-2.08,3.59,3.59,0,0,0-.69-2.33,2.35,2.35,0,0,0-1.92-.84,2.53,2.53,0,0,0-2,.8A3.18,3.18,0,0,0,302.71,526.58Z"/><path class="cls-2" d="M311.74,530.57V517h1.41v13.62Z"/><path class="cls-2" d="M315.7,534.49l2.18-4.71-3.15-7.25h1.59l2.34,5.78,2.48-5.78h1.51l-5.4,12Z"/><path class="cls-2" d="M328.88,522.24l2.41,5.78,2.16-5.49H335l-3.58,8.55-2.65-6.17-2.64,6.17-3.59-8.55h1.53l2.15,5.49,2.44-5.78Z"/><path class="cls-2" d="M335.75,526.58a4.3,4.3,0,0,1,.33-1.68,4.09,4.09,0,0,1,.95-1.4,4.3,4.3,0,0,1,1.41-.94,4.54,4.54,0,0,1,1.69-.32,4.4,4.4,0,0,1,3.09,1.28,4,4,0,0,1,.95,1.39,4.25,4.25,0,0,1,.33,1.67,4.19,4.19,0,0,1-.33,1.65,4.06,4.06,0,0,1-.95,1.39,4.39,4.39,0,0,1-1.43,1,4.15,4.15,0,0,1-1.66.34,4.35,4.35,0,0,1-3.1-1.28,4.29,4.29,0,0,1-.95-1.4A4.2,4.2,0,0,1,335.75,526.58Zm1.46,0a3,3,0,0,0,.85,2.15,2.83,2.83,0,0,0,4.12,0,3.18,3.18,0,0,0,0-4.31,2.83,2.83,0,0,0-4.12,0A3,3,0,0,0,337.21,526.58Z"/><path class="cls-2" d="M346,526.58a4.3,4.3,0,0,1,.33-1.68,4.09,4.09,0,0,1,.95-1.4,4.3,4.3,0,0,1,1.41-.94,4.54,4.54,0,0,1,1.69-.32,4.24,4.24,0,0,1,1.66.33,4.31,4.31,0,0,1,1.43.95,4.1,4.1,0,0,1,1,1.39,4.25,4.25,0,0,1,.33,1.67,4.21,4.21,0,0,1-1.28,3,4.43,4.43,0,0,1-1.44,1,4.1,4.1,0,0,1-1.65.34,4.43,4.43,0,0,1-1.69-.33,4.47,4.47,0,0,1-2.36-2.35A4.2,4.2,0,0,1,346,526.58Zm1.46,0a3,3,0,0,0,.85,2.15,2.83,2.83,0,0,0,4.12,0,3.18,3.18,0,0,0,0-4.31,2.83,2.83,0,0,0-4.12,0A3,3,0,0,0,347.45,526.58Z"/><path class="cls-2" d="M364.37,517v13.62H363v-1.45a3.37,3.37,0,0,1-1.23,1.33,3.13,3.13,0,0,1-1.68.47,3.58,3.58,0,0,1-2.8-1.19,5.31,5.31,0,0,1,0-6.31,3.48,3.48,0,0,1,2.76-1.18,3.18,3.18,0,0,1,1.74.46A3.28,3.28,0,0,1,363,524V517ZM363,526.59a3.11,3.11,0,0,0-.74-2.16,2.54,2.54,0,0,0-2-.83,2.46,2.46,0,0,0-1.91.75,2.94,2.94,0,0,0-.69,2.07,3.55,3.55,0,0,0,.7,2.32,2.35,2.35,0,0,0,1.92.84,2.53,2.53,0,0,0,2-.79A3.2,3.2,0,0,0,363,526.59Z"/><path class="cls-2" d="M285.64,547.37h-1.1l1.4-10.59H287l-.72,5.32a3,3,0,0,1,1-.9,2.71,2.71,0,0,1,1.25-.29,2.47,2.47,0,0,1,2,.87,3.47,3.47,0,0,1,.74,2.33,3.82,3.82,0,0,1-.8,2.35,2.87,2.87,0,0,1-1.06.87,2.93,2.93,0,0,1-1.34.31,2.46,2.46,0,0,1-1.39-.37,2.44,2.44,0,0,1-.89-1.11Zm2.57-5.44a2,2,0,0,0-1.55.75,2.78,2.78,0,0,0-.64,1.88,2.3,2.3,0,0,0,.5,1.54,1.61,1.61,0,0,0,1.29.59,2.2,2.2,0,0,0,1.71-.74,2.71,2.71,0,0,0,.66-1.88,2.2,2.2,0,0,0-.54-1.55A1.84,1.84,0,0,0,288.21,541.93Z"/><path class="cls-2" d="M296.49,542.14a1.78,1.78,0,0,0-.36-.14,1.57,1.57,0,0,0-.37,0,1.32,1.32,0,0,0-1.14.6,4.51,4.51,0,0,0-.59,1.87l-.39,3h-1.06l.82-6.25h1.08l-.17,1a3.29,3.29,0,0,1,.87-.93,1.72,1.72,0,0,1,1-.29,1.65,1.65,0,0,1,.31,0,1.19,1.19,0,0,1,.32.1Z"/><path class="cls-2" d="M297.14,544.5a3.51,3.51,0,0,1,1-2.57,3.36,3.36,0,0,1,2.51-1,3.11,3.11,0,0,1,2.25.86,2.87,2.87,0,0,1,.89,2.14,3.82,3.82,0,0,1-1,2.71,3.33,3.33,0,0,1-2.53,1,3.09,3.09,0,0,1-2.29-.86A3.06,3.06,0,0,1,297.14,544.5Zm3.47-2.72a2.18,2.18,0,0,0-1.71.76,2.81,2.81,0,0,0-.67,1.94,2.35,2.35,0,0,0,.58,1.66,2,2,0,0,0,1.54.63,2.16,2.16,0,0,0,1.7-.76,2.76,2.76,0,0,0,.67-1.92,2.42,2.42,0,0,0-.59-1.67A2,2,0,0,0,300.61,541.78Z"/><path class="cls-2" d="M304.85,544.5a3.51,3.51,0,0,1,1-2.57,3.36,3.36,0,0,1,2.51-1,3.11,3.11,0,0,1,2.25.86,2.87,2.87,0,0,1,.89,2.14,3.82,3.82,0,0,1-1,2.71,3.33,3.33,0,0,1-2.53,1,3.09,3.09,0,0,1-2.29-.86A3.06,3.06,0,0,1,304.85,544.5Zm3.47-2.72a2.18,2.18,0,0,0-1.71.76,2.81,2.81,0,0,0-.67,1.94,2.35,2.35,0,0,0,.58,1.66,2,2,0,0,0,1.55.63,2.15,2.15,0,0,0,1.69-.76,2.76,2.76,0,0,0,.67-1.92,2.42,2.42,0,0,0-.59-1.67A2,2,0,0,0,308.32,541.78Z"/><path class="cls-2" d="M318.24,542.74a3.35,3.35,0,0,0-1-.72,2.67,2.67,0,0,0-1.1-.23,2.31,2.31,0,0,0-1.79.76,2.89,2.89,0,0,0-.69,2,2.06,2.06,0,0,0,2.19,2.19,2.35,2.35,0,0,0,.93-.19,4.26,4.26,0,0,0,1-.64l-.17,1.18a2.77,2.77,0,0,1-.88.42,4.25,4.25,0,0,1-1.1.14,2.94,2.94,0,0,1-3.08-3.11,3.48,3.48,0,0,1,3.65-3.64,4.15,4.15,0,0,1,1.12.16,4.39,4.39,0,0,1,1.06.49Z"/><path class="cls-2" d="M319.21,547.37l1.39-10.59h1.08l-.74,5.36a3.32,3.32,0,0,1,1.06-.94,2.78,2.78,0,0,1,1.28-.31,2,2,0,0,1,1.42.5,1.73,1.73,0,0,1,.52,1.34c0,.1,0,.21,0,.32s0,.24,0,.37l-.52,4h-1.09l.49-3.83s0-.08,0-.13a3.68,3.68,0,0,0,0-.45,1.06,1.06,0,0,0-.34-.85,1.47,1.47,0,0,0-1-.29,1.72,1.72,0,0,0-1.38.61,3.35,3.35,0,0,0-.69,1.78l-.42,3.16Z"/><path class="cls-2" d="M330.35,546.46l.7-.82a2.59,2.59,0,0,0,.77.83,1.79,1.79,0,0,0,1,.28,1.48,1.48,0,0,0,.94-.27.9.9,0,0,0,.34-.73c0-.34-.32-.66-1-1l-.39-.19a3.8,3.8,0,0,1-1.19-.8,1.49,1.49,0,0,1-.29-.93,1.8,1.8,0,0,1,.63-1.42,2.42,2.42,0,0,1,1.64-.56,2.77,2.77,0,0,1,1.16.24,2.67,2.67,0,0,1,1,.69l-.65.78a2.09,2.09,0,0,0-.68-.58,2.06,2.06,0,0,0-.87-.19,1.23,1.23,0,0,0-.8.27.79.79,0,0,0-.32.64c0,.34.38.67,1.15,1l.12,0a3.36,3.36,0,0,1,1.23.79,1.58,1.58,0,0,1,.32,1,1.89,1.89,0,0,1-.62,1.49,2.41,2.41,0,0,1-1.68.55,3.2,3.2,0,0,1-1.39-.29A2.89,2.89,0,0,1,330.35,546.46Z"/><path class="cls-2" d="M336.83,547.37l.71-5.34h-1.17l.13-.91h1.16l.32-2.52h1.11l-.34,2.52h1.38L340,542h-1.38l-.7,5.34Z"/><path class="cls-2" d="M344.51,542.14a1.78,1.78,0,0,0-.36-.14,1.64,1.64,0,0,0-.37,0,1.32,1.32,0,0,0-1.14.6,4.37,4.37,0,0,0-.59,1.87l-.4,3h-1.06l.82-6.25h1.08l-.17,1a3.59,3.59,0,0,1,.87-.93,1.78,1.78,0,0,1,1-.29,1.76,1.76,0,0,1,.31,0,1.31,1.31,0,0,1,.32.1Z"/><path class="cls-2" d="M346.09,541.12h1.09l-.36,2.77c0,.07,0,.18,0,.31a12.58,12.58,0,0,0-.15,1.38,1,1,0,0,0,.35.79,1.54,1.54,0,0,0,1,.28,1.51,1.51,0,0,0,1.22-.45,4.16,4.16,0,0,0,.58-2l.41-3.1h1.08l-.43,3.18a1.22,1.22,0,0,1,0,.22,4.35,4.35,0,0,1-.82,2.35,2.24,2.24,0,0,1-.88.57,3.41,3.41,0,0,1-1.19.2,2.64,2.64,0,0,1-1.72-.53,1.72,1.72,0,0,1-.65-1.4,15.85,15.85,0,0,1,.16-1.59V544Z"/><path class="cls-2" d="M358,542.74a3.19,3.19,0,0,0-1-.72,2.72,2.72,0,0,0-1.11-.23,2.28,2.28,0,0,0-1.78.76,2.89,2.89,0,0,0-.69,2,2.15,2.15,0,0,0,.6,1.59,2.13,2.13,0,0,0,1.58.6,2.39,2.39,0,0,0,.94-.19,4.47,4.47,0,0,0,1-.64l-.17,1.18a2.87,2.87,0,0,1-.88.42,4.32,4.32,0,0,1-1.11.14,3,3,0,0,1-2.23-.86,3.08,3.08,0,0,1-.85-2.25,3.49,3.49,0,0,1,3.65-3.64,4.23,4.23,0,0,1,1.13.16,4.57,4.57,0,0,1,1.06.49Z"/><path class="cls-2" d="M359.23,547.37l.71-5.34h-1.17l.13-.91h1.16l.32-2.52h1.11l-.34,2.52h1.38l-.12.91H361l-.7,5.34Z"/><path class="cls-2" d="M363.76,541.12h1.09l-.36,2.77c0,.07,0,.18,0,.31a11.7,11.7,0,0,0-.14,1.38,1,1,0,0,0,.34.79,1.54,1.54,0,0,0,1,.28,1.51,1.51,0,0,0,1.22-.45,4.16,4.16,0,0,0,.58-2l.41-3.1h1.08l-.43,3.18a1.22,1.22,0,0,1,0,.22,4.35,4.35,0,0,1-.82,2.35,2.24,2.24,0,0,1-.88.57,3.41,3.41,0,0,1-1.19.2,2.64,2.64,0,0,1-1.72-.53,1.72,1.72,0,0,1-.65-1.4,15.85,15.85,0,0,1,.16-1.59V544Z"/><path class="cls-2" d="M374.08,542.14a1.78,1.78,0,0,0-.36-.14,1.57,1.57,0,0,0-.37,0,1.32,1.32,0,0,0-1.14.6,4.37,4.37,0,0,0-.59,1.87l-.4,3h-1.06l.82-6.25h1.08l-.17,1a3.45,3.45,0,0,1,.88-.93,1.72,1.72,0,0,1,1-.29,1.65,1.65,0,0,1,.31,0,1.19,1.19,0,0,1,.32.1Z"/><path class="cls-2" d="M380.83,544.43h-5v.11a2.34,2.34,0,0,0,.51,1.59,1.79,1.79,0,0,0,1.4.57,2,2,0,0,0,1-.26,3.27,3.27,0,0,0,.9-.83l.75.62a3.83,3.83,0,0,1-1.2,1.06,3,3,0,0,1-1.43.35,3,3,0,0,1-2.22-.84,3.15,3.15,0,0,1-.83-2.28,3.66,3.66,0,0,1,1-2.6,3.17,3.17,0,0,1,2.4-1,2.64,2.64,0,0,1,2,.8,3.27,3.27,0,0,1,.72,2.25v.3C380.84,544.31,380.83,544.37,380.83,544.43Zm-1-.89a1.84,1.84,0,0,0-.46-1.31,1.7,1.7,0,0,0-1.26-.45,2.09,2.09,0,0,0-1.39.47,2.2,2.2,0,0,0-.77,1.29Z"/><path class="cls-2" d="M596.13,534.49v-12h1.31V524a3.37,3.37,0,0,1,1.23-1.33,3.22,3.22,0,0,1,1.7-.47,3.56,3.56,0,0,1,2.8,1.19,5.31,5.31,0,0,1,0,6.31,3.48,3.48,0,0,1-2.76,1.18,3.17,3.17,0,0,1-1.73-.46,3.3,3.3,0,0,1-1.21-1.34v5.37Zm1.33-7.91a3.14,3.14,0,0,0,.74,2.17,2.57,2.57,0,0,0,2,.81,2.49,2.49,0,0,0,1.9-.74,3,3,0,0,0,.69-2.08,3.59,3.59,0,0,0-.69-2.33,2.35,2.35,0,0,0-1.92-.84,2.54,2.54,0,0,0-2,.8A3.18,3.18,0,0,0,597.46,526.58Z"/><path class="cls-2" d="M613.91,522.53v8h-1.34v-1.45a3.45,3.45,0,0,1-1.23,1.33,3.13,3.13,0,0,1-1.68.47,3.55,3.55,0,0,1-2.79-1.19,4.57,4.57,0,0,1-1.06-3.15,4.64,4.64,0,0,1,1-3.16,3.48,3.48,0,0,1,2.76-1.18,3.24,3.24,0,0,1,1.75.46,3.35,3.35,0,0,1,1.2,1.34v-1.51Zm-1.34,4.1a3.13,3.13,0,0,0-.74-2.19,2.73,2.73,0,0,0-3.87-.07,3.07,3.07,0,0,0-.69,2.13,3.29,3.29,0,0,0,.69,2.25,2.52,2.52,0,0,0,2,.8,2.46,2.46,0,0,0,1.92-.77A3.08,3.08,0,0,0,612.57,526.63Z"/><path class="cls-2" d="M616.66,534.49v-12H618V524a3.37,3.37,0,0,1,1.23-1.33,3.23,3.23,0,0,1,1.71-.47,3.55,3.55,0,0,1,2.79,1.19,5.27,5.27,0,0,1,0,6.31,3.48,3.48,0,0,1-2.76,1.18,3.17,3.17,0,0,1-1.73-.46,3.37,3.37,0,0,1-1.21-1.34v5.37Zm1.33-7.91a3.1,3.1,0,0,0,.75,2.17,2.53,2.53,0,0,0,2,.81,2.48,2.48,0,0,0,1.9-.74,3,3,0,0,0,.69-2.08,3.59,3.59,0,0,0-.69-2.33,2.35,2.35,0,0,0-1.92-.84,2.54,2.54,0,0,0-2,.8A3.18,3.18,0,0,0,618,526.58Z"/><path class="cls-2" d="M634.13,526.76h-6.37v.12a3,3,0,0,0,.74,2.09,2.5,2.5,0,0,0,1.92.8,2.56,2.56,0,0,0,1.46-.44A3.86,3.86,0,0,0,633,528l1,.7a4.06,4.06,0,0,1-3.73,2.2,3.89,3.89,0,0,1-3-1.22,4.48,4.48,0,0,1-1.13-3.18,4.33,4.33,0,0,1,1.12-3.09,3.81,3.81,0,0,1,2.9-1.21,3.63,3.63,0,0,1,2.82,1.15,4.42,4.42,0,0,1,1,3.12Zm-1.47-1.12A2.36,2.36,0,0,0,632,524a2.54,2.54,0,0,0-1.75-.57,2.36,2.36,0,0,0-2.44,2.21Z"/><path class="cls-2" d="M636.23,530.57v-8h1.22v1.67a4.29,4.29,0,0,1,1.17-1.49,2.56,2.56,0,0,1,1.53-.45,2.42,2.42,0,0,1,.47,0l.46.12-.46,1.24a2.16,2.16,0,0,0-.45-.12,2.08,2.08,0,0,0-2,.75,4.18,4.18,0,0,0-.54,2.36v3.92Z"/><path class="cls-2" d="M580.14,547.37H579l1.4-10.59h1.1l-.72,5.32a3,3,0,0,1,1-.9,2.78,2.78,0,0,1,1.26-.29,2.45,2.45,0,0,1,2,.87,3.47,3.47,0,0,1,.75,2.33,3.79,3.79,0,0,1-.21,1.23,4,4,0,0,1-.6,1.12,2.76,2.76,0,0,1-1.05.87,3,3,0,0,1-1.35.31,2.49,2.49,0,0,1-1.39-.37,2.42,2.42,0,0,1-.88-1.11Zm2.56-5.44a2,2,0,0,0-1.55.75,2.83,2.83,0,0,0-.63,1.88,2.3,2.3,0,0,0,.49,1.54,1.65,1.65,0,0,0,1.3.59A2.23,2.23,0,0,0,584,546a2.71,2.71,0,0,0,.66-1.88,2.16,2.16,0,0,0-.55-1.55A1.83,1.83,0,0,0,582.7,541.93Z"/><path class="cls-2" d="M591,542.14a1.78,1.78,0,0,0-.36-.14,1.64,1.64,0,0,0-.37,0,1.32,1.32,0,0,0-1.14.6,4.37,4.37,0,0,0-.59,1.87l-.4,3h-1.06l.82-6.25H589l-.17,1a3.59,3.59,0,0,1,.87-.93,1.78,1.78,0,0,1,1-.29,1.76,1.76,0,0,1,.31,0,1.31,1.31,0,0,1,.32.1Z"/><path class="cls-2" d="M591.63,544.5a3.55,3.55,0,0,1,1-2.57,3.4,3.4,0,0,1,2.52-1,3.13,3.13,0,0,1,2.25.86,2.87,2.87,0,0,1,.89,2.14,3.82,3.82,0,0,1-1,2.71,3.35,3.35,0,0,1-2.54,1,3,3,0,0,1-3.15-3.14Zm3.47-2.72a2.16,2.16,0,0,0-1.7.76,2.82,2.82,0,0,0-.68,1.94,2.36,2.36,0,0,0,.59,1.66,2,2,0,0,0,1.54.63,2.17,2.17,0,0,0,1.7-.76,2.81,2.81,0,0,0,.67-1.92,2.38,2.38,0,0,0-.6-1.67A2,2,0,0,0,595.1,541.78Z"/><path class="cls-2" d="M599.34,544.5a3.55,3.55,0,0,1,1-2.57,3.4,3.4,0,0,1,2.52-1,3.11,3.11,0,0,1,2.25.86,2.87,2.87,0,0,1,.89,2.14,3.82,3.82,0,0,1-1,2.71,3.35,3.35,0,0,1-2.54,1,3,3,0,0,1-3.15-3.14Zm3.47-2.72a2.17,2.17,0,0,0-1.7.76,2.81,2.81,0,0,0-.67,1.94,2.35,2.35,0,0,0,.58,1.66,2,2,0,0,0,1.54.63,2.17,2.17,0,0,0,1.7-.76,2.81,2.81,0,0,0,.67-1.92,2.38,2.38,0,0,0-.6-1.67A2,2,0,0,0,602.81,541.78Z"/><path class="cls-2" d="M612.73,542.74a3.19,3.19,0,0,0-1-.72,2.72,2.72,0,0,0-1.11-.23,2.29,2.29,0,0,0-1.78.76,2.89,2.89,0,0,0-.69,2,2.15,2.15,0,0,0,.6,1.59,2.13,2.13,0,0,0,1.58.6,2.39,2.39,0,0,0,.94-.19,4.47,4.47,0,0,0,1-.64l-.17,1.18a2.87,2.87,0,0,1-.88.42,4.3,4.3,0,0,1-1.1.14,3,3,0,0,1-2.24-.86,3.08,3.08,0,0,1-.85-2.25,3.49,3.49,0,0,1,3.65-3.64,4.23,4.23,0,0,1,1.13.16,4.39,4.39,0,0,1,1.06.49Z"/><path class="cls-2" d="M613.7,547.37l1.4-10.59h1.08l-.75,5.36a3.35,3.35,0,0,1,1.07-.94,2.75,2.75,0,0,1,1.28-.31,2,2,0,0,1,1.42.5,1.73,1.73,0,0,1,.52,1.34c0,.1,0,.21,0,.32s0,.24-.05.37l-.51,4h-1.1l.49-3.83s0-.08,0-.13c0-.22,0-.37,0-.45a1.09,1.09,0,0,0-.34-.85,1.47,1.47,0,0,0-1-.29,1.73,1.73,0,0,0-1.39.61,3.35,3.35,0,0,0-.68,1.78l-.43,3.16Z"/><path class="cls-2" d="M630.83,542.74a3.19,3.19,0,0,0-1-.72,2.71,2.71,0,0,0-1.1-.23,2.3,2.3,0,0,0-1.79.76,2.89,2.89,0,0,0-.69,2,2.06,2.06,0,0,0,2.18,2.19,2.39,2.39,0,0,0,.94-.19,4.47,4.47,0,0,0,1-.64l-.17,1.18a2.87,2.87,0,0,1-.88.42,4.3,4.3,0,0,1-1.1.14,3,3,0,0,1-2.24-.86,3.08,3.08,0,0,1-.85-2.25,3.49,3.49,0,0,1,3.65-3.64,4.17,4.17,0,0,1,1.13.16,4.39,4.39,0,0,1,1.06.49Z"/><path class="cls-2" d="M631.63,544.5a3.52,3.52,0,0,1,1-2.57,3.36,3.36,0,0,1,2.51-1,3.11,3.11,0,0,1,2.25.86,2.87,2.87,0,0,1,.89,2.14,3.82,3.82,0,0,1-1,2.71,3.35,3.35,0,0,1-2.53,1,3,3,0,0,1-3.16-3.14Zm3.48-2.72a2.18,2.18,0,0,0-1.71.76,2.81,2.81,0,0,0-.67,1.94,2.35,2.35,0,0,0,.58,1.66,2,2,0,0,0,1.54.63,2.16,2.16,0,0,0,1.7-.76,2.76,2.76,0,0,0,.67-1.92,2.42,2.42,0,0,0-.59-1.67A2,2,0,0,0,635.11,541.78Z"/><path class="cls-2" d="M639.19,541.12h1.16l1.35,4.35,2.48-4.35h1.24l-4,6.63Z"/><path class="cls-2" d="M651.7,544.43h-5v.11a2.34,2.34,0,0,0,.52,1.59,1.79,1.79,0,0,0,1.4.57,2,2,0,0,0,1-.26,3.27,3.27,0,0,0,.9-.83l.75.62a3.83,3.83,0,0,1-1.2,1.06,3.05,3.05,0,0,1-1.43.35,3,3,0,0,1-2.23-.84,3.14,3.14,0,0,1-.82-2.28,3.66,3.66,0,0,1,1-2.6,3.15,3.15,0,0,1,2.4-1,2.61,2.61,0,0,1,2,.8,3.22,3.22,0,0,1,.73,2.25,2.45,2.45,0,0,1,0,.3A1.15,1.15,0,0,1,651.7,544.43Zm-1-.89a1.85,1.85,0,0,0-.47-1.31,1.67,1.67,0,0,0-1.26-.45,2.13,2.13,0,0,0-1.39.47,2.23,2.23,0,0,0-.76,1.29Z"/><path class="cls-2" d="M656.8,542.14a1.78,1.78,0,0,0-.36-.14,1.64,1.64,0,0,0-.37,0,1.32,1.32,0,0,0-1.14.6,4.37,4.37,0,0,0-.59,1.87l-.4,3h-1.06l.82-6.25h1.08l-.17,1a3.59,3.59,0,0,1,.87-.93,1.78,1.78,0,0,1,1-.29,1.76,1.76,0,0,1,.31,0,1.31,1.31,0,0,1,.32.1Z"/><path class="cls-2" d="M820,517h1.37V524a3.35,3.35,0,0,1,1.2-1.34,3.17,3.17,0,0,1,1.73-.46,3.48,3.48,0,0,1,2.77,1.18,4.66,4.66,0,0,1,1,3.16,4.57,4.57,0,0,1-1.06,3.15,3.55,3.55,0,0,1-2.79,1.19,3.22,3.22,0,0,1-1.7-.47,3.62,3.62,0,0,1-1.24-1.33v1.45H820Zm1.31,9.64a3.15,3.15,0,0,0,.72,2.2,2.53,2.53,0,0,0,2,.79,2.38,2.38,0,0,0,1.93-.84,3.49,3.49,0,0,0,.7-2.32,2.94,2.94,0,0,0-.69-2.07,2.43,2.43,0,0,0-1.89-.75,2.56,2.56,0,0,0-2,.83A3.08,3.08,0,0,0,821.28,526.59Z"/><path class="cls-2" d="M837.75,522.53v8h-1.33v-1.45a3.47,3.47,0,0,1-1.24,1.33,3.13,3.13,0,0,1-1.68.47,3.56,3.56,0,0,1-2.79-1.19,5.29,5.29,0,0,1,0-6.31,3.44,3.44,0,0,1,2.75-1.18,3.14,3.14,0,0,1,3,1.8v-1.51Zm-1.33,4.1a3.17,3.17,0,0,0-.74-2.19,2.74,2.74,0,0,0-3.88-.07,3.07,3.07,0,0,0-.69,2.13,3.24,3.24,0,0,0,.7,2.25,2.83,2.83,0,0,0,3.91,0A3.08,3.08,0,0,0,836.42,526.63Z"/><path class="cls-2" d="M840.52,530.57V517h1.38v9.23l3.88-3.65h1.84l-4,3.68,4.38,4.36h-1.93l-4.15-4.24v4.24Z"/><path class="cls-2" d="M849.13,518.66a1,1,0,0,1,.29-.71,1,1,0,0,1,.72-.3.94.94,0,0,1,.7.3,1,1,0,0,1-.7,1.72,1,1,0,0,1-.72-.29A1,1,0,0,1,849.13,518.66Zm.32,11.91v-8h1.39v8Z"/><path class="cls-2" d="M853.74,530.57v-8h1.35v1.24a3.39,3.39,0,0,1,1.24-1.15,3.66,3.66,0,0,1,1.69-.38,3.07,3.07,0,0,1,2.22.76,2.71,2.71,0,0,1,.8,2.1v5.47h-1.4v-4.73a2.69,2.69,0,0,0-.52-1.82,2,2,0,0,0-1.58-.59,2.7,2.7,0,0,0-1.12.22,2.14,2.14,0,0,0-.84.64,2.05,2.05,0,0,0-.37.72,6.34,6.34,0,0,0-.11,1.41v4.15Z"/><path class="cls-2" d="M871.26,522.53v7.9a6.75,6.75,0,0,1-.18,1.87,2.62,2.62,0,0,1-.58,1,3.51,3.51,0,0,1-1.37.91,5.69,5.69,0,0,1-1.87.29,4.36,4.36,0,0,1-2.85-.83,3,3,0,0,1-1.07-2.37h1.55v.11a1.67,1.67,0,0,0,.62,1.4,2.78,2.78,0,0,0,1.77.49,3.35,3.35,0,0,0,1.41-.27,2,2,0,0,0,.89-.79,2.08,2.08,0,0,0,.26-.7,5.51,5.51,0,0,0,.08-1.13V529a3.42,3.42,0,0,1-1.22,1.33,3.16,3.16,0,0,1-1.7.46,3.57,3.57,0,0,1-2.79-1.18,5.2,5.2,0,0,1,0-6.25,3.52,3.52,0,0,1,2.75-1.16,3.28,3.28,0,0,1,1.76.46,3.12,3.12,0,0,1,1.2,1.33v-1.5Zm-1.34,4.05a3.1,3.1,0,0,0-.74-2.18,2.75,2.75,0,0,0-3.87-.07,3,3,0,0,0-.7,2.14,3.33,3.33,0,0,0,.7,2.25,2.5,2.5,0,0,0,2,.79,2.45,2.45,0,0,0,1.93-.78A3.08,3.08,0,0,0,869.92,526.58Z"/><path class="cls-2" d="M879.35,534.49v-12h1.31V524a3.37,3.37,0,0,1,1.23-1.33,3.23,3.23,0,0,1,1.71-.47,3.55,3.55,0,0,1,2.79,1.19,4.53,4.53,0,0,1,1.06,3.15,4.59,4.59,0,0,1-1,3.16,3.46,3.46,0,0,1-2.76,1.18,3.17,3.17,0,0,1-1.73-.46,3.44,3.44,0,0,1-1.21-1.34v5.37Zm1.33-7.91a3.1,3.1,0,0,0,.75,2.17,2.53,2.53,0,0,0,2,.81,2.48,2.48,0,0,0,1.9-.74,3,3,0,0,0,.69-2.08,3.59,3.59,0,0,0-.69-2.33,2.35,2.35,0,0,0-1.92-.84,2.54,2.54,0,0,0-2,.8A3.18,3.18,0,0,0,880.68,526.58Z"/><path class="cls-2" d="M897.13,522.53v8H895.8v-1.45a3.55,3.55,0,0,1-1.24,1.33,3.13,3.13,0,0,1-1.68.47,3.55,3.55,0,0,1-2.79-1.19,5.29,5.29,0,0,1,0-6.31,3.44,3.44,0,0,1,2.75-1.18,3.14,3.14,0,0,1,3,1.8v-1.51Zm-1.33,4.1a3.13,3.13,0,0,0-.75-2.19,2.45,2.45,0,0,0-1.93-.84,2.5,2.5,0,0,0-1.94.77,3.07,3.07,0,0,0-.69,2.13,3.24,3.24,0,0,0,.7,2.25,2.83,2.83,0,0,0,3.91,0A3.12,3.12,0,0,0,895.8,526.63Z"/><path class="cls-2" d="M899.88,534.49v-12h1.31V524a3.37,3.37,0,0,1,1.23-1.33,3.23,3.23,0,0,1,1.71-.47,3.55,3.55,0,0,1,2.79,1.19,4.53,4.53,0,0,1,1.06,3.15,4.64,4.64,0,0,1-1,3.16,3.48,3.48,0,0,1-2.77,1.18,3.17,3.17,0,0,1-1.73-.46,3.35,3.35,0,0,1-1.2-1.34v5.37Zm1.33-7.91a3.1,3.1,0,0,0,.75,2.17,2.57,2.57,0,0,0,2,.81,2.47,2.47,0,0,0,1.89-.74,3,3,0,0,0,.69-2.08,3.59,3.59,0,0,0-.69-2.33,2.35,2.35,0,0,0-1.92-.84,2.54,2.54,0,0,0-2,.8A3.18,3.18,0,0,0,901.21,526.58Z"/><path class="cls-2" d="M917.36,526.76H911v.12a3,3,0,0,0,.74,2.09,2.52,2.52,0,0,0,1.93.8,2.59,2.59,0,0,0,1.46-.44,3.94,3.94,0,0,0,1.15-1.31l1,.7a4,4,0,0,1-3.72,2.2,3.86,3.86,0,0,1-3-1.22,4.44,4.44,0,0,1-1.14-3.18,4.34,4.34,0,0,1,1.13-3.09,3.79,3.79,0,0,1,2.89-1.21,3.63,3.63,0,0,1,2.82,1.15,4.43,4.43,0,0,1,1.05,3.12Zm-1.48-1.12a2.32,2.32,0,0,0-.71-1.64,2.5,2.5,0,0,0-1.74-.57,2.36,2.36,0,0,0-2.45,2.21Z"/><path class="cls-2" d="M919.45,530.57v-8h1.22v1.67a4.19,4.19,0,0,1,1.18-1.49,2.51,2.51,0,0,1,1.52-.45,2.42,2.42,0,0,1,.47,0,3.9,3.9,0,0,1,.46.12l-.46,1.24a2,2,0,0,0-.45-.12,1.87,1.87,0,0,0-.4,0,1.83,1.83,0,0,0-1.63.79,4.09,4.09,0,0,0-.55,2.36v3.92Z"/><path class="cls-2" d="M835.49,547.37h-1.1l1.4-10.59h1.09Z"/><path class="cls-2" d="M837.79,547.37l.82-6.25h1.09l-.83,6.25Zm.89-9.21a.7.7,0,0,1,.22-.52.73.73,0,0,1,.53-.22.69.69,0,0,1,.53.22.67.67,0,0,1,.22.52.75.75,0,0,1-.75.76.77.77,0,0,1-.53-.22A.73.73,0,0,1,838.68,538.16Z"/><path class="cls-2" d="M846.71,541.12h1.07l-.63,5c0,.1,0,.24,0,.43a7,7,0,0,1-.63,2.52,2.57,2.57,0,0,1-1.08,1,3.79,3.79,0,0,1-1.7.32,2.84,2.84,0,0,1-2-.69,2.42,2.42,0,0,1-.78-1.85l1.07-.14a1.79,1.79,0,0,0,.54,1.32,2,2,0,0,0,1.42.47,1.68,1.68,0,0,0,1.34-.58,2.83,2.83,0,0,0,.63-1.62l.11-1a3.17,3.17,0,0,1-1,.91,2.76,2.76,0,0,1-1.27.29,2.47,2.47,0,0,1-2-.86,3.21,3.21,0,0,1-.76-2.19,3.71,3.71,0,0,1,.92-2.57,3,3,0,0,1,2.3-1,2.59,2.59,0,0,1,1.41.37,2.36,2.36,0,0,1,.88,1.09Zm-2.59,5.43a1.93,1.93,0,0,0,1.54-.76,2.8,2.8,0,0,0,.64-1.86,2.24,2.24,0,0,0-.5-1.52,1.61,1.61,0,0,0-1.3-.58,2.21,2.21,0,0,0-1.7.72,2.68,2.68,0,0,0-.66,1.86,2.15,2.15,0,0,0,.55,1.54A1.85,1.85,0,0,0,844.12,546.55Z"/><path class="cls-2" d="M849.06,547.37l1.39-10.59h1.08l-.74,5.36a3.32,3.32,0,0,1,1.06-.94,2.78,2.78,0,0,1,1.28-.31,2,2,0,0,1,1.42.5,1.73,1.73,0,0,1,.52,1.34c0,.1,0,.21,0,.32s0,.24,0,.37l-.52,4h-1.09l.49-3.83s0-.08,0-.13a3.68,3.68,0,0,0,0-.45,1.06,1.06,0,0,0-.34-.85,1.47,1.47,0,0,0-1-.29,1.76,1.76,0,0,0-1.39.61,3.43,3.43,0,0,0-.68,1.78l-.42,3.16Z"/><path class="cls-2" d="M856.91,547.37l.7-5.34h-1.16l.12-.91h1.16l.32-2.52h1.11l-.33,2.52h1.37l-.12.91H858.7l-.7,5.34Z"/><path class="cls-2" d="M870.82,536.78h1.08l-1.4,10.59h-1.09l.16-.93a3.25,3.25,0,0,1-1,.9,2.77,2.77,0,0,1-1.28.29,2.46,2.46,0,0,1-1.95-.88,3.36,3.36,0,0,1-.75-2.27,3.68,3.68,0,0,1,.92-2.57,3,3,0,0,1,2.3-1,2.53,2.53,0,0,1,1.4.37,2.4,2.4,0,0,1,.88,1.12Zm-3.16,9.85a1.93,1.93,0,0,0,1.55-.76,2.86,2.86,0,0,0,.64-1.89,2.29,2.29,0,0,0-.5-1.53,1.59,1.59,0,0,0-1.3-.59,2.16,2.16,0,0,0-1.69.73,2.72,2.72,0,0,0-.66,1.89,2.16,2.16,0,0,0,.55,1.55A1.81,1.81,0,0,0,867.66,546.63Z"/><path class="cls-2" d="M872.68,547.37l.82-6.25h1.09l-.83,6.25Zm.89-9.21a.74.74,0,0,1,.22-.52.73.73,0,0,1,.53-.22.69.69,0,0,1,.53.22.67.67,0,0,1,.22.52.75.75,0,0,1-.75.76.75.75,0,0,1-.75-.76Z"/><path class="cls-2" d="M876.43,547.37l.7-5.34H876l.11-.91h1.17l.23-1.84a4.77,4.77,0,0,1,.62-2.07,1.51,1.51,0,0,1,1.3-.56,2.1,2.1,0,0,1,.51.06,2.67,2.67,0,0,1,.49.18l-.19,1a3,3,0,0,0-.45-.18,1,1,0,0,0-.28,0,.63.63,0,0,0-.57.29,3.81,3.81,0,0,0-.31,1.26l-.26,2h1.38l-.12.91h-1.38l-.69,5.34Z"/><path class="cls-2" d="M880.77,547.37l.7-5.34h-1.15l.11-.91h1.17l.24-1.84a4.66,4.66,0,0,1,.61-2.07,1.52,1.52,0,0,1,1.3-.56,2.1,2.1,0,0,1,.51.06,2.67,2.67,0,0,1,.49.18l-.19,1a3,3,0,0,0-.45-.18,1,1,0,0,0-.28,0,.63.63,0,0,0-.57.29,3.81,3.81,0,0,0-.31,1.26l-.26,2h1.38L884,542h-1.38l-.69,5.34Z"/><path class="cls-2" d="M885.46,541.12h1.09l-.36,2.77c0,.07,0,.18,0,.31a11.7,11.7,0,0,0-.14,1.38,1,1,0,0,0,.34.79,1.54,1.54,0,0,0,1,.28,1.51,1.51,0,0,0,1.22-.45,4.16,4.16,0,0,0,.58-2l.41-3.1h1.08l-.43,3.18c0,.05,0,.12,0,.22a4.43,4.43,0,0,1-.82,2.35,2.35,2.35,0,0,1-.89.57,3.41,3.41,0,0,1-1.19.2,2.64,2.64,0,0,1-1.72-.53,1.72,1.72,0,0,1-.65-1.4,15.85,15.85,0,0,1,.16-1.59V544Z"/><path class="cls-2" d="M891.39,546.46l.69-.82a2.61,2.61,0,0,0,.78.83,1.79,1.79,0,0,0,1,.28,1.47,1.47,0,0,0,.93-.27.9.9,0,0,0,.35-.73c0-.34-.33-.66-1-1l-.39-.19a3.56,3.56,0,0,1-1.19-.8,1.44,1.44,0,0,1-.3-.93,1.81,1.81,0,0,1,.64-1.42,2.39,2.39,0,0,1,1.63-.56,2.84,2.84,0,0,1,2.13.93l-.66.78a1.8,1.8,0,0,0-1.54-.77,1.21,1.21,0,0,0-.8.27.8.8,0,0,0-.33.64c0,.34.38.67,1.16,1l.11,0a3.33,3.33,0,0,1,1.24.79,1.57,1.57,0,0,1,.31,1,1.88,1.88,0,0,1-.61,1.49,2.41,2.41,0,0,1-1.68.55,3.24,3.24,0,0,1-1.4-.29A2.86,2.86,0,0,1,891.39,546.46Z"/><path class="cls-2" d="M903.54,544.43h-5v.11a2.34,2.34,0,0,0,.51,1.59,1.79,1.79,0,0,0,1.4.57,2,2,0,0,0,1-.26,3.27,3.27,0,0,0,.9-.83l.76.62a4,4,0,0,1-1.21,1.06,3.25,3.25,0,0,1-3.65-.49,3.14,3.14,0,0,1-.82-2.28,3.66,3.66,0,0,1,.95-2.6,3.17,3.17,0,0,1,2.4-1,2.61,2.61,0,0,1,2,.8,3.27,3.27,0,0,1,.72,2.25v.3C903.55,544.31,903.54,544.37,903.54,544.43Zm-1-.89a1.84,1.84,0,0,0-.46-1.31,1.7,1.7,0,0,0-1.26-.45,2.11,2.11,0,0,0-1.39.47,2.25,2.25,0,0,0-.77,1.29Z"/><path class="cls-2" d="M908.63,542.14a1.78,1.78,0,0,0-.36-.14,1.57,1.57,0,0,0-.37,0,1.32,1.32,0,0,0-1.14.6,4.51,4.51,0,0,0-.59,1.87l-.39,3h-1.06l.82-6.25h1.08l-.17,1a3.29,3.29,0,0,1,.87-.93,1.72,1.72,0,0,1,1-.29,1.65,1.65,0,0,1,.31,0,1.19,1.19,0,0,1,.32.1Z"/><path class="cls-2" d="M555.89,177.47h3a2.77,2.77,0,0,0,.85,1.94,2.75,2.75,0,0,0,3.91,0,2.81,2.81,0,0,0,0-4,2.75,2.75,0,0,0-3.93,0l-2.15-2.16,4.86-4.82h-5.9v-3h10.2v3h0l0,0-3.36,3.33a5.93,5.93,0,0,1,2.44,1.46,5.8,5.8,0,0,1,1.53,5.63,5.69,5.69,0,0,1-1.53,2.61,5.39,5.39,0,0,1-1.89,1.27,5.9,5.9,0,0,1-2.22.44,5.86,5.86,0,0,1-4.12-1.71,5.35,5.35,0,0,1-1.23-1.85A6.23,6.23,0,0,1,555.89,177.47Z"/><path class="cls-2" d="M569,165.45h3.45L577.7,178l5.14-12.54h3.47L579.07,183h-2.74Z"/><path class="cls-2" d="M564.47,204.92v-2.6h5.12v-5.48h2.9v5.48h5.1v2.6h-5.1v5.53h-2.9v-5.53Z"/><circle class="cls-1" cx="570.89" cy="185.58" r="47.49"/><path class="cls-3" d="M399.1,417.33a2.31,2.31,0,1,1-2.23,2.31A2.27,2.27,0,0,1,399.1,417.33Zm0,9.13a2.31,2.31,0,1,1-2.23,2.3A2.26,2.26,0,0,1,399.1,426.46Z"/><path class="cls-4" d="M291.47,303.65A137.4,137.4,0,0,1,423.58,435.76a5,5,0,0,1-5,5.19H291.32a5,5,0,0,1-5-5V308.69A5,5,0,0,1,291.47,303.65Z"/><path class="cls-2" d="M266.68,451.76V332.92A128.55,128.55,0,0,1,385.52,451.76Zm-4.15-128.44a5,5,0,0,0-5.21,5.06V456.07a5.06,5.06,0,0,0,5.05,5.06H390.06a5,5,0,0,0,5.06-5.22A137.9,137.9,0,0,0,262.53,323.32"/><path class="cls-2" d="M246.3,481.1V362.26A128.57,128.57,0,0,1,365.15,481.1Zm-4.15-128.44a5,5,0,0,0-5.21,5.06V485.41a5.06,5.06,0,0,0,5.06,5.06H369.69a5.06,5.06,0,0,0,5.06-5.22,137.92,137.92,0,0,0-132.6-132.59"/><rect class="cls-1" x="567.59" y="385.92" width="100.67" height="100.67"/><rect class="cls-1" x="823.28" y="385.92" width="100.67" height="100.67"/><path d="M852.06,236.45H795.8a50.88,50.88,0,0,1,0-101.75h56.26Z"/><rect x="852.06" y="212.01" width="6.89" height="6.89"/><line class="cls-1" x1="852.06" y1="173.78" x2="934.95" y2="173.78"/><line class="cls-5" x1="852.06" y1="158.67" x2="934.95" y2="158.67"/><line class="cls-6" x1="895.72" y1="402.52" x2="912.13" y2="418.94"/><line class="cls-6" x1="890.8" y1="414.49" x2="899.42" y2="423.11"/><rect class="cls-7" width="1023.45" height="628.4"/></g></g></svg>