<svg xmlns="http://www.w3.org/2000/svg" viewBox="0 0 740.65 214.38"><defs><style>.cls-1,.cls-2{fill:none;}.cls-1{stroke:#231f20;stroke-linecap:round;stroke-linejoin:round;stroke-width:7.17px;}</style></defs><g id="Layer_2" data-name="Layer 2"><g id="Layer_1-2" data-name="Layer 1"><path class="cls-1" d="M414.26,59.35c-8.39-9.23-22.38-9.88-34.9-.5S366.51,75,357.65,74.76s-26-8.75-35.59,7.93S325.12,108,330,108.93s20.31.07,24.18,4.35c5.14,5.67-1.58,13,4.11,18.8,3.6,3.66,10.64,2,12.63,4.92s1.44,4.9.56,8.06-2.89,11,6.06,15.59,27.41-1.21,33.52-10.29,6.58-20.73,1.91-35.8,3.21-21.24,4.53-23.54S428.85,75.42,414.26,59.35Z"/><rect class="cls-2" width="740.65" height="214.38"/></g></g></svg>