<svg xmlns="http://www.w3.org/2000/svg" viewBox="0 0 595.25 962.88"><defs><style>.cls-1{fill:#f6f6f4;}.cls-2{fill:#fff;}.cls-3{font-size:18.12px;}.cls-3,.cls-5{fill:#2e3191;}.cls-3,.cls-4,.cls-8{font-family:FuturaLT-Bold, Futura LT Book;}.cls-3,.cls-4,.cls-5,.cls-8{font-weight:700;}.cls-4{font-size:19px;}.cls-4,.cls-6,.cls-8{fill:#231f20;}.cls-5{font-size:20px;font-family:FutworaPro-Bold, Futwora Pro;}.cls-7{fill:none;stroke:#231f20;stroke-linecap:round;stroke-linejoin:round;stroke-width:5.09px;}.cls-8{font-size:34px;}</style></defs><g id="Layer_2" data-name="Layer 2"><g id="Layer_1-2" data-name="Layer 1"><rect class="cls-1" width="595.25" height="962.88"/><rect class="cls-2" x="52.44" y="52.42" width="490.37" height="857.82"/><text class="cls-3" transform="translate(93.83 524.31) rotate(-90)">handmade </text><text class="cls-3" transform="translate(520.88 530.68) rotate(-90)">flower vases</text><text class="cls-4" transform="translate(256.65 736.99)">the spiral</text><text class="cls-4" transform="translate(145.39 736.99)">otto</text><text class="cls-4" transform="translate(422.9 736.99)">ola</text><text class="cls-4" transform="translate(296.76 785.48)">+</text><text class="cls-5" transform="translate(165.08 840.52)">handmade and hand dyed <tspan x="69.62" y="24">flower vases </tspan></text><path class="cls-6" d="M367.74,561.06a67.13,67.13,0,0,0-.21,14.31c.7,8,2.76,17.25,9.93,22A15.52,15.52,0,0,0,391,599c4.79-1.86,8.13-5.69,11.9-9,.4-.36.83-.69,1.24-1,.16-.14-.52.36.06,0,.22-.16.44-.31.68-.46a12.35,12.35,0,0,1,1.28-.72l.3-.14s-.69.21-.34.15.55-.18.82-.25.86-.17.26-.08.13,0,.28,0,.51,0,.76,0c-.63,0-.42-.07.07,0,.24.06.46.14.69.21.75.22-.31-.22.23.1.71.42,1.46.78,2.16,1.24.15.1,1,.72.49.32.23.18.46.38.67.58s.38.4.58.59.36.41.06,0,.1.15.16.25.22.41.34.61c.3.48-.09-.57,0,0a4.21,4.21,0,0,0,.18.72c.12.37-.12-.41-.06-.4s0,.39,0,.42a3.34,3.34,0,0,1,0,.65c.06,0,.17-.89,0,0-.11.5-.29,1-.45,1.46s.3-.6-.1.2l-.35.7c-.31.58-.64,1.14-1,1.69-3.24,5.22-7.16,9.87-9.54,15.6a27.3,27.3,0,0,0-2,14,18.09,18.09,0,0,0,7.69,12.81c5.17,3.53,12.21,4.1,18.27,3.51a27,27,0,0,0,24.74-20.11,42.39,42.39,0,0,0,1.47-9.24c.33-4.05.47-8.11.56-12.16.21-9.51.11-19-.08-28.54q-.18-9.27-.52-18.54l0-1a3.6,3.6,0,0,0-3.52-3.52,3.55,3.55,0,0,0-3.52,3.52c.17,4.28.29,8.56.4,12.84.23,9,.38,18,.34,27a220.11,220.11,0,0,1-1,24c-.07.59.13-.88,0-.3,0,.15-.05.3-.07.45-.05.33-.1.66-.16,1-.1.5-.2,1-.33,1.49a34.81,34.81,0,0,1-1.09,3.32c-.06.13-.11.26-.16.39,0,0,.24-.55.07-.18s-.23.52-.35.77c-.28.59-.58,1.18-.9,1.75s-.56,1-.86,1.42c-.16.24-.31.47-.47.69l-.24.34c-.51.73.29-.35,0,.06a24.25,24.25,0,0,1-2.34,2.52c-.24.22-.49.44-.74.64s-.73.59-.4.34-.34.23-.44.31l-.83.55c-.49.31-1,.59-1.5.86l-.93.46c-.21.1-1,.42-.39.18a28.44,28.44,0,0,1-3.91,1.2c-.66.15-1.31.27-2,.37s.22,0-.45.06l-1.24.11a39.09,39.09,0,0,1-5,0l-1.2-.08c-.19,0-1-.11-.81-.08-.29,0-1.43-.25-2.06-.41s-1.23-.33-1.83-.54c-.12,0-.91-.34-.56-.19s-.06,0-.11-.06l-.65-.31a15.64,15.64,0,0,1-1.43-.83l-.65-.46c-.33-.21.18.13.2.15l-.4-.33a14.11,14.11,0,0,1-1.16-1.16c-.08-.09-.58-.7-.27-.31s-.22-.31-.3-.43a13.38,13.38,0,0,1-.74-1.26c-.13-.25-.24-.52-.37-.76s.11.27.11.28c-.05-.15-.12-.3-.17-.45a23,23,0,0,1-.79-3.07c-.13-.67,0,.64,0,0,0-.25-.05-.5-.07-.75,0-.54-.05-1.08,0-1.62s0-1.09.07-1.64c0-.25.05-.5.07-.76.06-.61-.11.64,0-.19a29.45,29.45,0,0,1,.74-3.22c.14-.49.29-1,.46-1.44l.27-.71c0-.12.09-.23.13-.35.23-.58-.17.37.06-.12a44.12,44.12,0,0,1,2.08-4c1.51-2.54,3.25-4.94,4.94-7.36,2.73-3.93,6.09-8.93,4.43-13.95a12.88,12.88,0,0,0-5.63-6.57c-2.32-1.48-5-2.71-7.85-2.45-5,.46-8.54,4.11-12,7.36-.81.77-1.63,1.52-2.48,2.24l-.72.58c-.3.26.17-.13.19-.14l-.31.23c-.46.32-.93.64-1.41.92-.22.13-.44.26-.67.38s-1,.47-.5.26-.27.1-.4.14-.56.18-.85.26l-.74.16c-.65.14.59,0-.09,0s-1.16,0-1.74,0l-.69-.06c.52,0,.53.09.05,0s-.91-.2-1.35-.33c-.24-.07-.46-.15-.69-.23-.74-.26.1,0,.08,0s-1.06-.54-1.15-.6c-.27-.16-.92-.44-1.07-.71.16.29.54.45.1.06l-.51-.46c-.28-.27-.56-.56-.82-.85a5.81,5.81,0,0,0-.38-.46c-.32-.3.42.61.18.24-.07-.11-.16-.21-.24-.32a19.45,19.45,0,0,1-1.32-2.18c-.21-.41-.4-.82-.59-1.23-.29-.64.09.27,0,.06s-.18-.47-.27-.7a35.21,35.21,0,0,1-1.49-5.5c-.08-.44-.15-.88-.22-1.31,0-.22-.07-.44-.11-.66s0-.22,0-.33c-.08-.47.08.75,0,.28-.09-.94-.21-1.88-.29-2.82-.13-1.76-.19-3.53-.19-5.29,0-2.44.11-4.89.34-7.32,0-.35.07-.7.12-1.06.24-1.88-1.79-3.51-3.52-3.51-2.11,0-3.28,1.62-3.52,3.51Z"/><path class="cls-6" d="M260.77,420.92c-.31,5.72-.34,11.48-.26,17.21.16,11.16.82,22.48,3.11,33.43a52.21,52.21,0,0,0,4.77,14.09c2.81,5.2,7.46,8.62,12.87,10.82a39.58,39.58,0,0,0,21.92,1.82,33.76,33.76,0,0,0,9.79-3.43c3.17-1.71,6.56-4.31,7.23-8.08,1.28-7.09-5.81-12.07-11.94-13.44a61.17,61.17,0,0,0-14.61-1.12,78.15,78.15,0,0,0-16.89,2.09c-4.55,1.13-9.59,2.87-12.9,6.36-4,4.24-3.68,10.19-1.07,15.12,3.18,6,9.49,9.82,15.6,12.31a47.72,47.72,0,0,0,20.13,3.51c7.89-.38,16.24-2.41,22.7-7.15,4.63-3.41,8.12-7.95,9-13.72a113.3,113.3,0,0,0,1-15.07c.16-9.71-.09-19.42-.5-29.12,0-.59-.05-1.18-.08-1.76a3.52,3.52,0,1,0-7,0c.33,6.81.51,13.62.59,20.44.06,5.32.06,10.65-.17,16-.09,2.22-.22,4.45-.47,6.67,0,.22-.05.45-.07.67-.09.77.11-.7,0-.11-.06.42-.12.84-.2,1.26a16.4,16.4,0,0,1-.46,2c-.09.3-.22.58-.31.88-.14.47.3-.52.05-.1-.07.11-.12.25-.18.37a14.38,14.38,0,0,1-1.11,1.89c-.15.23-.32.46-.49.69.49-.65-.25.28-.36.4-.49.55-1,1.08-1.56,1.58-.27.24-.54.48-.81.7l-.37.3c-.42.34.41-.3,0,0-.66.47-1.32.93-2,1.35s-1.36.79-2.07,1.15l-1.09.53-.64.29c-.55.23.41-.17-.15.05a40.79,40.79,0,0,1-20.48,2.56c.78.1-.26,0-.45-.07l-1.08-.19c-.83-.15-1.66-.32-2.49-.52-1.52-.36-3-.8-4.5-1.3-.72-.25-1.42-.52-2.13-.79l-.44-.19c.57.24.05,0-.05,0l-1.17-.54a34.27,34.27,0,0,1-4-2.21c-.3-.19-.59-.39-.88-.6-.13-.08-1.1-.81-.5-.34-.58-.45-1.13-.93-1.67-1.43s-.94-.94-1.38-1.44c-.13-.14-.73-.9-.24-.26-.22-.29-.44-.59-.64-.89a16.57,16.57,0,0,1-.94-1.64c-.08-.16-.14-.32-.22-.48,0,0,.19.6.09.22s-.24-.66-.34-1a9.32,9.32,0,0,1-.23-.91c0-.17-.18-1-.12-.59s0-.47,0-.62,0-.58,0-.88c0-.79-.17.53,0,.15.05-.14.06-.31.1-.46s.14-.39.18-.59c.07-.41-.44.8-.05.13.19-.33.4-.64.58-1s-.6.67-.1.13c.16-.16.3-.33.46-.49s.63-.54.91-.83c0-.05-.64.45-.05,0,.21-.14.41-.29.63-.42a21.3,21.3,0,0,1,2.7-1.46c.42-.19.44-.17,0,0l.84-.33c.54-.21,1.09-.4,1.64-.58,1.13-.36,2.27-.68,3.42-.95s2.43-.54,3.66-.75c.61-.11,1.22-.2,1.83-.29.36-.06,1-.13.25,0l1.06-.13a80.94,80.94,0,0,1,15.17-.39c1.06.07,2.11.19,3.16.3.1,0-.78-.11,0,0l.68.11,1.35.25a19.32,19.32,0,0,1,2.23.6l.45.16c.75.26-.81-.4-.18-.07.88.45,1.74.9,2.57,1.43l.15.1c.18.14.36.29.52.44s.54.54.8.81,0-.06-.07-.11a5.25,5.25,0,0,1,.33.49c.08.12.14.25.22.37.21.36.16.48,0,0,0,.15.26,1.08.18.56s0,.39,0,.57c0-.62,0-.25-.11.22s.08-.16.1-.2c-.11.22-.23.43-.35.63s-.44.58-.18.27-.12.12-.15.13c-.21.19-.69.67-.7.68a19.19,19.19,0,0,1-1.63,1.08c-.6.36-1.22.69-1.84,1-.32.16-.65.31-1,.45-.49.23.5-.19,0,0l-.73.28a33.25,33.25,0,0,1-4.48,1.3c-.76.16-1.52.29-2.28.41-.42.06,0,0,.1,0l-.66.08-1.34.12a38.62,38.62,0,0,1-4.93,0q-1.19-.07-2.37-.21c-.58-.07.5.08-.08,0l-.5-.08q-.75-.12-1.5-.27a33,33,0,0,1-4.66-1.33l-.46-.18-.35-.14-.18-.08-.59-.28c-.74-.35-1.45-.73-2.15-1.15s-1.26-.81-1.87-1.25c-.45-.33.38.31,0,0l-.37-.31c-.28-.24-.56-.48-.83-.74s-.55-.55-.81-.85-.3-.35-.45-.53c-.32-.36.51.72,0,0a26.46,26.46,0,0,1-1.45-2.32c-.22-.42-.44-.83-.64-1.26-.1-.21-.21-.43-.31-.65-.18-.41-.34-.83-.06-.13a56.5,56.5,0,0,1-2.14-6.44c-.64-2.38-1.14-4.8-1.57-7.23-.22-1.27-.42-2.55-.6-3.83,0-.19-.18-1.36-.06-.41,0-.27-.07-.54-.1-.81-.09-.73-.18-1.45-.26-2.18-.58-5.23-.91-10.5-1.09-15.76-.25-7.15-.24-14.32.08-21.47,0-.37,0-.73.05-1.1a3.52,3.52,0,1,0-7,0Z"/><path class="cls-6" d="M188.33,249.12c.49,5.24.86,10.49,1.19,15.74.64,10.08,1.11,20.21.9,30.32,0,2.26-.13,4.53-.29,6.8-.07,1-.15,2-.26,3a5.56,5.56,0,0,1-.16,1.29c.19-.48.09-.63,0-.09,0,.25-.07.49-.11.73a29.5,29.5,0,0,1-1,4.14c-.17.54.36-.69,0,0-.13.27-.26.54-.4.81s-.34.6-.53.89l-.24.37s-.53.72-.24.34-.32.38-.45.52-.38.41-.58.61-.47.45-.72.66l-.31.27c-.67.58.36-.25-.05,0s-1,.67-1.5,1c-.27.16-.55.31-.84.46l-.69.33c.39-.17-.42.17-.58.23l-.77.26c-.63.2-1.28.37-1.93.52l-.9.17-.39.07c-.49.11.66-.06.16,0s-1.18.12-1.77.15-1.15,0-1.72,0l-.71,0c-.14,0-1.16-.11-.56,0s-.25,0-.42-.07l-.73-.16c-.46-.1-.9-.24-1.35-.38-.84-.26,0-.11.06.05a4,4,0,0,0-.55-.27c-.15-.07-.29-.16-.43-.24-.66-.36,0,.05.08.1a4.4,4.4,0,0,0-.61-.61c-.07-.05.53.83.23.29-.07-.12-.16-.24-.23-.36s-.53-1.09-.24-.42-.08-.29-.15-.53-.11-.65-.2-1c0-.11.07,1,0,.29,0-.17,0-.34,0-.52,0-.36,0-.71,0-1.07,0-.7-.16.75,0,.23,0-.18.06-.37.1-.56a11,11,0,0,1,.32-1.12c0-.1.24-.49.21-.57s-.35.71-.18.44.13-.28.19-.41a10.77,10.77,0,0,1,.6-1l.37-.56c.26-.41-.53.61.07-.06.3-.34.6-.68.93-1s.37-.35.57-.52,1-.65.18-.16a31.79,31.79,0,0,1,3-1.8l.76-.35c-.66.29.13,0,.37-.13.74-.27,1.48-.5,2.23-.71s1.43-.36,2.15-.51l1.24-.23.55-.09c.08,0,.85-.11.39-.06a87.14,87.14,0,0,1,11.42-.51c1.62,0,3.24.09,4.85.23l.94.1c.12,0,1.16.14.74.08l.69.11,1.09.2a25.56,25.56,0,0,1,3.32.93c.11,0,.21.09.32.12.44.13-.64-.32-.25-.11.18.1.38.17.56.27.43.22.82.5,1.24.73s-.62-.58-.07-.06l.37.35c.14.13.26.29.4.42.3.28-.43-.74-.08-.07a2.45,2.45,0,0,0,.26.48c.1.11-.26-.84-.11-.27.05.18.1.36.16.53.24.74,0-.57,0-.15s0,.74,0,1.1c0,.77.18-.68,0-.13-.07.24-.11.5-.17.75s-.14.45-.22.68-.42,1,0,.06c-.24.51-.47,1-.74,1.49s-.67,1.14-1,1.69c-.16.25-.34.49-.51.74s-.78,1-.37.5c-.92,1.16-1.9,2.26-2.91,3.34-4.11,4.38-8.86,8.39-12,13.58a15.53,15.53,0,0,0,.1,17,23.46,23.46,0,0,0,14.2,9.59A25.53,25.53,0,0,0,221,357.17c4.57-2.05,7.05-6,8.22-10.75,1.48-6,1.69-12.33,1.82-18.47.16-7.6,0-15.2-.15-22.8-.06-3.78-.11-7.55-.11-11.33a3.52,3.52,0,0,0-7,0c0,7.94.23,15.89.3,23.83a183.76,183.76,0,0,1-.64,21.12c0,.37-.07.73-.12,1.09,0,.2,0,.4-.07.6,0,0,.08-.61,0-.2-.1.71-.21,1.41-.33,2.11a34.75,34.75,0,0,1-.82,3.46c-.15.49-.34,1-.5,1.47s.34-.67,0,0c-.12.23-.22.47-.35.69s-.21.37-.32.55-.59.76-.2.31-.19.19-.27.28-.4.39-.6.58c-.35.32-.38.26,0,0-.21.13-.41.3-.63.43a14.11,14.11,0,0,1-1.47.82l-.42.19s.66-.22.29-.13-.52.2-.78.29c-.59.19-1.18.35-1.78.48q-.44.11-.87.18c-.12,0-.25,0-.37.06-.49.11.67-.06.17,0-.66.05-1.31.12-2,.15a26.65,26.65,0,0,1-3.79-.18c.73.08,0,0-.29-.06l-1-.19c-.68-.15-1.35-.32-2-.53s-1.15-.39-1.72-.6.43.21-.31-.14c-.34-.16-.67-.32-1-.5a19.12,19.12,0,0,1-1.69-1l-.8-.56c-.06,0-.42-.32-.09-.06s-.22-.19-.29-.25a16.43,16.43,0,0,1-1.42-1.35c-.22-.24-.44-.49-.65-.74l-.27-.33c.3.38.16.21,0-.08-.34-.52-.68-1-1-1.59-.06-.12-.49-1-.35-.69s-.07-.18-.11-.28l-.18-.55c-.1-.32-.18-.64-.25-1s-.07-.36-.1-.54c0,0,0,.64,0,.26,0-.62,0-1.34,0-2,0,.67,0,.21.06-.22s.13-.59.22-.89.15-.5.24-.75l.19-.49c-.09.25-.22.46,0,.1a28.34,28.34,0,0,1,2.12-3.5l.26-.36c-.4.54-.08.11,0,0,.23-.28.45-.56.68-.83.5-.59,1-1.17,1.54-1.75,1-1.1,2.07-2.18,3.12-3.24,2.2-2.22,4.43-4.41,6.42-6.81,3.21-3.87,6.71-9,5.41-14.3-1.16-4.75-6-7.1-10.38-8.09-6.74-1.54-14-1.37-20.86-.75-6.28.57-12.82,2.17-17.6,6.54a14.72,14.72,0,0,0-4.91,11c.11,3.66,1.77,7.33,5.16,9,4.51,2.27,10.13,2.21,14.93,1,5.81-1.5,11.08-5.3,13.51-10.89,1.51-3.48,1.9-7.34,2.2-11.08.82-10.05.41-20.21-.09-30.26q-.56-11.22-1.52-22.42c0-.39-.07-.79-.11-1.18a3.61,3.61,0,0,0-3.52-3.52c-1.76,0-3.69,1.62-3.52,3.52Z"/><path class="cls-7" d="M211.91,158s79.73-33.2,171.46-18.71"/><text class="cls-8" transform="translate(207.15 141.6) rotate(-17.82)">t</text><text class="cls-8" transform="translate(218.54 137.83) rotate(-15.58)">h</text><text class="cls-8" transform="translate(239.95 131.88) rotate(-13.04)">e</text><text class="cls-8" transform="matrix(0.98, -0.19, 0.19, 0.98, 259.99, 127.31)"> </text><text class="cls-8" transform="matrix(0.99, -0.17, 0.17, 0.99, 271.25, 125.09)">f</text><text class="cls-8" transform="matrix(0.99, -0.13, 0.13, 0.99, 284.02, 122.81)">a</text><text class="cls-8" transform="translate(306.57 119.73) rotate(-3.03)">m</text><text class="cls-8" transform="translate(339.76 118.33) rotate(0.72)">i</text><text class="cls-8" transform="translate(349.84 118.45) rotate(2.67)">l</text><text class="cls-8" transform="matrix(0.99, 0.11, -0.11, 0.99, 359.76, 118.71)">y</text></g></g></svg>