<svg xmlns="http://www.w3.org/2000/svg" viewBox="0 0 590.71 281.87"><defs><style>.cls-1{fill:#231f20;}.cls-2{fill:none;}</style></defs><g id="Layer_2" data-name="Layer 2"><g id="Layer_1-2" data-name="Layer 1"><path class="cls-1" d="M142.58,172.22c-.22,3.94-.24,7.89-.18,11.83a119.89,119.89,0,0,0,2.13,22.85,35.84,35.84,0,0,0,3.27,9.67,16.82,16.82,0,0,0,8.87,7.41,27,27,0,0,0,14.9,1.23,23.06,23.06,0,0,0,6.67-2.31c2.18-1.17,4.51-2.92,5-5.49,1-4.88-3.95-8.35-8.16-9.29a41.64,41.64,0,0,0-10-.77,53.27,53.27,0,0,0-11.53,1.43c-3.13.77-6.59,2-8.86,4.37-2.76,2.91-2.5,7-.69,10.4,2.21,4.12,6.53,6.7,10.74,8.4a32.53,32.53,0,0,0,13.82,2.37c5.36-.28,11-1.66,15.4-4.88,3.17-2.33,5.58-5.44,6.18-9.4a74.71,74.71,0,0,0,.69-10.36c.11-6.62-.06-13.26-.34-19.88,0-.41,0-.82,0-1.24a2.41,2.41,0,0,0-4.82,0q.33,7,.4,14.1c0,3.63,0,7.26-.12,10.88-.06,1.52-.15,3-.32,4.54,0,.16,0,.31,0,.46-.06.57.07-.47,0-.08s-.09.61-.14.91a11,11,0,0,1-.34,1.37c-.06.2-.14.4-.21.6.17-.46,0,0-.1.17a9,9,0,0,1-.7,1.2c-.07.1-.55.72-.2.29-.14.18-.29.35-.44.52a10.81,10.81,0,0,1-1.07,1.07c-.18.17-.36.32-.55.48l-.24.2c.34-.27,0,0,0,0-.45.32-.9.63-1.37.92s-1,.57-1.51.83l-.64.3-.43.2c.3-.13-.1,0-.21.08a27.71,27.71,0,0,1-13.91,1.72c.57.07-.29-.05-.4-.07l-.73-.12c-.53-.1-1.06-.21-1.59-.34a29.66,29.66,0,0,1-3.06-.88c-.52-.18-1-.37-1.55-.57s.18.09-.24-.1-.59-.26-.89-.41a23.75,23.75,0,0,1-2.7-1.5c-.4-.26-.8-.54-1.18-.83.4.31-.13-.11-.22-.19s-.45-.38-.67-.59a12.27,12.27,0,0,1-.94-1c-.07-.08-.48-.58-.3-.34s-.22-.32-.3-.44a10.37,10.37,0,0,1-.65-1.11c-.1-.21-.24-.61-.09-.17-.08-.23-.17-.45-.24-.68s-.13-.47-.18-.7-.13-.75-.08-.4,0-.34,0-.42,0-.4,0-.6c0-.48-.05.2,0,.16s0-.25.08-.37.08-.23.11-.35c.11-.46-.28.49,0,.08.13-.23.29-.46.41-.7s-.36.41-.1.14l.34-.39c.2-.2.41-.38.62-.56.38-.33-.38.25,0,0,.15-.09.29-.2.43-.29a16.37,16.37,0,0,1,1.84-1,1.21,1.21,0,0,0,.2-.09c.28-.14-.46.18-.16.07l.5-.2q.55-.21,1.11-.39c.77-.25,1.55-.47,2.33-.65s1.71-.39,2.58-.54l1.25-.2.36-.05s-.47.06-.19,0l.72-.09a56,56,0,0,1,10.35-.27q1.08.07,2.16.21c.38,0-.59-.1.05,0l.46.08.92.17a12.94,12.94,0,0,1,1.51.41l.31.11c.56.19-.8-.4,0,0a12.88,12.88,0,0,1,1.73,1c.23.16,0,0,0,0,.13.1.24.2.36.31a7,7,0,0,1,.54.55c.19.21,0,0,0-.07a3.78,3.78,0,0,1,.22.33l.2.34c.14.25,0,.13,0-.06,0,.12.17.72.12.39s0,.29,0,.38c0-.53,0-.08-.07.16s.23-.29,0,0a3,3,0,0,0-.25.43s-.23.29-.07.1-.14.13-.18.17-.53.49-.35.35a11.07,11.07,0,0,1-1.24.82c-.41.24-.83.47-1.26.67l-.66.31c.44-.2-.28.1-.41.15a22.71,22.71,0,0,1-3.15.91c-.51.11-1,.2-1.55.28.46-.07-.24,0-.37,0l-.92.08a25,25,0,0,1-3.46,0c-.53,0-1.07-.08-1.61-.14h.07l-.46-.08-.9-.16a22.28,22.28,0,0,1-3.28-.94l-.31-.12c-.06,0-.49-.21-.23-.09s-.1-.05-.12-.06l-.41-.19c-.49-.24-1-.5-1.45-.79s-.86-.55-1.27-.85.26.22,0,0l-.25-.21q-.28-.24-.57-.51c-.2-.19-.4-.4-.59-.62l-.26-.31c-.21-.24.33.48,0,0s-.68-1-1-1.57c-.17-.3-.32-.61-.47-.92l-.18-.38c0-.1-.32-.75-.17-.37s-.06-.16-.1-.26l-.18-.49c-.14-.36-.27-.73-.39-1.09-.25-.77-.48-1.55-.69-2.33-.43-1.62-.77-3.26-1.06-4.92-.16-.89-.3-1.79-.43-2.7,0-.12,0-.24-.05-.36s.06.46,0,.18l-.09-.65c-.05-.46-.11-.92-.16-1.38-.4-3.6-.63-7.21-.75-10.83-.17-4.9-.17-9.81.05-14.71l0-.77a2.42,2.42,0,0,0-2.41-2.41,2.45,2.45,0,0,0-2.4,2.41"/><path class="cls-1" d="M290.69,165.93c.3,3.25.53,6.51.74,9.76.39,6.2.68,12.42.56,18.63,0,1.41-.08,2.83-.17,4.24-.05.63-.1,1.27-.17,1.91a2.5,2.5,0,0,1-.1.82c.11-.21.08-.53,0-.13,0,.15,0,.29-.07.44a16.69,16.69,0,0,1-.63,2.6c-.1.3,0,0,.07-.15a3.61,3.61,0,0,0-.27.56c-.21.38-.45.75-.69,1.1s.06-.07.08-.1l-.26.3q-.18.21-.39.42l-.42.39-.21.18c-.26.23.32-.22,0,0a15.48,15.48,0,0,1-2,1.17c.37-.19.1,0-.11,0a6.26,6.26,0,0,1-.61.21c-.37.12-.75.22-1.14.31s-.7.14-1.06.19c.41-.06.22,0-.05,0l-.61,0h-1l-.56,0-.31,0c.4,0-.11,0-.2,0l-.43-.09a7,7,0,0,1-.87-.24,2.49,2.49,0,0,1-.36-.13s.57.29.14,0l-.3-.17-.14-.09c-.36-.2.2.08.2.16a2.93,2.93,0,0,0-.35-.36c-.22-.18.3.5.18.24a2.13,2.13,0,0,0-.16-.25c-.07-.12-.32-.67-.12-.21s-.05-.16-.09-.31-.15-.84-.09-.34,0-.22,0-.38,0-.41,0-.62c0-.46.06.14,0,.21s.06-.32.08-.38a5.75,5.75,0,0,1,.2-.71c0-.07.14-.27.13-.34,0,.22-.25.5,0,.08.12-.22.24-.44.38-.65a3.78,3.78,0,0,0,.22-.33c.11-.21-.15.24-.17.22a2.18,2.18,0,0,0,.17-.21c.19-.21.38-.42.59-.62l.39-.35c.4-.36-.27.17.07-.06a14.37,14.37,0,0,1,1.86-1.09c.08,0,.58-.26.32-.15l.36-.14c.47-.17.95-.31,1.43-.44s.91-.23,1.37-.32l.73-.13.38-.06c-.26,0,0,0,.14,0a57.66,57.66,0,0,1,7.08-.31c1,0,2,.06,2.93.15l.75.08.31,0s-.42-.07-.14,0,.82.13,1.22.21a17.1,17.1,0,0,1,2,.57c.45.16-.14-.08,0,0s.29.13.44.21.46.32.71.44-.41-.38-.11-.08c.08.09.17.16.25.24s.31.41.07.05,0,0,.05.12a2.37,2.37,0,0,0,.15.28c-.11,0-.19-.64-.08-.18a1.58,1.58,0,0,0,.09.36s0-.62,0-.15a2.78,2.78,0,0,0,0,.7c-.1-.13.12-.61,0-.15,0,.15-.07.3-.12.45a2.67,2.67,0,0,1-.13.4c-.14.45.1-.15,0,0-.18.34-.33.69-.52,1s-.42.69-.65,1c-.11.17-.23.33-.36.5l-.18.25c.14-.19.12-.15,0,0-.61.72-1.22,1.43-1.87,2.11-2.54,2.68-5.48,5.18-7.36,8.41a9.84,9.84,0,0,0,.29,10.76,14.88,14.88,0,0,0,9,5.92,16,16,0,0,0,10.23-.84c2.86-1.31,4.42-3.85,5.15-6.82a52.65,52.65,0,0,0,1.13-11.41c.1-4.72,0-9.45-.09-14.17,0-2.34-.07-4.69-.07-7a2.41,2.41,0,0,0-4.82,0c0,4.9.14,9.81.18,14.71a118,118,0,0,1-.39,13.16l-.09.73,0,.31s.06-.42,0-.14-.12.84-.2,1.25a17.73,17.73,0,0,1-.52,2.18c-.09.32-.22.62-.32.93,0,.15.24-.48,0-.06l-.2.4c-.07.13-.16.26-.23.38-.22.4.13-.12,0,0s-.42.45-.64.66-.16.12-.23.19.42-.27.2-.16-.25.18-.38.25c-.31.2-.64.33-.95.51-.11.07.43-.15,0,0l-.46.16a11.43,11.43,0,0,1-1.15.3l-.51.1c-.49.08.09,0-.05,0-.42,0-.84.07-1.26.08s-.74,0-1.1,0l-.56,0-.28,0c-.6-.05.33.07,0,0a19.88,19.88,0,0,1-2.4-.56c-.18-.06-.37-.12-.54-.19s-.61-.24-.34-.12-.24-.12-.32-.15l-.68-.35c-.33-.19-.66-.39-1-.6-.07-.05-.52-.38-.3-.21s-.31-.27-.41-.36a8.75,8.75,0,0,1-.81-.8c-.15-.17-.3-.34-.44-.52.29.37,0-.07-.13-.22a9.55,9.55,0,0,1-.6-1c0-.09-.09-.19-.14-.29,0,.09.14.42,0,0-.07-.22-.15-.43-.21-.66s-.07-.37-.11-.56,0,.16,0,.19,0-.19,0-.28,0-.42,0-.63,0-.18,0-.26c0-.32-.1.41,0,.11s.15-.7.26-1,.25-.63.05-.19c.09-.2.18-.39.28-.59s.37-.67.58-1l.38-.57.3-.41.26-.32.4-.48c.33-.38.67-.75,1-1.11.65-.7,1.33-1.38,2-2.06a55.11,55.11,0,0,0,3.89-4.19c1.93-2.41,4.08-5.69,3.09-8.94-.91-3-3.92-4.42-6.75-5a42.07,42.07,0,0,0-13.25-.38c-3.85.41-7.85,1.45-10.73,4.19a9.28,9.28,0,0,0-3,7,6.5,6.5,0,0,0,3.36,5.71,13.93,13.93,0,0,0,9.46.58,12.56,12.56,0,0,0,8.42-6.83,21.84,21.84,0,0,0,1.4-7,143.68,143.68,0,0,0-.06-18.79q-.34-6.95-.94-13.85c0-.25-.05-.49-.07-.74a2.48,2.48,0,0,0-2.41-2.41,2.43,2.43,0,0,0-2.41,2.41"/><path class="cls-1" d="M389.8,178.24a46.73,46.73,0,0,0-.15,9.75c.48,5.51,1.88,11.83,6.79,15.11a10.62,10.62,0,0,0,9.29,1.14c3.29-1.27,5.59-3.89,8.17-6.17.25-.22.53-.43.78-.66s-.37.25-.1.08l.19-.15.47-.31c.28-.18.58-.33.86-.49s-.43.13,0,0l.56-.17.42-.09s-.61,0-.06,0a4.51,4.51,0,0,0,.52,0c.28,0-.31,0-.27,0a1.21,1.21,0,0,1,.31.06l.54.16.24.09s-.38-.21-.17-.06c.48.33,1,.56,1.55.88.09.06.55.39.4.27l.09.07.3.27.4.4c.06.07.11.14.17.2s-.15-.32-.07-.08a2.08,2.08,0,0,0,.28.48c.22.34-.08-.4,0,0,0,.14.07.29.11.43.12.36-.16-.21,0-.21a2.44,2.44,0,0,1,0,.28c0,.15,0,.3,0,.44,0,.4.14-.53,0,0-.09.33-.19.66-.29,1s.19-.37-.06.13c-.08.16-.15.32-.24.47-.2.39-.42.78-.65,1.15-2.16,3.52-4.84,6.65-6.47,10.49a18.89,18.89,0,0,0-1.49,9.78,12.44,12.44,0,0,0,5.16,8.76c3.5,2.47,8.32,2.88,12.47,2.5a18.49,18.49,0,0,0,17-13.6,29,29,0,0,0,1.06-6.47c.23-2.78.33-5.57.39-8.36.14-6.5.07-13-.06-19.51q-.12-6.37-.35-12.75l0-.64a2.41,2.41,0,1,0-4.82,0c.12,2.94.2,5.89.28,8.84.16,6.16.26,12.33.23,18.49a155.46,155.46,0,0,1-.72,16.43c0,.16.1-.66,0-.22,0,.1,0,.21,0,.31l-.12.66c-.06.34-.13.68-.22,1-.21.79-.49,1.55-.77,2.31,0,.1-.18.43,0,0,0,.09-.07.18-.11.26s-.16.35-.25.53c-.18.37-.37.73-.57,1.09s-.42.71-.64,1l-.32.46c-.11.16-.44.56-.14.19a17.49,17.49,0,0,1-1.66,1.78l-.43.37-.29.24s.33-.25.11-.09-.68.49-1,.71-.73.43-1.11.62l-.54.27-.28.12c.21-.09.23-.09,0,0a20.36,20.36,0,0,1-2.66.8c-.45.1-.89.18-1.34.25l-.42.05-.85.07a29.49,29.49,0,0,1-3.39,0l-.8-.07c-.11,0-.72-.08-.34,0a14,14,0,0,1-1.59-.31,12.49,12.49,0,0,1-1.23-.37l-.29-.11c-.35-.12.34.16,0,0s-.42-.19-.62-.3a9.32,9.32,0,0,1-1-.57l-.45-.31c.49.34-.07-.07-.19-.18a9.93,9.93,0,0,1-.72-.73c-.11-.12-.21-.25-.32-.39.33.42,0,0-.11-.18s-.34-.57-.49-.86-.14-.3-.22-.45c.26.46,0,.07-.06-.18a13.88,13.88,0,0,1-.52-2.09c-.09-.46,0,.43,0,0,0-.17,0-.34,0-.51a11.75,11.75,0,0,1,0-1.19c0-.34,0-.68.05-1,0-.18,0-.35.05-.52,0-.42-.07.44,0-.13a18.26,18.26,0,0,1,.5-2.19c.1-.35.22-.71.34-1.06l.18-.47.1-.24c.12-.29-.18.38,0,0,.45-1,.93-1.89,1.47-2.8,1-1.72,2.22-3.35,3.36-5,1.87-2.69,4.17-6.13,3-9.56a8.88,8.88,0,0,0-3.95-4.53,8.55,8.55,0,0,0-5.31-1.6c-3.39.34-5.8,2.8-8.16,5-.57.54-1.15,1.08-1.75,1.58-.07.06-.57.46-.31.26s-.19.14-.26.19c-.31.22-.63.43-1,.62l-.45.25c-.07,0-.66.32-.34.18s-.18.06-.27.09a4.11,4.11,0,0,1-.57.17,4.64,4.64,0,0,1-.51.11c-.41.09.43,0-.14,0a10.1,10.1,0,0,1-1.1,0l-.47,0c.46,0,.27,0,0,0s-.62-.14-.92-.23l-.4-.14c-.47-.15,0,0,0,0-.25-.15-.53-.26-.78-.41s-.6-.29-.67-.45c0,.12.41.35.17.13l-.15-.12-.34-.32a7.67,7.67,0,0,1-.56-.58c-.1-.11-.19-.25-.3-.36s.18.21.16.22a2,2,0,0,0-.16-.22,16.15,16.15,0,0,1-.93-1.54c-.13-.26-.24-.52-.37-.77s.2.52,0,0l-.18-.48a25.17,25.17,0,0,1-1-3.74l-.15-.89c0-.15,0-.3-.07-.45l0-.22c-.05-.31.07.56,0,.12-.07-.64-.14-1.27-.19-1.91-.09-1.17-.13-2.35-.13-3.53,0-1.68.07-3.36.23-5,0-.25,0-.49.08-.74a2.42,2.42,0,0,0-2.41-2.41,2.47,2.47,0,0,0-2.41,2.41"/><path class="cls-1" d="M190.86,91.43c.75-2.73,1.49-5.54,2.31-8.31,3.07-10.44,6.18-20.87,9.26-31.3.16-.52.19-1.08.38-1.59a4.07,4.07,0,0,1,4.25-2.69,4,4,0,0,1,3.22,3.86,14.44,14.44,0,0,1-.33,2.68c-.94,5.79-3.34,11.1-5.34,16.55-1.76,4.76-3.54,9.53-5.17,14.34a9.8,9.8,0,0,0-.56,4.21c.32,2.53-.78,4.6-1.68,6.75a2.24,2.24,0,0,1-2.59,1.53A4.41,4.41,0,0,1,192,95.74a18.67,18.67,0,0,1-1.18-4.31"/><path class="cls-1" d="M296.42,54.06c1.67,3.9.52,7.39-1.05,10.66-2.6,5.39-5.5,10.64-8.27,16a2.8,2.8,0,0,1-.3.46c-3.67,4.7-5.25,9.87-3.75,15.82a2.43,2.43,0,0,1-.81,2.92c-.79.49-2.47-.11-3.27-1.31a8.77,8.77,0,0,1-1.41-2.9c-1-4.51-1.25-9,1.12-13.23,2.11-3.81,4.15-7.67,6-11.59,1.25-2.61,2.2-5.36,3.22-8.07.58-1.52,1.06-3.09,1.53-4.65,1-3.27,3-4.82,7-4.06"/><path class="cls-1" d="M235.28,66.81a19.45,19.45,0,0,1,2.41.66,2.35,2.35,0,0,1,.58,3.68,57.21,57.21,0,0,0-4.45,3.9c-2.13,2.34-2.7,4.88-1,8A26.63,26.63,0,0,1,235,89.68c1.29,5.46-.89,9.55-5.34,12.61a19.33,19.33,0,0,1-2.84,1.6c-2.59,1.19-4.57.57-6-1.81a3.49,3.49,0,0,1,.31-4.51,19.87,19.87,0,0,1,4.54-3.81c2.93-1.65,3.44-4.07,2.74-6.94-.52-2.1-1.37-4.12-2.08-6.17-1.44-4.16.07-9.73,3.69-12.1,1.58-1,3.7-1.24,5.34-1.74"/><path class="cls-1" d="M397.69,66.81a19.45,19.45,0,0,1,2.41.66,2.35,2.35,0,0,1,.58,3.68,57.21,57.21,0,0,0-4.45,3.9c-2.13,2.34-2.7,4.88-1,8a26.63,26.63,0,0,1,2.15,6.68c1.29,5.46-.89,9.55-5.34,12.61a19.33,19.33,0,0,1-2.84,1.6c-2.59,1.19-4.57.57-6-1.81a3.49,3.49,0,0,1,.31-4.51A19.87,19.87,0,0,1,388,93.76c2.93-1.65,3.44-4.07,2.74-6.94-.52-2.1-1.37-4.12-2.08-6.17-1.44-4.16.07-9.73,3.69-12.1,1.58-1,3.7-1.24,5.34-1.74"/><path class="cls-1" d="M273.21,69.47a5.14,5.14,0,0,0,.66.6c.95.37,2.34-.12,2.79,1.21a2.87,2.87,0,0,1-1.35,3.29,31.2,31.2,0,0,1-4.13,2.61,6.41,6.41,0,0,0-3.29,4.12c-.66,2.26-1.21,4.56-2,6.79A14.8,14.8,0,0,1,264,91.94c-.83,1.14-2.22,1.16-3.49.71a2.38,2.38,0,0,1-1.7-2.52,63,63,0,0,1,1-7c.51-2.47,1.24-4.9,1.9-7.35a4.86,4.86,0,0,1,.54-1.51c2.58-3.92,5-8,7.87-11.67a42.16,42.16,0,0,1,6.8-6.17,4.36,4.36,0,0,1,4.63-.59,1.69,1.69,0,0,1,.73,2.66,9.61,9.61,0,0,1-1.64,1.42c-3.46,2.27-5.69,5.49-7.45,9.53"/><path class="cls-1" d="M211.93,88.38c.85-.73,1.36-1,1.57-1.39.88-1.76.74-3-.33-3.77a.7.7,0,0,0-.5-.11c-1.58.55-1.25,2-1.3,3.14a9.92,9.92,0,0,0,.56,2.13m1,5.79c-3.42-.26-6.4-1.6-8-5.4-1.68-4-1.29-7.76-.11-11.63.63-2.08,1.75-2.9,4-3a12.71,12.71,0,0,1,3.17.46c1.05.25,2.09,1.07,3.06,1,4.08-.46,5.18,2.61,6.62,5.27s.87,5.27-.72,7.67A23.13,23.13,0,0,1,218.31,92,7.12,7.12,0,0,1,213,94.17"/><path class="cls-1" d="M378.35,73.63A10.6,10.6,0,0,0,377,71c-.86-.92-2-.4-3,.07-3.95,1.88-4.86,5.57-5.45,9.39a3.71,3.71,0,0,0,2.05,4,4.07,4.07,0,0,0,4.8-1.45,7.56,7.56,0,0,0,1.29-2.36c.63-2.25,1.11-4.54,1.71-7.06m4.12.45c-.46,2.85-1,5.7-1.39,8.56-.68,4.39-7,7.52-11.85,4.85-3.64-2-6.44-7.27-5-11.61,1.31-3.91,3.1-7.31,6.71-9.6,2.86-1.82,7.66-1.77,10.06.52a5,5,0,0,1,1.28,2.87,25.38,25.38,0,0,1-.2,4.34l.39.07"/><path class="cls-1" d="M295.92,87.27a7.25,7.25,0,0,0,3.52-4.85c.13-.55-.24-1.21-.51-2.39-2.3,2.16-3.33,4.11-3,7.24m4-12c2.9-.35,4.08.45,4.83,3.75a12,12,0,0,1-5.27,13.15c-2.34,1.4-3.88,1.32-6-.23-2.72-2-4.07-4.6-3.47-8,1-5.67,1.83-8.9,9.91-8.7"/><path class="cls-1" d="M346.19,72.4a8.75,8.75,0,0,1,2.22.28c1.71.82,3.07.27,4.53-.72a84,84,0,0,1,7.4-4.56,5.71,5.71,0,0,1,3.11-.43,1.76,1.76,0,0,1,1.06,2.9,24.32,24.32,0,0,1-3.44,2.61c-5.35,3.43-9.66,7.65-11.12,14.14-.11.46-.62.83-.93,1.22-2,.2-3-1.19-4-2.45a4.3,4.3,0,0,1-.55-3.64c.59-3,1.1-6,1.71-9.35"/><path class="cls-1" d="M327.25,74c-2.73,2.08-5.43,4.2-8.2,6.22-2.55,1.86-4.66,4-5.51,7.15a5.31,5.31,0,0,1-.94,1.94,1.82,1.82,0,0,1-2.42.47c-2.09-1.13-2.89-2.61-2.49-4.9.66-3.72,1.41-7.43,2.14-11.2,2.68-2.06,4.14.64,6.17,1.8,1.08-.59,2.18-1.17,3.25-1.79s1.8-1.22,2.78-1.67c2.37-1.1,3.16-.74,5.17,2.07l.05-.09"/><path class="cls-1" d="M327.2,74.08l.05,0v0Z"/><path class="cls-1" d="M332.81,73.43c1.91.52,1.83,1.44,1,1.76l-4.18,1.54s1.3-3.82,3.22-3.3m6.39,12.48c0-1.46-.38-2.84-2.16-3.38l-5.64,5c-2-2.38-2.21-4.18-.61-5.73a29.7,29.7,0,0,1,3-2.29,9.29,9.29,0,0,0,3.53-4.7,3,3,0,0,0-2.42-4,37.61,37.61,0,0,0-4.61,0L327.25,74c-.32,3-2.65,4.51-5,6.22a18,18,0,0,1,3,6.45c.86,3.48,3.58,5.32,7.12,5.82a5.93,5.93,0,0,0,4.58-1.32,6.16,6.16,0,0,0,2.27-5.29"/><path class="cls-1" d="M216.81,125.38a275.35,275.35,0,0,1,40-4.71c13.55-.68,27.12-.63,40.68-.4s27.22.67,40.83.78c13.41.1,26.85-.06,40.21-1.16,12.15-1,24.47-3,35.4-8.66,1.32-.68,2.61-1.42,3.87-2.2,2.63-1.64.21-5.83-2.44-4.17-10.06,6.27-21.89,8.74-33.55,9.9a390.61,390.61,0,0,1-39.6,1.48c-13.62,0-27.23-.46-40.84-.73s-27-.39-40.5.15a298.56,298.56,0,0,0-40.36,4.13q-2.49.43-4.95.93a2.44,2.44,0,0,0-1.69,3,2.47,2.47,0,0,0,3,1.69"/><rect class="cls-2" width="590.71" height="281.87"/></g></g></svg>