<svg xmlns="http://www.w3.org/2000/svg" viewBox="0 0 595.28 150.28"><defs><style>.cls-1{font-size:18px;font-family:FuturaLT-BookOblique, Futura LT Book;font-style:oblique;}.cls-1,.cls-4{fill:#2e3192;}.cls-2{fill:#f26764;}.cls-3{fill:#572c81;}.cls-5{fill:none;}</style></defs><g id="Layer_2" data-name="Layer 2"><g id="graphs"><text class="cls-1" transform="translate(315.42 135.2)">the flower vases</text><path class="cls-2" d="M510.94,44.82c1.19-1.76,3.77-1.61,5.87-1.28,3.73.61,7.62,1.28,10.65,3.52s4.88,6.61,3.08,9.93c-2,3.74-7.12,4.2-11.37,4.2,3.44.86,7.16,1.9,9.32,4.72s1.38,8-2.1,8.68a7.55,7.55,0,0,1-3.39-.32,77.13,77.13,0,0,1-18.49-7.43,42.42,42.42,0,0,1-1.05,16.67,8.28,8.28,0,0,1-1.53,3.37c-1.92,2.22-5.62,2-8.07.4s-3.94-4.33-5.35-6.92c-3.46,6.6-13.37,8.88-19.06,4.07s-4.67-15.5,2-18.73c-5.54-1.66-11.4-3.51-15.14-7.92s-4-12.23.93-15.21a4.81,4.81,0,0,1,1.58-9.29c4.87-.18,7.74,1.56,11,5.16,2.08,2.28,3.84,4.69,6.93,4.71.3-3.68-1.41-3.65-3.38-6.78s-4-6.58-3.63-10.26,4.47-7.09,7.72-5.33c-3.67-2.18-3.44-8.32,0-10.81s8.71-1.4,11.57,1.78,3.56,7.88,2.7,12.06a16.45,16.45,0,0,0,11.08-4.25c1.65-1.51,3-3.38,4.92-4.53s4.71-1.36,6.15.36c3.57,4.24-5.89,10.25-3.37,15.19,1.39,2.72,6.13,4.45,4.66,7.13"/><path class="cls-3" d="M498.68,54.94a18.07,18.07,0,0,0,3.6-7.51c.64-2.92.17-6.59-2.51-7.89-1.82-.88-4-.33-5.8.59a13.26,13.26,0,0,0-6.33,6.63,7.59,7.59,0,0,0-.34,5.38,6.55,6.55,0,0,0,5,4,8.67,8.67,0,0,0,6.37-1.59"/><path class="cls-4" d="M155,91.58c1-3.71,2-7.51,3.13-11.28q6.25-21.21,12.56-42.42c.21-.7.26-1.46.51-2.15A5.51,5.51,0,0,1,177,32.08a5.43,5.43,0,0,1,4.37,5.23,19.58,19.58,0,0,1-.45,3.63c-1.28,7.85-4.53,15.05-7.25,22.43-2.37,6.47-4.79,12.92-7,19.44a13.29,13.29,0,0,0-.75,5.71c.42,3.43-1.06,6.24-2.28,9.16a3.06,3.06,0,0,1-3.52,2.07,6,6,0,0,1-3.48-2.34C155.69,95.75,155.52,93.69,155,91.58Z"/><path class="cls-4" d="M298.08,40.91c2.27,5.3.71,10-1.43,14.45-3.52,7.32-7.45,14.43-11.21,21.63a3.6,3.6,0,0,1-.39.62C280.06,84,277.92,91,280,99.05c.35,1.38.42,3-1.1,4-1.07.67-3.34-.15-4.43-1.77a11.7,11.7,0,0,1-1.91-3.94c-1.31-6.1-1.7-12.14,1.51-17.93,2.87-5.16,5.63-10.39,8.18-15.72,1.69-3.53,3-7.25,4.36-10.93.78-2.06,1.43-4.19,2.07-6.3C290,42,292.75,39.89,298.08,40.91Z"/><path class="cls-4" d="M215.21,58.19a26,26,0,0,1,3.26.91,3.18,3.18,0,0,1,.79,5,76.54,76.54,0,0,0-6,5.29c-2.89,3.17-3.66,6.62-1.38,10.77,1.49,2.74,2.18,6,2.91,9.06,1.75,7.41-1.21,13-7.24,17.1a25.52,25.52,0,0,1-3.86,2.15c-3.5,1.62-6.18.78-8.16-2.44a4.75,4.75,0,0,1,.41-6.12,26.8,26.8,0,0,1,6.16-5.16c4-2.23,4.67-5.51,3.71-9.4-.7-2.85-1.86-5.59-2.82-8.37-2-5.64.09-13.19,5-16.4C210.11,59.16,213,58.88,215.21,58.19Z"/><path class="cls-4" d="M435.36,58.19a26,26,0,0,1,3.26.91,3.18,3.18,0,0,1,.79,5,76.54,76.54,0,0,0-6,5.29c-2.89,3.17-3.66,6.62-1.38,10.77,1.49,2.74,2.18,6,2.91,9.06,1.75,7.41-1.21,13-7.24,17.1a25.52,25.52,0,0,1-3.86,2.15c-3.5,1.62-6.18.78-8.16-2.44a4.75,4.75,0,0,1,.41-6.12,27,27,0,0,1,6.15-5.16c4-2.23,4.68-5.51,3.72-9.4-.7-2.85-1.86-5.59-2.82-8.37-1.95-5.64.09-13.19,5-16.4C430.25,59.16,433.13,58.88,435.36,58.19Z"/><path class="cls-4" d="M266.62,61.8c.54.5.69.73.9.81,1.28.51,3.17-.15,3.77,1.65s-.39,3.4-1.83,4.46a42.27,42.27,0,0,1-5.6,3.54,8.65,8.65,0,0,0-4.45,5.58c-.89,3.06-1.64,6.18-2.67,9.2a19.56,19.56,0,0,1-2.56,5.23c-1.11,1.54-3,1.56-4.72,1a3.24,3.24,0,0,1-2.31-3.41,88.61,88.61,0,0,1,1.34-9.46c.68-3.36,1.68-6.65,2.56-10a7,7,0,0,1,.74-2c3.5-5.32,6.75-10.84,10.67-15.82,2.54-3.22,6-5.75,9.22-8.36a5.91,5.91,0,0,1,6.27-.81A2.32,2.32,0,0,1,279,47a14.5,14.5,0,0,1-2.23,1.92C272,52,269,56.33,266.62,61.8Z"/><path class="cls-4" d="M184.94,95.28c-4.63-.35-8.67-2.16-10.86-7.31-2.28-5.37-1.75-10.52-.15-15.77.85-2.82,2.36-3.92,5.43-4a17,17,0,0,1,4.3.61c1.42.35,2.84,1.46,4.15,1.31,5.53-.63,7,3.53,9,7.15s1.18,7.13-1,10.39a32.34,32.34,0,0,1-3.6,4.62A9.66,9.66,0,0,1,184.94,95.28Zm-1.39-7.84c1.15-1,1.85-1.33,2.13-1.89,1.19-2.38,1-4.09-.45-5.11a.82.82,0,0,0-.67-.14c-2.15.74-1.7,2.64-1.77,4.24A14,14,0,0,0,183.55,87.44Z"/><path class="cls-4" d="M414.73,68.05c-.63,3.87-1.3,7.73-1.9,11.61-.91,6-9.54,10.19-16.05,6.57C391.85,83.5,388,76.37,390,70.5c1.77-5.31,4.2-9.91,9.08-13,3.88-2.47,10.38-2.4,13.64.71a6.64,6.64,0,0,1,1.74,3.89,33.28,33.28,0,0,1-.28,5.88Zm-5.59-.61a14.43,14.43,0,0,0-1.88-3.58c-1.18-1.25-2.74-.54-4.08.1-5.36,2.55-6.59,7.55-7.4,12.72a5,5,0,0,0,2.79,5.49,5.5,5.5,0,0,0,6.5-2,10.13,10.13,0,0,0,1.75-3.2C407.68,74,408.33,70.85,409.14,67.44Z"/><path class="cls-4" d="M302.84,69.67c3.93-.48,5.52.61,6.55,5.08a16.34,16.34,0,0,1-7.14,17.82c-3.18,1.9-5.26,1.8-8.13-.3-3.7-2.7-5.53-6.25-4.71-10.81C290.79,73.77,291.89,69.39,302.84,69.67Zm-5.43,16.27a9.84,9.84,0,0,0,4.76-6.59c.18-.73-.32-1.63-.69-3.23C298.36,79,297,81.69,297.41,85.94Z"/><path class="cls-4" d="M365.54,65.77a12.46,12.46,0,0,1,3,.38c2.32,1.12,4.17.38,6.15-1a115.74,115.74,0,0,1,10-6.17,7.74,7.74,0,0,1,4.21-.59,2.39,2.39,0,0,1,1.44,3.94,34.23,34.23,0,0,1-4.66,3.54c-7.26,4.64-13.1,10.36-15.08,19.16-.14.62-.84,1.12-1.26,1.65-2.76.27-4.08-1.61-5.4-3.32a5.8,5.8,0,0,1-.75-4.93C364,74.39,364.72,70.32,365.54,65.77Z"/><path class="cls-4" d="M339.88,67.93c-3.71,2.82-7.37,5.69-11.13,8.43-3.45,2.52-6.31,5.42-7.46,9.7A7.34,7.34,0,0,1,320,88.68a2.46,2.46,0,0,1-3.29.64c-2.83-1.54-3.92-3.54-3.37-6.64.89-5,1.91-10.07,2.9-15.18,3.63-2.79,5.61.86,8.36,2.44,1.46-.8,2.95-1.58,4.41-2.42,1.27-.73,2.44-1.66,3.77-2.27,3.2-1.49,4.28-1,7,2.8Z"/><path class="cls-4" d="M339.81,68.05l.06-.07a.11.11,0,0,1,0,0Z"/><path class="cls-4" d="M356.08,84.09c-.06-2-.53-3.85-2.94-4.58l-7.64,6.77c-2.76-3.23-3-5.67-.82-7.77a39.29,39.29,0,0,1,4.09-3.11,12.65,12.65,0,0,0,4.8-6.36,4,4,0,0,0-3.29-5.48,54.69,54.69,0,0,0-6.25-.05L339.87,68c-.43,4.06-3.59,6.12-6.76,8.43a24.68,24.68,0,0,1,4,8.75c1.16,4.71,4.84,7.21,9.64,7.89A8.06,8.06,0,0,0,353,91.26,8.37,8.37,0,0,0,356.08,84.09Zm-8.67-16.92c2.59.71,2.47,2,1.29,2.39L343,71.65S344.81,66.47,347.41,67.17Z"/><rect class="cls-5" width="595.28" height="150.28"/></g></g></svg>