<svg xmlns="http://www.w3.org/2000/svg" viewBox="0 0 595.25 962.88"><defs><style>.cls-1{fill:#f6f6f4;}.cls-2{fill:#fff;}.cls-3{fill:#2e3191;}.cls-4{fill:#231f20;}.cls-5{fill:none;stroke:#231f20;stroke-linecap:round;stroke-linejoin:round;stroke-width:5.09px;}</style></defs><g id="Layer_2" data-name="Layer 2"><g id="Layer_1-2" data-name="Layer 1"><rect class="cls-1" width="595.25" height="962.88"/><rect class="cls-2" x="52.44" y="52.42" width="490.37" height="857.82"/><path class="cls-3" d="M78.78,519.92h6.93v0a3.86,3.86,0,0,1-1.13-1.28,3.7,3.7,0,0,1-.36-1.69,4,4,0,0,1,.28-1.54,3,3,0,0,1,.8-1.09,3.7,3.7,0,0,1,1.23-.65,5.71,5.71,0,0,1,1.61-.21h5.69v3.29H89.06a7.31,7.31,0,0,0-.8,0,2.25,2.25,0,0,0-.71.2,1.23,1.23,0,0,0-.51.45,1.42,1.42,0,0,0-.19.79A1.52,1.52,0,0,0,87,519a1.65,1.65,0,0,0,.51.54,1.94,1.94,0,0,0,.71.29,4.43,4.43,0,0,0,.8.08h4.77v3.3h-15Z"/><path class="cls-3" d="M93.83,501.07v3.3h-1v0a2.58,2.58,0,0,1,1,1.21,4.06,4.06,0,0,1,.33,1.6,4.51,4.51,0,0,1-.4,1.89,4.87,4.87,0,0,1-1.08,1.49,5,5,0,0,1-1.59,1,5.28,5.28,0,0,1-1.9.34,5.19,5.19,0,0,1-1.89-.34,5,5,0,0,1-1.58-1,4.52,4.52,0,0,1-1.08-1.46,4.59,4.59,0,0,1-.4-1.9,4.3,4.3,0,0,1,.3-1.58,3.19,3.19,0,0,1,.92-1.3h-.91v-3.3Zm-6.74,5.31a2.13,2.13,0,0,0,.17.9,1.93,1.93,0,0,0,.45.66,2.06,2.06,0,0,0,.66.42,2.25,2.25,0,0,0,.82.14,2.07,2.07,0,0,0,1.48-.55,2,2,0,0,0,.6-1.57,2,2,0,0,0-.6-1.56,2.08,2.08,0,0,0-1.48-.56,2.25,2.25,0,0,0-.82.15,1.88,1.88,0,0,0-.66.41,2.08,2.08,0,0,0-.45.67A2.11,2.11,0,0,0,87.09,506.38Z"/><path class="cls-3" d="M85.73,495.58v0a3.3,3.3,0,0,1-1.18-1.29,4,4,0,0,1-.33-1.69,4.24,4.24,0,0,1,.28-1.6,2.81,2.81,0,0,1,.79-1.08,3.23,3.23,0,0,1,1.23-.61,5.46,5.46,0,0,1,1.56-.2h5.75v3.29H88.55a2.64,2.64,0,0,0-.81.13,1.37,1.37,0,0,0-.64.44,1.46,1.46,0,0,0-.25.92,1.8,1.8,0,0,0,.17.83,1.42,1.42,0,0,0,.47.53,1.93,1.93,0,0,0,.69.28,4.41,4.41,0,0,0,.83.08h4.82v3.3h-9.3v-3.3Z"/><path class="cls-3" d="M92.79,479.91v0a2.6,2.6,0,0,1,1,1.22,4,4,0,0,1,.33,1.59,4.51,4.51,0,0,1-.4,1.89,4.75,4.75,0,0,1-1.08,1.49,4.86,4.86,0,0,1-1.59,1,5.28,5.28,0,0,1-1.9.34,5.19,5.19,0,0,1-1.89-.34,5.12,5.12,0,0,1-1.58-1,4.56,4.56,0,0,1-1.08-1.47,4.51,4.51,0,0,1-.4-1.89,4.36,4.36,0,0,1,.3-1.59,3.22,3.22,0,0,1,.92-1.29H78.78v-3.3h15v3.3Zm-5.7,2a2.14,2.14,0,0,0,.62,1.56,1.88,1.88,0,0,0,.66.41,2.25,2.25,0,0,0,.82.15,2.08,2.08,0,0,0,1.48-.56,2,2,0,0,0,.6-1.56,2,2,0,0,0-.6-1.57,2.07,2.07,0,0,0-1.48-.55,2.25,2.25,0,0,0-.82.14,2.06,2.06,0,0,0-.66.42,1.93,1.93,0,0,0-.45.66A2.13,2.13,0,0,0,87.09,481.92Z"/><path class="cls-3" d="M85.69,471.24v0a3.51,3.51,0,0,1-1.12-1.31,3.72,3.72,0,0,1-.35-1.63,3.87,3.87,0,0,1,.43-1.84A3.15,3.15,0,0,1,86,465.1a3.14,3.14,0,0,1-1.32-1.33,3.79,3.79,0,0,1-.46-1.82,3.69,3.69,0,0,1,.27-1.5,2.59,2.59,0,0,1,.77-1,3,3,0,0,1,1.16-.53,6.33,6.33,0,0,1,1.48-.17h5.93v3.3H89.39l-.81,0a3,3,0,0,0-.82.14,1.46,1.46,0,0,0-.65.4,1.13,1.13,0,0,0-.26.8,1.46,1.46,0,0,0,.24.9,1.49,1.49,0,0,0,.62.46,2.66,2.66,0,0,0,.82.18,8.38,8.38,0,0,0,.86,0h4.44v3.3H89.39l-.85,0a3.29,3.29,0,0,0-.85.17,1.52,1.52,0,0,0-.65.43,1.5,1.5,0,0,0,0,1.69,1.52,1.52,0,0,0,.65.43,3.29,3.29,0,0,0,.85.17l.85,0h4.44v3.3h-9.3v-3.3Z"/><path class="cls-3" d="M93.83,446.45v3.3h-1v0a2.58,2.58,0,0,1,1,1.21,4,4,0,0,1,.33,1.59,4.59,4.59,0,0,1-.4,1.9,4.74,4.74,0,0,1-2.67,2.45,5.29,5.29,0,0,1-1.9.35,5.2,5.2,0,0,1-1.89-.35A4.76,4.76,0,0,1,85.7,456a4.45,4.45,0,0,1-1.08-1.47,4.51,4.51,0,0,1-.4-1.89,4.3,4.3,0,0,1,.3-1.58,3.19,3.19,0,0,1,.92-1.3h-.91v-3.3Zm-6.74,5.31a2.13,2.13,0,0,0,.17.9,1.93,1.93,0,0,0,.45.66,2.06,2.06,0,0,0,.66.42,2.48,2.48,0,0,0,.82.14,2.07,2.07,0,0,0,1.48-.55,2.35,2.35,0,0,0,0-3.14,2.07,2.07,0,0,0-1.48-.55,2.25,2.25,0,0,0-.82.15,1.88,1.88,0,0,0-.66.41,1.93,1.93,0,0,0-.45.66A2.13,2.13,0,0,0,87.09,451.76Z"/><path class="cls-3" d="M92.79,437.26v0a2.58,2.58,0,0,1,1,1.21,4.06,4.06,0,0,1,.33,1.6,4.51,4.51,0,0,1-.4,1.89,4.75,4.75,0,0,1-1.08,1.49,4.86,4.86,0,0,1-1.59,1,5.28,5.28,0,0,1-1.9.34,5.19,5.19,0,0,1-1.89-.34,5.12,5.12,0,0,1-1.58-.95A4.67,4.67,0,0,1,84.62,442a4.55,4.55,0,0,1-.4-1.9,4.3,4.3,0,0,1,.3-1.58,3.25,3.25,0,0,1,.92-1.3H78.78V434h15v3.29Zm-5.7,2a2.13,2.13,0,0,0,.17.9,1.93,1.93,0,0,0,.45.66,2.06,2.06,0,0,0,.66.42,2.25,2.25,0,0,0,.82.14,2.07,2.07,0,0,0,1.48-.55,2.34,2.34,0,0,0,0-3.13,2.08,2.08,0,0,0-1.48-.56,2.25,2.25,0,0,0-.82.15,2.06,2.06,0,0,0-.66.42,1.93,1.93,0,0,0-.45.66A2.11,2.11,0,0,0,87.09,439.27Z"/><path class="cls-3" d="M89.73,422.35v6.94a1.85,1.85,0,0,0,2.07-2.07,2.14,2.14,0,0,0-.19-.91,1.61,1.61,0,0,0-.66-.66v-3.18a4,4,0,0,1,1.42.67,3.72,3.72,0,0,1,1,1.1,4.87,4.87,0,0,1,.58,1.41,6.16,6.16,0,0,1,.2,1.55,6.73,6.73,0,0,1-.33,2.15,4.91,4.91,0,0,1-1,1.71,4.51,4.51,0,0,1-1.55,1.12,5.24,5.24,0,0,1-2.12.41,5.52,5.52,0,0,1-2.09-.38,4.64,4.64,0,0,1-1.56-1.06,4.84,4.84,0,0,1-1-1.63,6,6,0,0,1-.35-2.08,6,6,0,0,1,.36-2.16,4.48,4.48,0,0,1,1-1.59,4.39,4.39,0,0,1,1.62-1,6.26,6.26,0,0,1,2.15-.34Zm-1.9,3.06a1.69,1.69,0,0,0-1.07.66,2,2,0,0,0-.4,1.21,2.2,2.2,0,0,0,.37,1.27,1.65,1.65,0,0,0,1.1.68Z"/><path class="cls-3" d="M520.88,526v3.3H514.3v1.16h-2.72v-1.16H510.4c-.32,0-.62,0-.9,0a4.48,4.48,0,0,1-.82-.1,3.53,3.53,0,0,1-.78-.29,3.39,3.39,0,0,1-.76-.53,4.12,4.12,0,0,1-1.1-1.46,4.19,4.19,0,0,1-.38-1.78,3.41,3.41,0,0,1,.07-.73,2.74,2.74,0,0,1,.25-.69h2.85a5.85,5.85,0,0,0-.22.56,1.93,1.93,0,0,0-.09.6,1,1,0,0,0,.38.89,2.16,2.16,0,0,0,1.18.25h1.5v-2.3h2.72V526Z"/><path class="cls-3" d="M520.88,519.26v3.3h-15v-3.3Z"/><path class="cls-3" d="M511.27,512.17a6.89,6.89,0,0,1,.33-2.14,5.46,5.46,0,0,1,1-1.78,4.58,4.58,0,0,1,1.56-1.22,4.66,4.66,0,0,1,2.12-.46,4.65,4.65,0,0,1,3.66,1.68,5.46,5.46,0,0,1,1,1.78,6.89,6.89,0,0,1,.33,2.14,6.78,6.78,0,0,1-.33,2.13,5.61,5.61,0,0,1-1,1.79,4.55,4.55,0,0,1-1.55,1.23,4.71,4.71,0,0,1-2.11.45,4.79,4.79,0,0,1-2.12-.45,4.58,4.58,0,0,1-1.56-1.22,5.51,5.51,0,0,1-1-1.79A6.89,6.89,0,0,1,511.27,512.17Zm2.87,0a2.13,2.13,0,0,0,.17.9,2,2,0,0,0,1.11,1.08,2.25,2.25,0,0,0,.82.14,2.11,2.11,0,0,0,1.49-.55,2.06,2.06,0,0,0,.59-1.57,2,2,0,0,0-.59-1.56,2.12,2.12,0,0,0-1.49-.56,2.25,2.25,0,0,0-.82.15,2,2,0,0,0-.66.41,2.25,2.25,0,0,0-.45.67A2.11,2.11,0,0,0,514.14,512.17Z"/><path class="cls-3" d="M516.62,500.47l-5-2.34v-2l5-2.34-5-2.34v-3.64l9.3,4.86v2.14l-5.09,2.3,5.09,2.3v2.14l-9.3,4.86v-3.66Z"/><path class="cls-3" d="M516.78,477.49v6.94a1.85,1.85,0,0,0,2.07-2.07,2,2,0,0,0-.19-.91,1.69,1.69,0,0,0-.66-.67v-3.17a4,4,0,0,1,1.42.66,3.92,3.92,0,0,1,1,1.11,5.24,5.24,0,0,1,.58,1.4,6.87,6.87,0,0,1-.14,3.71,4.78,4.78,0,0,1-1,1.7,4.32,4.32,0,0,1-1.55,1.13,5.71,5.71,0,0,1-4.2,0,4.2,4.2,0,0,1-1.56-1.06,4.57,4.57,0,0,1-1-1.62,6,6,0,0,1-.35-2.08,5.82,5.82,0,0,1,.37-2.16,4.25,4.25,0,0,1,1-1.59,4.47,4.47,0,0,1,1.62-1,6.3,6.3,0,0,1,2.15-.34Zm-1.9,3.06a1.65,1.65,0,0,0-1.07.66,2,2,0,0,0-.4,1.21,2.22,2.22,0,0,0,.37,1.26,1.63,1.63,0,0,0,1.1.69Z"/><path class="cls-3" d="M513.11,472.68v0a2.92,2.92,0,0,1-1.26-1.25,3.9,3.9,0,0,1-.4-1.76V469h3.18a1.86,1.86,0,0,0-.26.67,5.55,5.55,0,0,0,0,.72,2.47,2.47,0,0,0,.22,1.13,1.75,1.75,0,0,0,.58.7,2.28,2.28,0,0,0,.89.35,5.69,5.69,0,0,0,1.12.1h3.75V476h-9.3v-3.3Z"/><path class="cls-3" d="M516.35,457l-4.77-2.21v-3.7l9.3,4.86V458l-9.3,4.88v-3.7Z"/><path class="cls-3" d="M520.88,440.1v3.3h-1v0a2.58,2.58,0,0,1,1,1.22,4,4,0,0,1,.33,1.59,4.59,4.59,0,0,1-.4,1.9,4.74,4.74,0,0,1-2.67,2.45,5.31,5.31,0,0,1-3.79,0,4.94,4.94,0,0,1-1.58-.95,4.45,4.45,0,0,1-1.08-1.47,4.51,4.51,0,0,1-.4-1.89,4.4,4.4,0,0,1,.3-1.59,3.22,3.22,0,0,1,.92-1.29h-.91v-3.3Zm-6.74,5.31a2.13,2.13,0,0,0,.17.9,2.09,2.09,0,0,0,.45.66,1.88,1.88,0,0,0,.66.41,2.25,2.25,0,0,0,.82.15,2.11,2.11,0,0,0,1.49-.55,2.38,2.38,0,0,0,0-3.14,2.11,2.11,0,0,0-1.49-.55,2.48,2.48,0,0,0-.82.14,2,2,0,0,0-1.11,1.08A2.13,2.13,0,0,0,514.14,445.41Z"/><path class="cls-3" d="M514,431.76a4.24,4.24,0,0,0-.32.87,3.44,3.44,0,0,0-.13.91,1.35,1.35,0,0,0,0,.33,1.17,1.17,0,0,0,.11.33.7.7,0,0,0,.19.26.39.39,0,0,0,.3.11.5.5,0,0,0,.38-.17,1.23,1.23,0,0,0,.22-.41,2.52,2.52,0,0,0,.13-.49c0-.17.06-.31.08-.41a4.78,4.78,0,0,1,.32-1.07,3.14,3.14,0,0,1,.53-.85,2.28,2.28,0,0,1,.79-.58,2.88,2.88,0,0,1,1.12-.2,3,3,0,0,1,1.57.38,3.2,3.2,0,0,1,1.07,1,4.49,4.49,0,0,1,.62,1.41,6.54,6.54,0,0,1,.2,1.59,7.06,7.06,0,0,1-.27,2,7.44,7.44,0,0,1-.8,1.8l-2.3-1.19a4.44,4.44,0,0,0,.34-.58c.11-.22.21-.44.3-.67a6.28,6.28,0,0,0,.22-.7,3.29,3.29,0,0,0,.08-.66,1.45,1.45,0,0,0,0-.35.93.93,0,0,0-.12-.33,1.16,1.16,0,0,0-.22-.26.56.56,0,0,0-.33-.1.52.52,0,0,0-.42.19,1.31,1.31,0,0,0-.26.47,6.26,6.26,0,0,0-.17.66q-.08.38-.18.75a6.65,6.65,0,0,1-.26.75,2.12,2.12,0,0,1-.44.66,2.05,2.05,0,0,1-.7.47,2.43,2.43,0,0,1-1,.19,2.86,2.86,0,0,1-1.47-.36,3,3,0,0,1-1-.93,4.13,4.13,0,0,1-.6-1.31,6.29,6.29,0,0,1-.19-1.5,9.16,9.16,0,0,1,.14-1.57,6.12,6.12,0,0,1,.46-1.49Z"/><path class="cls-3" d="M516.78,419.06V426a1.85,1.85,0,0,0,2.07-2.07,2,2,0,0,0-.19-.91,1.61,1.61,0,0,0-.66-.66v-3.17a3.72,3.72,0,0,1,1.42.66,3.88,3.88,0,0,1,1,1.1,5.17,5.17,0,0,1,.58,1.41,6.84,6.84,0,0,1-.14,3.7,4.91,4.91,0,0,1-1,1.71,4.42,4.42,0,0,1-1.55,1.12,5.24,5.24,0,0,1-2.12.41,5.47,5.47,0,0,1-2.08-.38,4.45,4.45,0,0,1-1.56-1.06,4.75,4.75,0,0,1-1-1.62,6.07,6.07,0,0,1-.35-2.09,5.73,5.73,0,0,1,.37-2.15,4.37,4.37,0,0,1,1-1.6,4.61,4.61,0,0,1,1.62-1,6.3,6.3,0,0,1,2.15-.34Zm-1.9,3.06a1.73,1.73,0,0,0-1.07.66,2,2,0,0,0-.4,1.21,2.28,2.28,0,0,0,.37,1.27,1.7,1.7,0,0,0,1.1.69Z"/><path class="cls-3" d="M514,411.41a4.24,4.24,0,0,0-.32.87,3.44,3.44,0,0,0-.13.91,1.33,1.33,0,0,0,0,.32,1.23,1.23,0,0,0,.11.34.7.7,0,0,0,.19.26.42.42,0,0,0,.3.11.5.5,0,0,0,.38-.17,1.34,1.34,0,0,0,.22-.41,2.72,2.72,0,0,0,.13-.49c0-.17.06-.31.08-.42a4.86,4.86,0,0,1,.32-1.06,3.37,3.37,0,0,1,.53-.86,2.39,2.39,0,0,1,.79-.57,2.7,2.7,0,0,1,1.12-.21,3,3,0,0,1,1.57.39,3.11,3.11,0,0,1,1.07,1,4.49,4.49,0,0,1,.62,1.41,6.47,6.47,0,0,1,.2,1.59,7.12,7.12,0,0,1-.27,1.95,7.61,7.61,0,0,1-.8,1.8l-2.3-1.19a5.22,5.22,0,0,0,.34-.58c.11-.22.21-.45.3-.68a5.54,5.54,0,0,0,.22-.69,3.29,3.29,0,0,0,.08-.66,1.45,1.45,0,0,0,0-.35.93.93,0,0,0-.12-.33,1.16,1.16,0,0,0-.22-.26.56.56,0,0,0-.33-.1.52.52,0,0,0-.42.18,1.36,1.36,0,0,0-.26.48,6.26,6.26,0,0,0-.17.66q-.08.36-.18.75a7.41,7.41,0,0,1-.26.75,2.12,2.12,0,0,1-.44.66,2.05,2.05,0,0,1-.7.47,2.59,2.59,0,0,1-1,.19,2.86,2.86,0,0,1-1.47-.36,3.1,3.1,0,0,1-1-.93,4.18,4.18,0,0,1-.6-1.32,6.15,6.15,0,0,1-.19-1.49,9.08,9.08,0,0,1,.14-1.57,6.12,6.12,0,0,1,.46-1.49Z"/><path class="cls-4" d="M261.57,737h-3.46V730.1H257v-2.85h1.12v-2.93h3.46v2.93h2v2.85h-2Z"/><path class="cls-4" d="M268.09,721.22v7.26h0a4.09,4.09,0,0,1,1.34-1.18,3.91,3.91,0,0,1,1.77-.38,4,4,0,0,1,1.62.3,3.17,3.17,0,0,1,1.14.83,3.75,3.75,0,0,1,.68,1.3,5.83,5.83,0,0,1,.23,1.68v6h-3.46v-5a7.89,7.89,0,0,0-.05-.84,2.18,2.18,0,0,0-.21-.75,1.2,1.2,0,0,0-.47-.53,1.57,1.57,0,0,0-.83-.2,1.7,1.7,0,0,0-.85.2,1.58,1.58,0,0,0-.56.53,2.09,2.09,0,0,0-.31.75,4.78,4.78,0,0,0-.08.84v5h-3.46V721.22Z"/><path class="cls-4" d="M287.2,732.7h-7.28a2.24,2.24,0,0,0,.55,1.62,2.56,2.56,0,0,0,2.58.35,1.72,1.72,0,0,0,.69-.7h3.33a4,4,0,0,1-.7,1.5,4.08,4.08,0,0,1-1.15,1,5.56,5.56,0,0,1-1.48.61,6.8,6.8,0,0,1-1.63.2,7.37,7.37,0,0,1-2.25-.34,5.13,5.13,0,0,1-1.79-1,4.66,4.66,0,0,1-1.18-1.63,5.49,5.49,0,0,1-.42-2.22,5.76,5.76,0,0,1,.39-2.18,4.65,4.65,0,0,1,1.12-1.64,4.91,4.91,0,0,1,1.7-1,6.76,6.76,0,0,1,4.44,0,4.58,4.58,0,0,1,2.72,2.79,6.56,6.56,0,0,1,.36,2.25Zm-3.21-2a1.79,1.79,0,0,0-.69-1.13,2.14,2.14,0,0,0-1.27-.41,2.31,2.31,0,0,0-1.33.39,1.73,1.73,0,0,0-.72,1.15Z"/><path class="cls-4" d="M301.74,729.76a4.3,4.3,0,0,0-.92-.35,3.73,3.73,0,0,0-.95-.13,1.48,1.48,0,0,0-.34,0,1.3,1.3,0,0,0-.35.11,1,1,0,0,0-.28.2.48.48,0,0,0-.11.32.48.48,0,0,0,.18.39,1.2,1.2,0,0,0,.43.24,3.8,3.8,0,0,0,.51.14l.44.08a6.11,6.11,0,0,1,1.12.33,3.46,3.46,0,0,1,.89.56,2.49,2.49,0,0,1,.6.83,2.75,2.75,0,0,1,.22,1.17,3.2,3.2,0,0,1-.4,1.65,3.31,3.31,0,0,1-1,1.12,4.83,4.83,0,0,1-1.48.65,6.65,6.65,0,0,1-1.67.21,7.34,7.34,0,0,1-2-.29,7.6,7.6,0,0,1-1.89-.83l1.25-2.42a3.93,3.93,0,0,0,.61.36c.23.12.46.22.7.32a6.83,6.83,0,0,0,.73.23,3.58,3.58,0,0,0,.7.08,1.59,1.59,0,0,0,.36,0,1.05,1.05,0,0,0,.35-.13.87.87,0,0,0,.27-.23.53.53,0,0,0,.1-.34.55.55,0,0,0-.19-.45,1.73,1.73,0,0,0-.49-.26,5.47,5.47,0,0,0-.7-.18c-.26,0-.52-.12-.78-.19a7.41,7.41,0,0,1-.79-.28,2.46,2.46,0,0,1-.7-.45,2.33,2.33,0,0,1-.49-.74,2.68,2.68,0,0,1-.19-1.1,3.09,3.09,0,0,1,.37-1.55,3.37,3.37,0,0,1,1-1.08,4.36,4.36,0,0,1,1.38-.63,6.3,6.3,0,0,1,1.56-.2,9,9,0,0,1,1.65.15,6.25,6.25,0,0,1,1.56.48Z"/><path class="cls-4" d="M308.39,728.35h0a2.88,2.88,0,0,1,1.29-1.07,4,4,0,0,1,1.66-.36,4.67,4.67,0,0,1,2,.43,5,5,0,0,1,1.56,1.14,5.28,5.28,0,0,1,1,1.66,5.62,5.62,0,0,1,.36,2,5.45,5.45,0,0,1-.36,2,5.32,5.32,0,0,1-1,1.65,4.57,4.57,0,0,1-1.54,1.12,4.77,4.77,0,0,1-2,.41,4.58,4.58,0,0,1-1.67-.31,3.17,3.17,0,0,1-1.35-1v5.8h-3.46V727.25h3.46Zm2.1,1.58a2.35,2.35,0,0,0-.94.18,2.28,2.28,0,0,0-.69.47,2.19,2.19,0,0,0-.44.7,2.37,2.37,0,0,0-.15.85,2.2,2.2,0,0,0,.58,1.56,2.12,2.12,0,0,0,1.64.63,2.14,2.14,0,0,0,1.65-.63,2.2,2.2,0,0,0,.58-1.56,2.37,2.37,0,0,0-.15-.85,2.19,2.19,0,0,0-.44-.7,2.28,2.28,0,0,0-.69-.47A2.37,2.37,0,0,0,310.49,729.93Z"/><path class="cls-4" d="M319.73,721.57a1.93,1.93,0,0,1,.75.15,2,2,0,0,1,.62.42,2.21,2.21,0,0,1,.42.61,2,2,0,0,1,0,1.51,2.21,2.21,0,0,1-.42.61,2,2,0,0,1-.62.42,1.93,1.93,0,0,1-.75.15,1.86,1.86,0,0,1-.75-.15,1.89,1.89,0,0,1-.62-.42,1.85,1.85,0,0,1-.42-.61,2,2,0,0,1,0-1.51,1.85,1.85,0,0,1,.42-.61,1.89,1.89,0,0,1,.62-.42A1.86,1.86,0,0,1,319.73,721.57ZM321.46,737H318v-9.74h3.46Z"/><path class="cls-4" d="M327.19,728.84h0a3.15,3.15,0,0,1,1.31-1.32,4.12,4.12,0,0,1,1.85-.41h.66v3.33a2.15,2.15,0,0,0-.71-.27,4.43,4.43,0,0,0-.75,0,2.75,2.75,0,0,0-1.19.22,1.94,1.94,0,0,0-.73.62,2.42,2.42,0,0,0-.37.93,6.12,6.12,0,0,0-.11,1.17V737h-3.45v-9.74h3.45Z"/><path class="cls-4" d="M343,737h-3.46v-1.08h0a2.75,2.75,0,0,1-1.28,1.07,4.41,4.41,0,0,1-1.67.34,4.62,4.62,0,0,1-2-.42,4.81,4.81,0,0,1-1.56-1.13,5.13,5.13,0,0,1-1-1.66,5.62,5.62,0,0,1-.36-2,5.48,5.48,0,0,1,.36-2,5.26,5.26,0,0,1,1-1.66,4.73,4.73,0,0,1,1.54-1.13,4.71,4.71,0,0,1,3.65-.1,3.34,3.34,0,0,1,1.35,1v-1H343Zm-5.56-7.06a2.37,2.37,0,0,0-.95.18,2.28,2.28,0,0,0-.69.47,2.19,2.19,0,0,0-.44.7,2.37,2.37,0,0,0-.15.85,2.25,2.25,0,0,0,.58,1.56,2.46,2.46,0,0,0,3.29,0,2.25,2.25,0,0,0,.58-1.56,2.37,2.37,0,0,0-.15-.85,2.19,2.19,0,0,0-.44-.7,2.28,2.28,0,0,0-.69-.47A2.35,2.35,0,0,0,337.44,729.93Z"/><path class="cls-4" d="M348.76,737H345.3V721.22h3.46Z"/><path class="cls-4" d="M151.68,726.92a7.24,7.24,0,0,1,2.24.35,5.52,5.52,0,0,1,1.87,1,5,5,0,0,1,1.29,1.64,5.43,5.43,0,0,1,0,4.42,4.85,4.85,0,0,1-1.29,1.64,5.72,5.72,0,0,1-1.87,1,7.55,7.55,0,0,1-2.24.34,7.38,7.38,0,0,1-2.23-.34,5.72,5.72,0,0,1-1.87-1,4.82,4.82,0,0,1-1.3-1.63,5,5,0,0,1,1.29-6.07,5.43,5.43,0,0,1,1.87-1A7.19,7.19,0,0,1,151.68,726.92Zm0,3a2.21,2.21,0,0,0-1.63.65,2,2,0,0,0-.44.7,2.37,2.37,0,0,0-.15.85,2.2,2.2,0,0,0,.58,1.56,2.45,2.45,0,0,0,3.28,0,2.2,2.2,0,0,0,.58-1.56,2.37,2.37,0,0,0-.15-.85,2,2,0,0,0-.44-.7,2.28,2.28,0,0,0-.69-.47A2.32,2.32,0,0,0,151.68,729.93Z"/><path class="cls-4" d="M162.89,737h-3.46V730.1h-1.12v-2.85h1.12v-2.93h3.46v2.93h2v2.85h-2Z"/><path class="cls-4" d="M169.73,737h-3.46V730.1h-1.12v-2.85h1.12v-2.93h3.46v2.93h2v2.85h-2Z"/><path class="cls-4" d="M177.94,726.92a7.24,7.24,0,0,1,2.24.35,5.52,5.52,0,0,1,1.87,1,4.8,4.8,0,0,1,1.28,1.64,5.33,5.33,0,0,1,0,4.42,4.7,4.7,0,0,1-1.28,1.64,5.72,5.72,0,0,1-1.87,1,7.55,7.55,0,0,1-4.48,0,5.93,5.93,0,0,1-1.87-1,4.91,4.91,0,0,1-1.29-1.63,5.45,5.45,0,0,1,0-4.43,4.92,4.92,0,0,1,1.28-1.64,5.61,5.61,0,0,1,1.87-1A7.26,7.26,0,0,1,177.94,726.92Zm0,3a2.28,2.28,0,0,0-.94.18,2.21,2.21,0,0,0-.7.47,2,2,0,0,0-.43.7,2.18,2.18,0,0,0-.16.85,2.25,2.25,0,0,0,.58,1.56,2.14,2.14,0,0,0,1.65.63,2.12,2.12,0,0,0,1.64-.63,2.2,2.2,0,0,0,.58-1.56,2.37,2.37,0,0,0-.15-.85,2,2,0,0,0-.44-.7,2.28,2.28,0,0,0-.69-.47A2.32,2.32,0,0,0,177.94,729.93Z"/><path class="cls-4" d="M429.19,726.92a7.26,7.26,0,0,1,2.25.35,5.52,5.52,0,0,1,1.87,1,5.17,5.17,0,0,1,1.28,6.06,4.82,4.82,0,0,1-1.28,1.64,5.72,5.72,0,0,1-1.87,1,7.56,7.56,0,0,1-2.25.34A7.48,7.48,0,0,1,427,737a5.82,5.82,0,0,1-1.87-1,4.79,4.79,0,0,1-1.29-1.63,5.35,5.35,0,0,1,0-4.43,4.8,4.8,0,0,1,1.28-1.64,5.52,5.52,0,0,1,1.87-1A7.24,7.24,0,0,1,429.19,726.92Zm0,3a2.35,2.35,0,0,0-.94.18,2.28,2.28,0,0,0-.69.47,2,2,0,0,0-.44.7,2.37,2.37,0,0,0-.15.85,2.2,2.2,0,0,0,.58,1.56,2.12,2.12,0,0,0,1.64.63,2.14,2.14,0,0,0,1.65-.63,2.25,2.25,0,0,0,.58-1.56,2.37,2.37,0,0,0-.15-.85,2,2,0,0,0-1.14-1.17A2.28,2.28,0,0,0,429.19,729.93Z"/><path class="cls-4" d="M440.08,737h-3.46V721.22h3.46Z"/><path class="cls-4" d="M453,737h-3.46v-1.08h0a2.72,2.72,0,0,1-1.27,1.07,4.41,4.41,0,0,1-1.67.34,4.67,4.67,0,0,1-2-.42,5,5,0,0,1-1.56-1.13,5.28,5.28,0,0,1-1-1.66,5.62,5.62,0,0,1-.36-2,5.48,5.48,0,0,1,.36-2,5.26,5.26,0,0,1,1-1.66,4.67,4.67,0,0,1,3.52-1.55,4.5,4.5,0,0,1,1.66.32,3.38,3.38,0,0,1,1.36,1v-1H453Zm-5.57-7.06a2.32,2.32,0,0,0-.94.18,2.28,2.28,0,0,0-.69.47,2,2,0,0,0-.44.7,2.37,2.37,0,0,0-.15.85,2.2,2.2,0,0,0,.58,1.56,2.1,2.1,0,0,0,1.64.63,2.14,2.14,0,0,0,1.65-.63,2.25,2.25,0,0,0,.58-1.56,2.38,2.38,0,0,0-.16-.85,2,2,0,0,0-.43-.7,2.21,2.21,0,0,0-.7-.47A2.28,2.28,0,0,0,447.45,729.93Z"/><path class="cls-4" d="M301.85,775.73h2.85v3.44h3.44V782H304.7v3.46h-2.85V782h-3.44v-2.85h3.44Z"/><path class="cls-3" d="M165.89,840.52v-16h2.57v6.86l.12-.1.31-.22a3.74,3.74,0,0,1,.52-.28,3.54,3.54,0,0,1,.71-.22,3.94,3.94,0,0,1,.9-.1,4.79,4.79,0,0,1,2.54.69,4.85,4.85,0,0,1,1.78,1.87,5.33,5.33,0,0,1,.64,2.6v4.9h-2.57v-4.81a2.75,2.75,0,0,0-.7-1.86A2.13,2.13,0,0,0,171,833a2.39,2.39,0,0,0-1.79.77,2.47,2.47,0,0,0-.77,1.81v4.9Z"/><path class="cls-3" d="M179.1,838.13a5,5,0,0,1-.66-2.54,5.14,5.14,0,0,1,.66-2.56,5,5,0,0,1,4.37-2.55,4.14,4.14,0,0,1,.87.09,3.19,3.19,0,0,1,.7.23l.5.28c.15.09.25.17.32.22l.1.1v-.78h2.54v9.9H186v-.78l-.1.09a3.08,3.08,0,0,1-.31.22,3.81,3.81,0,0,1-.52.29,4,4,0,0,1-.69.22,4.14,4.14,0,0,1-.87.09,4.93,4.93,0,0,1-4.37-2.52Zm1.91-2.54a2.47,2.47,0,0,0,.73,1.76,2.32,2.32,0,0,0,1.73.75,2.49,2.49,0,0,0,1.75-4.28,2.38,2.38,0,0,0-1.75-.76,2.35,2.35,0,0,0-1.73.75A2.5,2.5,0,0,0,181,835.59Z"/><path class="cls-3" d="M191.8,840.52v-9.9h2.58v.78a3.28,3.28,0,0,1,2.18-.92,4.4,4.4,0,0,1,2.34.62,4,4,0,0,1,1.51,1.67,5.22,5.22,0,0,1,.52,2.33v5.42h-2.54V835a2,2,0,0,0-.6-1.47,1.93,1.93,0,0,0-2.82,0,2.07,2.07,0,0,0-.59,1.45v5.52H191.8Z"/><path class="cls-3" d="M205.1,838.12a5.31,5.31,0,0,1,0-5.13,5,5,0,0,1,1.82-1.86,4.94,4.94,0,0,1,2.56-.69,4.21,4.21,0,0,1,.87.09,3.48,3.48,0,0,1,.71.23l.51.28a3.08,3.08,0,0,1,.32.23l.1.09v-6.84h2.54v16H212v-.78a1.35,1.35,0,0,1-.11.09,2.19,2.19,0,0,1-.31.22,3.2,3.2,0,0,1-.51.29,4.18,4.18,0,0,1-.7.22,4.38,4.38,0,0,1-.88.09,5,5,0,0,1-4.38-2.53Zm2.65-4.35a2.55,2.55,0,0,0,0,3.57,2.34,2.34,0,0,0,1.73.76,2.64,2.64,0,0,0,2.53-2.54,2.44,2.44,0,0,0-.77-1.78,2.4,2.4,0,0,0-1.76-.76A2.33,2.33,0,0,0,207.75,833.77Z"/><path class="cls-3" d="M217.73,840.52v-9.9h2.54v.79a3,3,0,0,1,1.07-.66,3.28,3.28,0,0,1,1.25-.27,3.52,3.52,0,0,1,1.63.35,5.18,5.18,0,0,1,1.4,1,4.49,4.49,0,0,1,3.33-1.4,4.29,4.29,0,0,1,3.21,1.36,4.52,4.52,0,0,1,1.31,3.28v5.4h-2.53V835a2,2,0,0,0-.59-1.42A1.92,1.92,0,0,0,229,833a2,2,0,0,0-2,2v5.51h-2.54V835.1a1.86,1.86,0,0,0-.63-1.41,2.05,2.05,0,0,0-1.47-.59,1.92,1.92,0,0,0-1.42.58,2.06,2.06,0,0,0-.6,1.42v5.42h-2.54Z"/><path class="cls-3" d="M236.12,838.13a5,5,0,0,1-.66-2.54,5.14,5.14,0,0,1,.66-2.56,5,5,0,0,1,4.37-2.55,4.14,4.14,0,0,1,.87.09,3.19,3.19,0,0,1,.7.23c.19.1.36.19.5.28s.25.17.32.22l.11.1v-.78h2.54v9.9H243v-.78l-.11.09a3.08,3.08,0,0,1-.31.22,4.4,4.4,0,0,1-.51.29,4.18,4.18,0,0,1-.7.22,4.14,4.14,0,0,1-.87.09,4.93,4.93,0,0,1-4.37-2.52Zm1.91-2.54a2.47,2.47,0,0,0,.73,1.76,2.32,2.32,0,0,0,1.73.75,2.49,2.49,0,0,0,1.76-4.28,2.42,2.42,0,0,0-1.76-.76,2.31,2.31,0,0,0-1.72.75A2.47,2.47,0,0,0,238,835.59Z"/><path class="cls-3" d="M249.07,838.12a5.31,5.31,0,0,1,0-5.13,5,5,0,0,1,4.37-2.55,4.31,4.31,0,0,1,.88.09,4,4,0,0,1,.71.23l.5.28a2.5,2.5,0,0,1,.33.23l.09.09v-6.84h2.54v16H256v-.78l-.1.09a3.08,3.08,0,0,1-.31.22,3.81,3.81,0,0,1-.52.29,3.9,3.9,0,0,1-.7.22,4.31,4.31,0,0,1-.88.09,5,5,0,0,1-4.37-2.53Zm2.65-4.35a2.52,2.52,0,0,0,0,3.57,2.32,2.32,0,0,0,1.72.76,2.44,2.44,0,0,0,1.77-.77,2.54,2.54,0,0,0-1.77-4.31A2.31,2.31,0,0,0,251.72,833.77Z"/><path class="cls-3" d="M261.33,836.88a4.89,4.89,0,0,1,0-2.63,5.09,5.09,0,0,1,1.32-2.3,5.27,5.27,0,0,1,1.67-1.1,5.19,5.19,0,0,1,3.85,0,5,5,0,0,1,3,3.38,5.62,5.62,0,0,1,.19,1.33,5.34,5.34,0,0,1-.16,1.24h-7.14a2.23,2.23,0,0,0,1.1,1,2.77,2.77,0,0,0,1.11.26,3.27,3.27,0,0,0,.44,0,2.37,2.37,0,0,0,1.35-.69l.8.81,1,1a4.84,4.84,0,0,1-1.66,1.11,5.09,5.09,0,0,1-3.86,0,5.1,5.1,0,0,1-3-3.39Zm2.62-2.36h4.6a2.27,2.27,0,0,0-.69-.93,2.19,2.19,0,0,0-1.05-.48,2.43,2.43,0,0,0-.6-.05,3.07,3.07,0,0,0-.53.05,2.27,2.27,0,0,0-1,.46A2.06,2.06,0,0,0,264,834.52Z"/><path class="cls-3" d="M280.29,838.13a5,5,0,0,1-.66-2.54,5.14,5.14,0,0,1,.66-2.56,5,5,0,0,1,4.37-2.55,4.14,4.14,0,0,1,.87.09,3.19,3.19,0,0,1,.7.23c.19.1.36.19.5.28s.25.17.32.22l.11.1v-.78h2.53v9.9h-2.53v-.78l-.11.09a3.08,3.08,0,0,1-.31.22,4.4,4.4,0,0,1-.51.29,4.18,4.18,0,0,1-.7.22,4.14,4.14,0,0,1-.87.09,4.93,4.93,0,0,1-4.37-2.52Zm1.91-2.54a2.47,2.47,0,0,0,.73,1.76,2.32,2.32,0,0,0,1.73.75,2.49,2.49,0,0,0,1.76-4.28,2.42,2.42,0,0,0-1.76-.76,2.31,2.31,0,0,0-1.72.75A2.47,2.47,0,0,0,282.2,835.59Z"/><path class="cls-3" d="M293,840.52v-9.9h2.57v.78a3.17,3.17,0,0,1,1-.67,3,3,0,0,1,1.16-.25,4.4,4.4,0,0,1,2.34.62,4,4,0,0,1,1.51,1.67,5.08,5.08,0,0,1,.52,2.33v5.42h-2.54V835a2,2,0,0,0-.6-1.47,1.87,1.87,0,0,0-1.41-.61,1.9,1.9,0,0,0-1.41.61,2.07,2.07,0,0,0-.59,1.45v5.52H293Z"/><path class="cls-3" d="M306.29,838.12a5.31,5.31,0,0,1,0-5.13,5,5,0,0,1,1.82-1.86,4.94,4.94,0,0,1,2.56-.69,4.14,4.14,0,0,1,.87.09,3.83,3.83,0,0,1,.72.23l.5.28a3.08,3.08,0,0,1,.32.23l.1.09v-6.84h2.54v16h-2.54v-.78a1.35,1.35,0,0,1-.11.09,2.19,2.19,0,0,1-.31.22,3.2,3.2,0,0,1-.51.29,4.18,4.18,0,0,1-.7.22,4.31,4.31,0,0,1-.88.09,5,5,0,0,1-4.38-2.53Zm2.65-4.35a2.55,2.55,0,0,0,0,3.57,2.34,2.34,0,0,0,1.73.76,2.44,2.44,0,0,0,1.77-.77,2.54,2.54,0,0,0-1.77-4.31A2.33,2.33,0,0,0,308.94,833.77Z"/><path class="cls-3" d="M324.4,840.52v-16H327v6.86l.11-.1.32-.22a2.87,2.87,0,0,1,.52-.28,3.54,3.54,0,0,1,.71-.22,3.82,3.82,0,0,1,.9-.1,4.84,4.84,0,0,1,4.32,2.56,5.33,5.33,0,0,1,.64,2.6v4.9h-2.58v-4.81a2.79,2.79,0,0,0-.69-1.86,2.15,2.15,0,0,0-1.69-.81,2.43,2.43,0,0,0-1.8.77,2.46,2.46,0,0,0-.76,1.81v4.9Z"/><path class="cls-3" d="M337.62,838.13a5,5,0,0,1-.67-2.54,5,5,0,0,1,.67-2.56,5,5,0,0,1,4.37-2.55,4.12,4.12,0,0,1,.86.09,3,3,0,0,1,.7.23l.51.28.31.22.11.1v-.78H347v9.9h-2.54v-.78a1.35,1.35,0,0,1-.11.09,2.19,2.19,0,0,1-.31.22,3.2,3.2,0,0,1-.51.29,4.35,4.35,0,0,1-.69.22,4.28,4.28,0,0,1-.87.09,4.93,4.93,0,0,1-4.37-2.52Zm1.91-2.54a2.46,2.46,0,0,0,.72,1.76,2.36,2.36,0,0,0,1.74.75,2.43,2.43,0,0,0,1.75-.75,2.53,2.53,0,0,0-1.75-4.29,2.33,2.33,0,0,0-1.73.75A2.46,2.46,0,0,0,339.53,835.59Z"/><path class="cls-3" d="M350.32,840.52v-9.9h2.58v.78a3.28,3.28,0,0,1,2.17-.92,4.4,4.4,0,0,1,2.34.62,4.07,4.07,0,0,1,1.52,1.67,5.21,5.21,0,0,1,.51,2.33v5.42H356.9V835a2.08,2.08,0,0,0-.59-1.47,1.9,1.9,0,0,0-1.41-.61,1.87,1.87,0,0,0-1.41.61,2,2,0,0,0-.59,1.45v5.52h-2.58Z"/><path class="cls-3" d="M363.62,838.12a5.31,5.31,0,0,1,0-5.13,5,5,0,0,1,1.82-1.86,4.88,4.88,0,0,1,2.55-.69,4.31,4.31,0,0,1,.88.09,4,4,0,0,1,.71.23c.19.1.36.19.5.28a2.5,2.5,0,0,1,.33.23l.1.09v-6.84H373v16h-2.53v-.78l-.11.09a3.08,3.08,0,0,1-.31.22,3.81,3.81,0,0,1-.52.29,3.9,3.9,0,0,1-.7.22,4.31,4.31,0,0,1-.88.09,4.87,4.87,0,0,1-2.55-.68A5,5,0,0,1,363.62,838.12Zm2.65-4.35a2.52,2.52,0,0,0,0,3.57,2.32,2.32,0,0,0,1.72.76,2.54,2.54,0,0,0,0-5.08A2.31,2.31,0,0,0,366.27,833.77Z"/><path class="cls-3" d="M383.07,838.12a5.31,5.31,0,0,1,0-5.13,5,5,0,0,1,1.82-1.86,4.93,4.93,0,0,1,2.55-.69,4.31,4.31,0,0,1,.88.09,3.7,3.7,0,0,1,.71.23c.19.1.36.19.5.28a2.5,2.5,0,0,1,.33.23l.1.09v-6.84h2.54v16H390v-.78a1.35,1.35,0,0,1-.11.09,2.19,2.19,0,0,1-.31.22,3.2,3.2,0,0,1-.51.29,4.51,4.51,0,0,1-.7.22,4.41,4.41,0,0,1-.89.09,5,5,0,0,1-4.37-2.53Zm2.65-4.35a2.55,2.55,0,0,0,0,3.57,2.34,2.34,0,0,0,1.72.76,2.54,2.54,0,0,0,0-5.08A2.33,2.33,0,0,0,385.72,833.77Z"/><path class="cls-3" d="M393.84,830.62h2.8l2.86,7.06,2.68-7.06H405l-6.09,15.09H396l2.06-5.06Z"/><path class="cls-3" d="M406,836.88a5.17,5.17,0,0,1,0-2.63,5.2,5.2,0,0,1,1.33-2.3,5.27,5.27,0,0,1,1.67-1.1,5.1,5.1,0,0,1,7,4.71,5.32,5.32,0,0,1-.15,1.24h-7.14a2.19,2.19,0,0,0,1.1,1,2.73,2.73,0,0,0,1.11.26,3.42,3.42,0,0,0,.44,0,2.37,2.37,0,0,0,1.35-.69l.8.81,1,1a5.09,5.09,0,0,1-7.19,0A5.08,5.08,0,0,1,406,836.88Zm2.63-2.36h4.59a2.17,2.17,0,0,0-.68-.93,2.23,2.23,0,0,0-1.05-.48,2.43,2.43,0,0,0-.6-.05,3.07,3.07,0,0,0-.53.05,2.27,2.27,0,0,0-1,.46A2.06,2.06,0,0,0,408.59,834.52Z"/><path class="cls-3" d="M419.12,838.12a5.24,5.24,0,0,1,0-5.13,5,5,0,0,1,4.37-2.55,4.31,4.31,0,0,1,.88.09,4,4,0,0,1,.71.23l.5.28a3.43,3.43,0,0,1,.33.23l.09.09v-6.84h2.54v16H426v-.78l-.1.09a2.54,2.54,0,0,1-.32.22,3.2,3.2,0,0,1-.51.29,4.18,4.18,0,0,1-.7.22,4.31,4.31,0,0,1-.88.09,5,5,0,0,1-4.37-2.53Zm2.64-4.35a2.55,2.55,0,0,0,0,3.57,2.36,2.36,0,0,0,1.73.76,2.44,2.44,0,0,0,1.77-.77,2.54,2.54,0,0,0-1.77-4.31A2.35,2.35,0,0,0,421.76,833.77Z"/><path class="cls-3" d="M235.05,857.15v-2.52h2.18v-1.91a4,4,0,0,1,1.24-3,4.19,4.19,0,0,1,4.64-.88,4.31,4.31,0,0,1,1.38,1l-1.82,1.74a1.66,1.66,0,0,0-1.22-.52,1.67,1.67,0,0,0-1.68,1.68v1.91h2.16v2.52h-2.16v7.37h-2.54v-7.37Z"/><path class="cls-3" d="M246.36,864.52v-16H249v16Z"/><path class="cls-3" d="M252.12,860.88a5.17,5.17,0,0,1,0-2.63,5.05,5.05,0,0,1,4.93-3.77,5,5,0,0,1,1.94.38,5.11,5.11,0,0,1,1.67,1.1,5.17,5.17,0,0,1,1.51,3.62,5.1,5.1,0,0,1-1.51,3.59,5.3,5.3,0,0,1-1.67,1.11,5.22,5.22,0,0,1-1.94.37,5,5,0,0,1-1.94-.38,4.94,4.94,0,0,1-1.66-1.11A5.08,5.08,0,0,1,252.12,860.88Zm2.4-1.3a2.46,2.46,0,0,0,.77,1.78,2.42,2.42,0,0,0,1.78.77,2.39,2.39,0,0,0,1.77-.76,2.48,2.48,0,0,0,.75-1.79,2.45,2.45,0,0,0-.75-1.77,2.42,2.42,0,0,0-1.77-.75,2.48,2.48,0,0,0-1.78.75A2.44,2.44,0,0,0,254.52,859.58Z"/><path class="cls-3" d="M262.84,854.62h2.81l2.36,5.6,1.74-5.6h3.11l1.74,5.6,2.39-5.6h2.78l-4.1,9.9h-2.1l-2.27-6.2-2.25,6.2H267Z"/><path class="cls-3" d="M280.47,860.88a5.17,5.17,0,0,1,0-2.63,5.07,5.07,0,0,1,3-3.4,5.19,5.19,0,0,1,3.85,0,5,5,0,0,1,3,3.38,5.6,5.6,0,0,1,.18,1.33,4.85,4.85,0,0,1-.16,1.24h-7.14a2.21,2.21,0,0,0,1.11,1,2.73,2.73,0,0,0,1.11.26,3.42,3.42,0,0,0,.44,0,2.32,2.32,0,0,0,1.34-.69l.81.81,1,1a5.1,5.1,0,0,1-3.59,1.49,5,5,0,0,1-1.93-.38,4.88,4.88,0,0,1-1.67-1.11A5.08,5.08,0,0,1,280.47,860.88Zm2.63-2.36h4.59a2.17,2.17,0,0,0-.68-.93,2.26,2.26,0,0,0-1.06-.48,2.39,2.39,0,0,0-.59-.05,3.29,3.29,0,0,0-.54.05,2.32,2.32,0,0,0-1,.46A2.11,2.11,0,0,0,283.1,858.52Z"/><path class="cls-3" d="M293.16,864.52v-9.89h2.58v1a1.88,1.88,0,0,1,.83-.82,2.55,2.55,0,0,1,1.15-.29,4.81,4.81,0,0,1,2.14.51l-1,2.45a2.3,2.3,0,0,0-1.16-.34,1.91,1.91,0,0,0-1.4.58,2,2,0,0,0-.58,1.42v5.42Z"/><path class="cls-3" d="M306.5,854.62h2.77l2.38,5.58,2.35-5.58h2.77l-4.06,9.9h-2.12Z"/><path class="cls-3" d="M318.17,862.13a5,5,0,0,1-.67-2.54,5,5,0,0,1,.67-2.56,5,5,0,0,1,4.37-2.55,4,4,0,0,1,.86.09,3.29,3.29,0,0,1,.71.23l.5.28.31.22.11.1v-.78h2.54v9.9H325v-.78a.59.59,0,0,1-.11.09,1.7,1.7,0,0,1-.31.22,3.2,3.2,0,0,1-.51.29,4.35,4.35,0,0,1-.69.22,4.14,4.14,0,0,1-.87.09,4.93,4.93,0,0,1-4.37-2.52Zm1.91-2.54a2.43,2.43,0,0,0,.73,1.76,2.32,2.32,0,0,0,1.73.75,2.43,2.43,0,0,0,1.75-.75,2.53,2.53,0,0,0-1.75-4.29,2.33,2.33,0,0,0-1.73.75A2.46,2.46,0,0,0,320.08,859.59Z"/><path class="cls-3" d="M329.92,862.86l2.07-1.53a1.93,1.93,0,0,0,.81.58,2.58,2.58,0,0,0,1,.22h0a1.16,1.16,0,0,0,.77-.21.47.47,0,0,0,.17-.49.68.68,0,0,0-.36-.41c-.15-.07-.45-.19-.92-.35s-.83-.31-1.11-.43a5.9,5.9,0,0,1-1-.61,2.41,2.41,0,0,1-.56-.67,2.68,2.68,0,0,1-.35-1.41,2.83,2.83,0,0,1,.31-1.33,2.73,2.73,0,0,1,.84-1,3.7,3.7,0,0,1,2.29-.72,4.32,4.32,0,0,1,3.13,1.28l-1.83,1.76a1.7,1.7,0,0,0-1.3-.52,1.06,1.06,0,0,0-.74.22.43.43,0,0,0-.15.48.62.62,0,0,0,.43.38l.61.19.71.22c.19.07.42.17.7.3a4.48,4.48,0,0,1,.77.46,2.88,2.88,0,0,1,.89,1,2.34,2.34,0,0,1,.31,1.24v.11a2.76,2.76,0,0,1-.33,1.38,2.82,2.82,0,0,1-.91,1,4,4,0,0,1-2.33.65,5.47,5.47,0,0,1-2.17-.44A4.61,4.61,0,0,1,329.92,862.86Z"/><path class="cls-3" d="M339.86,860.88a4.89,4.89,0,0,1,0-2.63,5.09,5.09,0,0,1,1.32-2.3,5.27,5.27,0,0,1,1.67-1.1,5.17,5.17,0,0,1,1.93-.37,5.06,5.06,0,0,1,4.91,3.75,5.62,5.62,0,0,1,.19,1.33,5.34,5.34,0,0,1-.16,1.24h-7.14a2.23,2.23,0,0,0,1.1,1,2.77,2.77,0,0,0,1.11.26,3.27,3.27,0,0,0,.44,0,2.37,2.37,0,0,0,1.35-.69l.8.81,1,1a4.84,4.84,0,0,1-1.66,1.11,4.92,4.92,0,0,1-1.93.38,5.1,5.1,0,0,1-4.92-3.77Zm2.62-2.36h4.6a2.27,2.27,0,0,0-.69-.93,2.19,2.19,0,0,0-1.05-.48,2.43,2.43,0,0,0-.6-.05,3.07,3.07,0,0,0-.53.05,2.27,2.27,0,0,0-1,.46A2.06,2.06,0,0,0,342.48,858.52Z"/><path class="cls-3" d="M351.82,862.86l2.06-1.53a2.06,2.06,0,0,0,.81.58,2.63,2.63,0,0,0,1,.22h0a1.19,1.19,0,0,0,.78-.21.47.47,0,0,0,.17-.49.67.67,0,0,0-.37-.41,9.61,9.61,0,0,0-.91-.35c-.47-.16-.84-.31-1.11-.43a5.71,5.71,0,0,1-1.05-.61,2.38,2.38,0,0,1-.55-.67,2.59,2.59,0,0,1-.35-1.41,2.82,2.82,0,0,1,.3-1.33,2.85,2.85,0,0,1,.85-1,3.69,3.69,0,0,1,2.28-.72,4.34,4.34,0,0,1,3.14,1.28l-1.84,1.76a1.68,1.68,0,0,0-1.3-.52,1,1,0,0,0-.73.22.45.45,0,0,0-.16.48.64.64,0,0,0,.43.38l.61.19.72.22.7.3a4.9,4.9,0,0,1,.77.46,3,3,0,0,1,.89,1,2.43,2.43,0,0,1,.31,1.24v.11a2.92,2.92,0,0,1-1.24,2.4,4,4,0,0,1-2.34.65,5.42,5.42,0,0,1-2.16-.44A4.47,4.47,0,0,1,351.82,862.86Z"/><path class="cls-4" d="M367.74,561.06a67.79,67.79,0,0,0-.21,14.31c.7,8,2.76,17.25,9.94,22A15.49,15.49,0,0,0,391,599c4.79-1.86,8.13-5.69,11.9-9,.4-.36.83-.69,1.24-1,.16-.14-.52.36.06,0,.22-.16.45-.31.68-.46a12.35,12.35,0,0,1,1.28-.72l.3-.14s-.69.21-.34.15.55-.18.82-.25.86-.17.26-.08.13,0,.28,0,.51,0,.76,0c-.63,0-.42-.07.08,0l.69.21c.74.22-.32-.22.22.1.71.42,1.46.78,2.16,1.24.15.1,1,.72.49.32.23.18.46.38.67.58s.39.4.59.59.35.41.05,0,.1.15.16.25.22.41.34.61c.3.48-.09-.57,0,0a4.21,4.21,0,0,0,.18.72c.12.37-.11-.41-.06-.4s0,.39,0,.42a3.34,3.34,0,0,1,0,.65c.07,0,.17-.89,0,0-.11.5-.29,1-.45,1.46s.3-.6-.1.2l-.35.7c-.31.58-.64,1.14-1,1.69-3.24,5.22-7.16,9.87-9.54,15.6a27.3,27.3,0,0,0-2,14,18.09,18.09,0,0,0,7.69,12.81c5.17,3.53,12.21,4.1,18.27,3.51a27,27,0,0,0,24.74-20.11,42.39,42.39,0,0,0,1.47-9.24c.34-4.05.47-8.11.56-12.16.22-9.51.11-19-.08-28.54q-.18-9.27-.52-18.54l0-1a3.6,3.6,0,0,0-3.52-3.52,3.56,3.56,0,0,0-3.52,3.52c.17,4.28.29,8.56.4,12.84.24,9,.38,18,.34,27a220.11,220.11,0,0,1-1,24c-.07.59.13-.88,0-.3,0,.15,0,.3-.07.45-.05.33-.1.66-.16,1-.1.5-.2,1-.33,1.49a34.81,34.81,0,0,1-1.09,3.32l-.16.39.08-.18c-.12.26-.23.52-.36.77-.27.59-.58,1.18-.9,1.75s-.56,1-.86,1.42c-.15.24-.31.47-.47.69l-.24.34c-.51.73.29-.35,0,.06a24.25,24.25,0,0,1-2.34,2.52c-.24.22-.49.44-.73.64s-.74.59-.41.34-.34.23-.44.31c-.27.19-.55.37-.83.55-.49.31-1,.59-1.5.86l-.93.46c-.2.1-1,.42-.39.18a28.44,28.44,0,0,1-3.91,1.2c-.65.15-1.31.27-2,.37s.22,0-.44.06l-1.25.11a39.09,39.09,0,0,1-5,0l-1.2-.08c-.19,0-1-.11-.81-.08-.29,0-1.42-.25-2.06-.41a18.2,18.2,0,0,1-1.82-.54c-.13,0-.92-.34-.57-.19s-.06,0-.11-.06l-.65-.31c-.49-.25-1-.53-1.43-.83l-.65-.46c-.33-.21.18.13.2.15l-.4-.33a14.11,14.11,0,0,1-1.16-1.16c-.08-.09-.58-.7-.27-.31s-.22-.31-.3-.43a13.38,13.38,0,0,1-.74-1.26c-.13-.25-.23-.52-.37-.76s.11.27.11.28c-.05-.15-.12-.3-.17-.45a23,23,0,0,1-.79-3.07c-.13-.67,0,.64,0,0,0-.25-.05-.5-.07-.75,0-.54-.05-1.08,0-1.62s0-1.09.07-1.64c0-.25.05-.5.08-.76.05-.61-.12.64,0-.19a27.26,27.26,0,0,1,.73-3.22c.14-.49.3-1,.47-1.44.08-.24.17-.48.26-.71s.09-.23.13-.35c.23-.58-.17.37.06-.12a44.12,44.12,0,0,1,2.08-4c1.51-2.54,3.25-4.94,4.94-7.36,2.73-3.93,6.09-8.93,4.43-13.95a12.88,12.88,0,0,0-5.63-6.57c-2.31-1.48-5-2.71-7.84-2.45-5,.46-8.55,4.11-12,7.36-.81.77-1.62,1.52-2.48,2.24-.23.2-.48.39-.72.58s.17-.13.19-.14l-.31.23c-.46.32-.92.64-1.41.92-.22.13-.44.26-.67.38s-1,.47-.49.26-.28.1-.41.14-.56.18-.84.26l-.75.16c-.65.14.59,0-.09,0s-1.16,0-1.74,0l-.69-.06c.52,0,.53.09.05,0s-.91-.2-1.35-.33l-.69-.23c-.74-.26.1,0,.08,0s-1.06-.54-1.15-.6c-.27-.16-.92-.44-1.07-.71.16.29.54.45.1.06l-.51-.46c-.28-.27-.55-.56-.82-.85a4.22,4.22,0,0,0-.38-.46c-.32-.3.42.61.18.24-.07-.11-.16-.21-.24-.32a19.45,19.45,0,0,1-1.32-2.18c-.21-.41-.4-.82-.59-1.23-.29-.64.09.27,0,.06s-.18-.47-.27-.7a35.18,35.18,0,0,1-1.48-5.5c-.09-.44-.16-.88-.23-1.31,0-.22-.07-.44-.1-.66s0-.22-.05-.33c-.07-.47.08.75,0,.28-.09-.94-.21-1.88-.29-2.82-.13-1.76-.19-3.53-.19-5.29,0-2.44.11-4.89.34-7.32,0-.35.07-.7.12-1.06.24-1.88-1.79-3.51-3.52-3.51-2.1,0-3.28,1.62-3.52,3.51Z"/><path class="cls-4" d="M260.77,420.92c-.31,5.72-.34,11.48-.26,17.21.16,11.16.82,22.48,3.11,33.43a52.21,52.21,0,0,0,4.77,14.09c2.81,5.2,7.46,8.62,12.88,10.82a39.54,39.54,0,0,0,21.91,1.82,33.76,33.76,0,0,0,9.79-3.43c3.17-1.71,6.56-4.31,7.24-8.08,1.27-7.09-5.82-12.07-11.95-13.44a61.13,61.13,0,0,0-14.6-1.12,78.16,78.16,0,0,0-16.9,2.09c-4.55,1.13-9.59,2.87-12.9,6.36-4,4.24-3.67,10.19-1.07,15.12,3.18,6,9.49,9.82,15.6,12.31a47.72,47.72,0,0,0,20.13,3.51c7.89-.38,16.24-2.41,22.7-7.15,4.63-3.41,8.12-7.95,9-13.72a111.65,111.65,0,0,0,1-15.07c.16-9.71-.09-19.42-.5-29.12,0-.59-.05-1.18-.08-1.76a3.59,3.59,0,0,0-3.52-3.52,3.54,3.54,0,0,0-3.51,3.52q.48,10.21.58,20.44c.06,5.32.06,10.65-.17,16-.09,2.22-.22,4.45-.46,6.67,0,.22-.06.45-.08.67-.09.77.11-.7,0-.11-.06.42-.12.84-.2,1.26a16.4,16.4,0,0,1-.46,2c-.09.3-.22.58-.31.88-.14.47.3-.52.05-.1-.07.11-.12.25-.18.37a15.51,15.51,0,0,1-1.1,1.89l-.5.69c.49-.65-.25.28-.36.4a21.13,21.13,0,0,1-1.56,1.58c-.27.24-.54.48-.81.7l-.37.3c-.42.34.42-.3,0,0-.67.47-1.33.93-2,1.35s-1.36.79-2.06,1.15l-1.1.53-.64.29c-.55.23.41-.17-.15.05a40.78,40.78,0,0,1-20.48,2.56c.78.1-.26,0-.44-.07l-1.09-.19c-.83-.15-1.66-.32-2.49-.52-1.52-.36-3-.8-4.5-1.3-.71-.25-1.42-.52-2.12-.79l-.45-.19c.57.24.05,0-.05,0l-1.17-.54a35.11,35.11,0,0,1-4-2.21c-.3-.19-.59-.39-.88-.6-.13-.08-1.1-.81-.5-.34-.58-.45-1.13-.93-1.67-1.43s-.94-.94-1.38-1.44c-.13-.14-.73-.9-.24-.26-.22-.29-.43-.59-.64-.89a16.57,16.57,0,0,1-.94-1.64c-.07-.16-.14-.32-.22-.48,0,0,.19.6.1.22s-.25-.66-.35-1a9.32,9.32,0,0,1-.23-.91c0-.17-.18-1-.12-.59s0-.47,0-.62,0-.58,0-.88c0-.79-.17.53,0,.15.05-.14.06-.31.1-.46s.14-.39.18-.59c.08-.41-.44.8-.05.13.19-.33.4-.64.58-1s-.6.67-.1.13c.16-.16.3-.33.46-.49s.63-.54.91-.83c0-.05-.64.45-.05,0,.21-.14.41-.29.63-.42a21.3,21.3,0,0,1,2.7-1.46c.42-.19.45-.17,0,0l.84-.33c.54-.21,1.09-.4,1.64-.58,1.13-.36,2.27-.68,3.42-.95s2.43-.54,3.66-.75c.61-.11,1.22-.2,1.83-.29.36-.06,1-.13.25,0l1.06-.13a81,81,0,0,1,15.17-.39c1.06.07,2.11.19,3.17.3.09,0-.78-.11,0,0l.68.11,1.35.25a19.32,19.32,0,0,1,2.23.6l.45.16c.75.26-.8-.4-.18-.07.88.45,1.74.9,2.57,1.43l.15.1c.18.14.36.29.52.44s.54.54.8.81,0-.06-.07-.11a5.25,5.25,0,0,1,.33.49c.08.12.15.25.22.37.21.36.16.48,0,0,0,.15.26,1.08.19.56s0,.39,0,.57c0-.62,0-.25-.11.22s.08-.16.1-.2c-.11.22-.23.43-.35.63s-.44.58-.18.27-.12.12-.15.13l-.7.68a19.19,19.19,0,0,1-1.63,1.08c-.6.36-1.21.69-1.84,1-.32.16-.65.31-1,.45-.5.23.49-.19,0,0l-.73.28a33.25,33.25,0,0,1-4.48,1.3c-.76.16-1.52.29-2.28.41-.42.06,0,0,.1,0l-.66.08-1.34.12a38.62,38.62,0,0,1-4.93,0q-1.19-.07-2.37-.21c-.58-.07.5.08-.08,0l-.5-.08q-.75-.12-1.5-.27a33,33,0,0,1-4.66-1.33l-.46-.18-.35-.14-.18-.08-.59-.28c-.74-.35-1.45-.73-2.15-1.15s-1.26-.81-1.87-1.25c-.45-.33.38.31,0,0l-.36-.31c-.29-.24-.57-.48-.84-.74s-.55-.55-.81-.85-.3-.35-.45-.53c-.31-.36.51.72,0,0a26.46,26.46,0,0,1-1.45-2.32c-.22-.42-.43-.83-.64-1.26l-.3-.65c-.19-.41-.35-.83-.07-.13a56.5,56.5,0,0,1-2.14-6.44c-.63-2.38-1.14-4.8-1.56-7.23-.23-1.27-.43-2.55-.61-3.83,0-.19-.18-1.36-.06-.41,0-.27-.07-.54-.1-.81-.09-.73-.18-1.45-.26-2.18-.58-5.23-.91-10.5-1.09-15.76-.25-7.15-.24-14.32.08-21.47,0-.37,0-.73.05-1.1a3.52,3.52,0,1,0-7,0Z"/><path class="cls-4" d="M188.33,249.12c.49,5.24.86,10.49,1.19,15.74.64,10.08,1.11,20.21.91,30.32-.05,2.26-.14,4.53-.3,6.8-.07,1-.15,2-.26,3a5.56,5.56,0,0,1-.16,1.29c.2-.48.1-.63,0-.09,0,.25-.07.49-.11.73a28.18,28.18,0,0,1-1,4.14c-.17.54.36-.69,0,0l-.41.81c-.17.3-.34.6-.53.89l-.24.37s-.53.72-.23.34-.33.38-.46.52-.38.41-.58.61-.47.45-.71.66l-.32.27c-.67.58.36-.25-.05,0s-1,.67-1.5,1c-.27.16-.55.31-.84.46l-.69.33c.39-.17-.41.17-.58.23l-.76.26c-.64.2-1.29.37-1.94.52l-.9.17-.39.07c-.49.11.67-.06.16,0s-1.18.12-1.77.15-1.15,0-1.72,0l-.71,0c-.13,0-1.16-.11-.56,0s-.25,0-.41-.07l-.74-.16c-.46-.1-.9-.24-1.35-.38-.84-.26,0-.11.06.05a4,4,0,0,0-.55-.27c-.15-.07-.29-.16-.43-.24-.66-.36,0,.05.08.1a4.4,4.4,0,0,0-.61-.61c-.07-.05.53.83.23.29-.07-.12-.16-.24-.23-.36s-.53-1.09-.24-.42-.08-.29-.15-.53-.11-.65-.2-1c0-.11.08,1,0,.29,0-.17,0-.34,0-.52,0-.36,0-.71,0-1.07,0-.7-.17.75,0,.23,0-.18.06-.37.1-.56a11,11,0,0,1,.32-1.12c0-.1.24-.49.21-.57s-.35.71-.18.44.13-.28.19-.41a10.77,10.77,0,0,1,.6-1l.37-.56c.26-.41-.53.61.07-.06.3-.34.6-.68.93-1s.37-.35.57-.52,1-.65.18-.16a31.79,31.79,0,0,1,3-1.8l.76-.35c-.65.29.13,0,.37-.13.74-.27,1.48-.5,2.23-.71s1.43-.36,2.15-.51l1.24-.23.55-.09c.08,0,.85-.11.39-.06a87.14,87.14,0,0,1,11.42-.51c1.62,0,3.24.09,4.85.23l.94.1c.12,0,1.16.14.74.08l.69.11,1.09.2a26.15,26.15,0,0,1,3.33.93c.1,0,.2.09.31.12.44.13-.64-.32-.25-.11.18.1.38.17.56.27.44.22.82.5,1.24.73s-.62-.58-.07-.06l.37.35c.14.13.26.29.4.42.3.28-.43-.74-.08-.07a2.45,2.45,0,0,0,.26.48c.11.11-.26-.84-.11-.27.05.18.1.36.16.53.24.74,0-.57,0-.15s0,.74,0,1.1c0,.77.18-.68,0-.13-.07.24-.11.5-.17.75s-.14.45-.22.68-.42,1,0,.06c-.24.51-.47,1-.74,1.49s-.67,1.14-1,1.69c-.16.25-.33.49-.51.74s-.78,1-.37.5c-.92,1.16-1.9,2.26-2.91,3.34-4.1,4.38-8.86,8.39-12,13.58a15.53,15.53,0,0,0,.1,17,23.46,23.46,0,0,0,14.2,9.59A25.52,25.52,0,0,0,221,357.17c4.57-2.05,7.05-6,8.22-10.75,1.48-6,1.69-12.33,1.82-18.47.16-7.6,0-15.2-.14-22.8-.07-3.78-.12-7.55-.12-11.33a3.52,3.52,0,0,0-7,0c0,7.94.23,15.89.3,23.83a183.76,183.76,0,0,1-.64,21.12c0,.37-.07.73-.12,1.09,0,.2,0,.4-.07.6,0,0,.08-.61,0-.2-.11.71-.21,1.41-.34,2.11a34.75,34.75,0,0,1-.82,3.46c-.15.49-.34,1-.5,1.47s.34-.67,0,0c-.12.23-.22.47-.35.69a6.05,6.05,0,0,1-.32.55c-.08.13-.59.76-.2.31s-.19.19-.27.28-.4.39-.6.58c-.35.32-.38.26,0,0-.21.13-.41.3-.62.43a15.36,15.36,0,0,1-1.48.82l-.42.19s.66-.22.29-.13-.52.2-.78.29a18,18,0,0,1-1.78.48c-.29.07-.57.13-.87.18-.12,0-.25,0-.37.06-.49.11.67-.06.17,0-.66.05-1.31.12-2,.15a26.65,26.65,0,0,1-3.79-.18c.74.08,0,0-.29-.06l-1-.19c-.68-.15-1.35-.32-2-.53s-1.15-.39-1.71-.6.42.21-.32-.14c-.34-.16-.67-.32-1-.5a19.12,19.12,0,0,1-1.69-1l-.8-.56c-.05,0-.42-.32-.09-.06s-.22-.19-.29-.25a16.43,16.43,0,0,1-1.42-1.35c-.22-.24-.44-.49-.65-.74l-.27-.33c.3.38.16.21,0-.08-.34-.52-.68-1-1-1.59-.07-.12-.5-1-.36-.69s-.07-.18-.11-.28l-.18-.55c-.1-.32-.18-.64-.25-1s-.06-.36-.1-.54c0,0,0,.64,0,.26,0-.62,0-1.34,0-2,0,.67,0,.21.06-.22s.13-.59.22-.89.16-.5.24-.75l.19-.49c-.09.25-.22.46,0,.1a28.34,28.34,0,0,1,2.12-3.5l.26-.36c-.4.54-.08.11,0,0,.23-.28.45-.56.68-.83.5-.59,1-1.17,1.54-1.75,1-1.1,2.07-2.18,3.13-3.24,2.19-2.22,4.42-4.41,6.41-6.81,3.21-3.87,6.71-9,5.41-14.3-1.16-4.75-6-7.1-10.38-8.09-6.74-1.54-14-1.37-20.86-.75-6.28.57-12.82,2.17-17.6,6.54a14.72,14.72,0,0,0-4.91,11c.12,3.66,1.77,7.33,5.16,9,4.51,2.27,10.13,2.21,14.93,1,5.81-1.5,11.08-5.3,13.51-10.89,1.51-3.48,1.9-7.34,2.2-11.08.83-10.05.41-20.21-.09-30.26q-.54-11.22-1.52-22.42c0-.39-.07-.79-.11-1.18a3.61,3.61,0,0,0-3.52-3.52c-1.76,0-3.69,1.62-3.52,3.52Z"/><path class="cls-5" d="M211.91,158s79.73-33.2,171.46-18.71"/><path class="cls-4" d="M215.53,138.9l-5.89,1.9-3.78-11.75-1.91.61-1.56-4.85,1.91-.62-1.6-5,5.89-1.9,1.6,5,3.34-1.07,1.56,4.85-3.34,1.07Z"/><path class="cls-4" d="M218.89,108.44,222.38,121l.06,0a7.23,7.23,0,0,1,1.76-2.67,6.83,6.83,0,0,1,2.87-1.51,7.2,7.2,0,0,1,2.92-.27,5.42,5.42,0,0,1,2.37.9,6.28,6.28,0,0,1,1.8,1.89,10.48,10.48,0,0,1,1.2,2.79l2.87,10.29-6,1.66-2.4-8.61a14,14,0,0,0-.49-1.42,4.16,4.16,0,0,0-.72-1.2,2.31,2.31,0,0,0-1.07-.69,2.76,2.76,0,0,0-1.52.06,2.8,2.8,0,0,0-2.09,1.94,3.81,3.81,0,0,0-.17,1.44,8,8,0,0,0,.26,1.48l2.4,8.61-6,1.67-7.58-27.19Z"/><path class="cls-4" d="M257.66,119.89,245,122.83a4,4,0,0,0,1.6,2.6,4.62,4.62,0,0,0,4.64-.43,3,3,0,0,0,.93-1.49l5.8-1.34a7.13,7.13,0,0,1-.61,2.88,7.33,7.33,0,0,1-1.6,2.29,9.54,9.54,0,0,1-2.32,1.65,12.07,12.07,0,0,1-2.77,1,12.63,12.63,0,0,1-4.06.31,9.18,9.18,0,0,1-3.52-1,8.16,8.16,0,0,1-2.7-2.35,9.79,9.79,0,0,1-1.65-3.71,10,10,0,0,1-.18-4A8.11,8.11,0,0,1,239.8,116a8.88,8.88,0,0,1,2.55-2.48A11.34,11.34,0,0,1,246,112a11.15,11.15,0,0,1,4.09-.25,8.16,8.16,0,0,1,3.35,1.21,8.34,8.34,0,0,1,2.51,2.54,12,12,0,0,1,1.54,3.78Zm-6.41-2.18a3.09,3.09,0,0,0-1.66-1.67,3.64,3.64,0,0,0-2.37-.22,4.08,4.08,0,0,0-2.16,1.22,3.12,3.12,0,0,0-.8,2.29Z"/><path class="cls-4" d="M280,123.61l-6.11,1-2.05-12.17-2.15.37-.85-5,2.15-.36-.37-2.18c-.1-.61-.18-1.17-.25-1.69a8.81,8.81,0,0,1,0-1.54,6.83,6.83,0,0,1,.27-1.53,6.44,6.44,0,0,1,.76-1.57,7.61,7.61,0,0,1,2.35-2.5,8,8,0,0,1,3.18-1.27,6.39,6.39,0,0,1,1.36-.09,4.8,4.8,0,0,1,1.36.26l.89,5.26c-.39-.1-.76-.17-1.11-.23a3.59,3.59,0,0,0-1.13,0,1.86,1.86,0,0,0-1.53,1,4.16,4.16,0,0,0-.1,2.26l.47,2.78,4.26-.71.85,5-4.26.72Z"/><path class="cls-4" d="M305,120.16l-6.14.78-.24-1.92h-.07a4.81,4.81,0,0,1-2,2.17,7.46,7.46,0,0,1-2.89,1,8.23,8.23,0,0,1-3.62-.29,8.74,8.74,0,0,1-3-1.66,9.12,9.12,0,0,1-2.18-2.72,10.06,10.06,0,0,1-1.08-3.46,9.91,9.91,0,0,1,.19-3.61,9.51,9.51,0,0,1,1.4-3.16,8.36,8.36,0,0,1,5.91-3.54,8.1,8.1,0,0,1,3,.18,6,6,0,0,1,2.63,1.4l-.21-1.68,6.14-.78Zm-11.47-11.29a4.07,4.07,0,0,0-1.63.53,3.87,3.87,0,0,0-1.12,1,3.62,3.62,0,0,0-.62,1.33,4.21,4.21,0,0,0-.08,1.55,3.93,3.93,0,0,0,1.38,2.63,4.41,4.41,0,0,0,5.84-.73,4,4,0,0,0,.68-2.9,4.28,4.28,0,0,0-.47-1.48,3.7,3.7,0,0,0-.93-1.14,3.94,3.94,0,0,0-1.34-.68A4,4,0,0,0,293.49,108.87Z"/><path class="cls-4" d="M314,104.05h.07a6.65,6.65,0,0,1,2.33-2.23,7.09,7.09,0,0,1,3-.81,7.43,7.43,0,0,1,3.48.62,6,6,0,0,1,2.63,2.4,5.88,5.88,0,0,1,2.37-2.61,7.1,7.1,0,0,1,3.37-1,6.79,6.79,0,0,1,2.82.36,4.55,4.55,0,0,1,1.91,1.33,5.78,5.78,0,0,1,1.12,2.13,11.71,11.71,0,0,1,.45,2.76l.59,11.1-6.18.32-.44-8.31c0-.46-.06-1-.11-1.51a6.36,6.36,0,0,0-.34-1.53,2.69,2.69,0,0,0-.81-1.17,2.11,2.11,0,0,0-1.54-.41,2.72,2.72,0,0,0-1.65.54,2.65,2.65,0,0,0-.81,1.2,5.47,5.47,0,0,0-.26,1.55c0,.56,0,1.1,0,1.62l.44,8.32-6.18.32-.44-8.32c0-.47-.07-1-.14-1.57a5.9,5.9,0,0,0-.38-1.58,2.83,2.83,0,0,0-.89-1.18,2.27,2.27,0,0,0-1.6-.41,2.31,2.31,0,0,0-1.55.58,2.75,2.75,0,0,0-.75,1.26,5.55,5.55,0,0,0-.22,1.61c0,.58,0,1.11,0,1.58l.44,8.32-6.18.33-.92-17.42,6.18-.33Z"/><path class="cls-4" d="M345.24,90.78a3.58,3.58,0,0,1,1.34.29,3.5,3.5,0,0,1,1.09.76,3.64,3.64,0,0,1,.74,1.12,3.38,3.38,0,0,1,.25,1.35,3.15,3.15,0,0,1-.29,1.33,3.39,3.39,0,0,1-.76,1.1,3.45,3.45,0,0,1-1.11.73,3.22,3.22,0,0,1-1.35.26,3.39,3.39,0,0,1-1.34-.29,3.62,3.62,0,0,1-1.09-.76,3.42,3.42,0,0,1-.74-1.12,3.36,3.36,0,0,1-.25-1.34,3.2,3.2,0,0,1,.29-1.34,3.5,3.5,0,0,1,.76-1.1,3.63,3.63,0,0,1,1.11-.73A3.38,3.38,0,0,1,345.24,90.78ZM348,118.43l-6.19-.08.22-17.44,6.18.08Z"/><path class="cls-4" d="M358.06,118.83l-6.18-.29,1.31-28.19,6.18.29Z"/><path class="cls-4" d="M361.09,101.32l7.1.75,3.69,9.38,5.47-8.41,7,.74L367.7,128.31l-6.89-.73,7.08-10.4Z"/></g></g></svg>