<svg xmlns="http://www.w3.org/2000/svg" viewBox="0 0 701.61 612.63"><defs><style>.cls-1{fill:#2e3191;}.cls-2,.cls-6{fill:none;}.cls-2{stroke:#231f20;stroke-linecap:round;stroke-linejoin:round;stroke-width:2.57px;}.cls-3{fill:#f3d211;}.cls-4{fill:#231f20;}.cls-5{fill:#542c7f;}</style></defs><g id="Layer_2" data-name="Layer 2"><g id="Layer_1-2" data-name="Layer 1"><path class="cls-1" d="M332.19,504.74l-8.71-3.83c1.83-3.33,5.67-1.65,8.43-3.9,1.53-6.75,3.75-13.92.74-21.79,1.53-1.13,2.76-2.44,4.28-3.09,2.37-1,4.5-.16,5,2.15a64.8,64.8,0,0,1,1.29,9.73c.28,3.83-.4,7.76,1,12.13l17.1-2.53c1.76,1.88,1,3.34-1,4.12a58.3,58.3,0,0,1-6.91,2c-2.89.76-5.81,1.46-8.27,2.07-2.56,2.44-2.75,5.16-2.74,7.86,0,8.4.19,16.8.2,25.2a61.11,61.11,0,0,1-.77,6.63c-2.56-.68-4.92-.68-6.32-1.84a8.7,8.7,0,0,1-2.8-5.36c-.65-6.23-.92-12.51-1.08-18.78-.09-3.55.31-7.12.5-10.8"/><path class="cls-1" d="M308.91,506.91c-.52.27-1.25.39-1.51.81a37.61,37.61,0,0,0-5.86,19.56,24.89,24.89,0,0,0,1.39,7.91c1.67,4.88,5.46,5.54,8.84,1.8,2.9-3.21,5.05-7.1,5.23-11.25.42-9.56.63-14.38-8.09-18.83m-17.07,18.71c.61-9.71,4.39-17.46,9.77-24.5a5.29,5.29,0,0,1,5.69-1.91,22.71,22.71,0,0,1,6.65,2.58c5.16,3.41,9,8,10.36,14.21,1.91,8.81-.49,16.7-6,23.6-3.77,4.69-8.73,5.78-14.61,4.4-5.66-1.33-8.82-4.94-10.36-10.15a66.48,66.48,0,0,1-1.47-8.23"/><path class="cls-1" d="M364.43,488.39c3.39-3.75,3.42-3.75,3.39-7.57,0-3.3-.15-6.6-.19-9.91a3.68,3.68,0,0,1,2.85-4c1.91-.51,4,.87,4.57,3.31a41.78,41.78,0,0,1,.85,6.21c.25,3,.36,5.94.56,9.32l6.89,2.15c-.36,4-4.53,2.47-6.47,5.26-2.82,13.37.95,27.18,2.39,41.71-1.55.21-3.18,1-4.16.45a7,7,0,0,1-3.48-3.64c-1.64-6.06-3.18-12.16-3.21-18.56s-.47-12.58-.79-18.87c-.12-2.37-.26-2.48-3.2-5.85"/><path class="cls-1" d="M395.39,526.43a77,77,0,0,0,2,7.74,3.12,3.12,0,0,0,5.22,1c4.86-4.93,7.22-11.11,7.88-17.79.25-2.51-1-5.26-1.9-7.77a3.08,3.08,0,0,0-5.21-.95c-4.48,5-8.08,10.52-8,17.81M388,523.1c.33-7.11,2.23-13.21,7.52-18,6.51-5.93,16-3.94,19.25,4.27,3.72,9.43,2.12,18.34-3.59,26.52a11.8,11.8,0,0,1-20.57-1.55c-1.62-3.37-1.78-7.45-2.61-11.2"/><path class="cls-2" d="M366.58,242.71s4.7,4.54,9.42,0M307.19,286.4s5,5.68,10.05-.36m51.52,85c-11.2,9.81-16.69,18.92-6.73,28.31s37,4.56,43.27,2,10.32-7.77,6.33-14.32-16.86-1.34-31.95-5.89-13.38-23.92-14.4-33.88,1.3-104.59,1.3-104.59c4-3.53,9.42,0,9.42,0s-1.36,112.68,1.55,121.78,17.81,7.29,29,9.12c14.32,2.33,19.29,12.84,18.56,21.95s-14,19.15-32.61,20.51c-29.85,2.19-43.54-8.89-47.19-22.63-4.5-17,16.51-24.08,18.27-29.55,2.27-7-5.54-12.87-17.47-10.74-12.16,2.16-17.25,8.28-25.72,7.68s-11-6.73-11.75-15.1-1.49-59.33-1.49-59.33,5.78-2.64,10.05-.36c0,0-.32,53.58,2,58.7s4.82,3.84,13.07.71,15.4-4.31,23.16-2.95a40.85,40.85,0,0,1,9.85,3.48"/><path class="cls-3" d="M361.81,203.35a56.71,56.71,0,0,0-14.93,1.2,4.75,4.75,0,0,1,2.44-2.76,3.88,3.88,0,0,0-1.95-.94c-.7-.23-1.46-.73-1.45-1.47,0-1,1.33-1.72,1-2.61a1.77,1.77,0,0,0-.56-.63,13.07,13.07,0,0,1-2.05-2.09,2,2,0,0,1-.42-.81c-.11-.73.64-1.35,1.37-1.39a4.05,4.05,0,0,1,2.08.66,112.54,112.54,0,0,0,14,6.29c.84.31,1.78.72,2,1.57.36,1.18-.83,2.21-1.86,2.88"/><path class="cls-3" d="M365.48,196.41c-1.84-.62-3.23-2.11-4.74-3.33a19.18,19.18,0,0,0-10-4.11,6.79,6.79,0,0,1-2.8-.63,1.88,1.88,0,0,1-.87-2.44c.55-.9,2.09-1.08,2.22-2.13a3.11,3.11,0,0,0-.43-1.44c-.18-.47-.13-1.15.35-1.31s1,.44,1.56.52c.8.12,1.29-.86,1.45-1.65s.4-1.79,1.2-1.95c1.87,3.32,4.74,5.94,7.32,8.75s5,6,5.6,9.78"/><path class="cls-3" d="M363.64,208.55q-7.71.21-15.41.6a1.4,1.4,0,0,0-1,.3c-.6.65.43,1.58,1.31,1.7s2,.27,2.16,1.14-1.23,1.58-1.11,2.52l1.23.73a1.87,1.87,0,0,0,0,2.92,3,3,0,0,0,3.22.15,8.31,8.31,0,0,0,2.51-2.29,10.4,10.4,0,0,1,2.42-2.4,23.08,23.08,0,0,1,3.39-1.31,3.67,3.67,0,0,0,2.43-2.49"/><path class="cls-3" d="M370.36,195.86a56.72,56.72,0,0,0-2.05-15.27c-.41-1.48-.8-3.29.3-4.36.29,1.09,1,2.46,2.12,2.2s1.17-2.26,2.25-2.92c.95.1.15,1.82.83,2.48s1.44-.12,1.91-.74c.41,0,.59.51.64.91a21.29,21.29,0,0,1-.92,7.7q-1.24,5-2.5,10.08a6.6,6.6,0,0,1-1.43,3.19"/><path class="cls-3" d="M375.12,200.07c4-3.32,3.22-10.35,7.36-13.54a1.2,1.2,0,0,1,.46-.24c.76-.17,1.1.91,1.05,1.69s.06,1.83.83,1.9,1.36-1.31,2.2-1.14c.49.11.71.69,1.1,1,.72.57,1.92.17,2.58.81a1.62,1.62,0,0,1,.42,1.08c.1,1.8-1.31,3.29-2.62,4.53-3.67,3.49-7.55,7.1-12.43,8.48a2.5,2.5,0,0,1-2.21-.13c-.6-.48-.41-1.74.36-1.7"/><path class="cls-3" d="M372.32,210.26a78.36,78.36,0,0,0,17.18-6.84,3.48,3.48,0,0,1,1.57-.52,1.17,1.17,0,0,1,1.2.92c.13,1.34-2.66,1.9-2.06,3.11a1.35,1.35,0,0,0,.72.56,6.51,6.51,0,0,0,3.46.45c.46.39-.33,1-.4,1.61s.64,1,1.07,1.43c1,1,.44,2.9-.74,3.72a7.4,7.4,0,0,1-4.14,1,136.9,136.9,0,0,1-15.82-.28c-1.27-.11-2.88-.57-3-1.85"/><path class="cls-4" d="M366.77,202.71c.68,6.93-1.27,13.91.58,20.75,1.13,4.14,3.21,7.88,3.63,12.2a224.27,224.27,0,0,1,.61,24.46c0,3.27,0,6.58-.32,9.84-.11,1.15,1.7,1.14,1.8,0,.66-6.95.42-14.08.31-21-.07-4-.17-8-.49-12.06a36.22,36.22,0,0,0-.47-4,38.33,38.33,0,0,0-2.07-6.12,29.87,29.87,0,0,1-2-11.6c.11-4.15.67-8.27.27-12.42-.11-1.15-1.92-1.16-1.81,0"/><path class="cls-5" d="M348.31,220.8v-.5a.69.69,0,0,0-.07-.35.85.85,0,0,0-.48-.48.85.85,0,0,0-.35-.08l-.24,0a.9.9,0,0,0-.4.23l-.14.18a.9.9,0,0,0-.12.46v.5a.71.71,0,0,0,.07.35.77.77,0,0,0,.19.29.68.68,0,0,0,.29.18.62.62,0,0,0,.35.08l.24,0a.9.9,0,0,0,.4-.23l.14-.19a.89.89,0,0,0,.12-.45"/><path class="cls-5" d="M345.66,218a.91.91,0,0,0,0-1.81.91.91,0,0,0,0,1.81"/><path class="cls-5" d="M345.66,214.7a.91.91,0,0,0,0-1.81.91.91,0,0,0,0,1.81"/><path class="cls-5" d="M340.65,201.18a.9.9,0,0,0,0-1.8.9.9,0,0,0,0,1.8"/><path class="cls-5" d="M340.65,196.93a.91.91,0,0,0,0-1.81.91.91,0,0,0,0,1.81"/><path class="cls-5" d="M340.65,193.68a.91.91,0,0,0,0-1.81.91.91,0,0,0,0,1.81"/><path class="cls-5" d="M346.41,183.92a.91.91,0,0,0,0-1.81.91.91,0,0,0,0,1.81"/><path class="cls-5" d="M350.16,178.16a.9.9,0,0,0,0-1.8.9.9,0,0,0,0,1.8"/><path class="cls-5" d="M368.93,173.91a.9.9,0,0,0,0-1.8.9.9,0,0,0,0,1.8"/><path class="cls-5" d="M373.68,173.91a.9.9,0,0,0,0-1.8.9.9,0,0,0,0,1.8"/><path class="cls-5" d="M377.94,175.16a.9.9,0,0,0,0-1.8.9.9,0,0,0,0,1.8"/><path class="cls-5" d="M385.44,184.67a.91.91,0,0,0,0-1.81.91.91,0,0,0,0,1.81"/><path class="cls-5" d="M389.45,187.17a.9.9,0,0,0,0-1.8.9.9,0,0,0,0,1.8"/><path class="cls-5" d="M393,189.92a.9.9,0,0,0,0-1.8.9.9,0,0,0,0,1.8"/><path class="cls-5" d="M396.7,205.69a.91.91,0,0,0,0-1.81.91.91,0,0,0,0,1.81"/><path class="cls-5" d="M398.2,208.69a.91.91,0,0,0,0-1.81.91.91,0,0,0,0,1.81"/><path class="cls-5" d="M398.45,213.94a.9.9,0,0,0,0-1.8.9.9,0,0,0,0,1.8"/><path class="cls-3" d="M317,248.5a26.49,26.49,0,0,1,12-7.57,1.22,1.22,0,0,1,.6-.06c.66.19.44,1.18.08,1.76l-2.34,3.84,4.46-.15a1.16,1.16,0,0,1,.8.16c.49.38.13,1.18-.33,1.61s-1,.92-.9,1.53c1.07,0,1.25,1.77.4,2.43a4.15,4.15,0,0,1-3.11.36,71,71,0,0,0-11.93-.66,5.23,5.23,0,0,1-2.33-.28,1.72,1.72,0,0,1-1.06-1.89,2.49,2.49,0,0,1,1.4-1.3"/><path class="cls-3" d="M312.67,240.87a27.89,27.89,0,0,1,0-7.47,9.45,9.45,0,0,1,3.69-6.3c.52.53.36,1.39.28,2.14s.1,1.7.83,1.84a1.55,1.55,0,0,0,1-.2,34.94,34.94,0,0,0,4.12-2.14,1.8,1.8,0,0,0,2.32,2.26,34.94,34.94,0,0,1-11.23,11.68"/><path class="cls-3" d="M306.82,240.26l-.42-13.83a5.08,5.08,0,0,0-.37-2.12,1.73,1.73,0,0,0-1.72-1.05c-1.37.22-1.79,2.46-3.18,2.5-.65,0-1.17-.48-1.74-.79a3.49,3.49,0,0,0-4.27.82c-.46.56-.77,1.29-1.42,1.62s-1.7-.26-1.37-.91c.74-.29,1.5.35,2,1,2,2.68,2.59,6.12,3.86,9.21s3.73,6.18,7.07,6.28"/><path class="cls-3" d="M297.94,245.29c-1.9.05-3.14-1.89-4.33-3.37a13.56,13.56,0,0,0-12-4.88,1.6,1.6,0,0,0-.54.15c-.78.42-.36,1.63.25,2.28s1.37,1.5,1,2.29-2.19,1.08-1.94,2c.09.37.45.58.69.87a1.42,1.42,0,0,1-.17,1.91c-.56.48-1.57.59-1.7,1.33-.1.56.49,1,1.06,1.09a4.62,4.62,0,0,0,1.66-.35c2.27-.69,4.7-.09,7,.29s5,.45,6.82-1"/><path class="cls-3" d="M302.08,252.26c-5.44-.59-10.52,3.49-16,3.14a7,7,0,0,0-2.38,0,1.64,1.64,0,0,0-1.28,1.76,1.83,1.83,0,0,0,1.84,1.15,14.11,14.11,0,0,1,2.34-.06.75.75,0,0,1,.41.17c.51.49-.51,1.1-.85,1.73a2,2,0,0,0,.07,1.5c.21.67.43,1.35.64,2a2.18,2.18,0,0,0,.47.92,1.69,1.69,0,0,0,.73.37c2.09.6,4.27-.53,6.08-1.74a46.94,46.94,0,0,0,7.67-6.4c.47-.49,1-1.23.58-1.79"/><path class="cls-4" d="M305.28,248.23a49.17,49.17,0,0,1,5.82,24c-.06,3.08-.12,6.14-.07,9.22q.25,14.34.84,28.67c.13,3.3.17,6.65.53,9.94.13,1.14,1.93,1.15,1.81,0-.86-7.71-.76-15.61-1-23.35s-.71-15.48-.36-23.18a51,51,0,0,0-6-26.2c-.55-1-2.11-.11-1.56.91"/><path class="cls-5" d="M281.27,261.8a.9.9,0,0,0,0-1.8.9.9,0,0,0,0,1.8"/><path class="cls-5" d="M277.26,246.29a.91.91,0,0,0,0-1.81.91.91,0,0,0,0,1.81"/><path class="cls-5" d="M278.51,241.29a.91.91,0,0,0,0-1.81.91.91,0,0,0,0,1.81"/><path class="cls-5" d="M279,256.8a.91.91,0,0,0,0-1.81.91.91,0,0,0,0,1.81"/><path class="cls-5" d="M291.77,222.77a.91.91,0,0,0,0-1.81.91.91,0,0,0,0,1.81"/><path class="cls-5" d="M296.78,221.27a.91.91,0,0,0,0-1.81.91.91,0,0,0,0,1.81"/><path class="cls-5" d="M301.53,220.77a.91.91,0,0,0,0-1.81.91.91,0,0,0,0,1.81"/><path class="cls-5" d="M317.55,224.77a.9.9,0,0,0,0-1.8.9.9,0,0,0,0,1.8"/><path class="cls-5" d="M320.8,226.77a.9.9,0,0,0,0-1.8.9.9,0,0,0,0,1.8"/><path class="cls-5" d="M326.05,228.52a.9.9,0,0,0,0-1.8.9.9,0,0,0,0,1.8"/><path class="cls-5" d="M333.56,241.54a.91.91,0,0,0,0-1.81.91.91,0,0,0,0,1.81"/><path class="cls-5" d="M336.31,247a.91.91,0,0,0,0-1.81.91.91,0,0,0,0,1.81"/><path class="cls-5" d="M334.81,253.3a.91.91,0,0,0,0-1.81.91.91,0,0,0,0,1.81"/><path class="cls-5" d="M282.77,266.56a.91.91,0,0,0,0-1.81.91.91,0,0,0,0,1.81"/><rect class="cls-6" width="701.61" height="612.63"/></g></g></svg>