<svg xmlns="http://www.w3.org/2000/svg" viewBox="0 0 701.61 612.63"><defs><style>.cls-1,.cls-2{fill:none;}.cls-2{stroke:#231f20;stroke-linecap:round;stroke-linejoin:round;stroke-width:2.6px;}.cls-3{fill:#f26664;}.cls-4{fill:#572c80;}.cls-5{fill:#231f20;}.cls-6{fill:#2e3191;}</style></defs><g id="Layer_2" data-name="Layer 2"><g id="Layer_1-2" data-name="Layer 1"><rect class="cls-1" width="701.61" height="612.63"/><path class="cls-2" d="M290.88,294.61a35.78,35.78,0,0,1,16.88-3.7m85.18-43.25s6.31-2.06,16.35,0M380,364.05c-12.9.09-17.1,1.88-18.66,3.47-3.68,3.76,3.95,8.52,12.12,6.15S384.09,346,385.57,333c1.37-12,7.37-85.32,7.37-85.32s6.18.91,8.5.91a74.25,74.25,0,0,0,7.85-.91s-.79,17.41-3.69,49S399,364.32,392.94,375.4s-19.58,14.86-33.75,10.19c-18.64-6.15-25.06-30.59,9.75-34.29a100.58,100.58,0,0,1,14.32-.5m16.27,2.09c17.33,3.88,26,10.71,29,15.1,4.48,6.6,4,22.61-10.49,32.1s-34,15.56-60.91,12.4-34.29-18.24-39-25.85c-7.88-12.63-27.17-92-27.17-92a58.33,58.33,0,0,0,9.26-.73,37.86,37.86,0,0,0,7.62-3s19,65.84,22.4,76.12,7.22,28.57,42.72,29.15c30.59.5,38.21-13.43,39.53-16.07s4.44-9.52-13.08-13.56c-.83-.19-1.64-.37-2.45-.53"/><path class="cls-3" d="M390.55,191.16c-1.13-.77-1-2.42-.82-3.76.39-2.38.81-4.87,2.25-6.81s4.22-3.12,6.35-2c2.39,1.3,2.69,4.55,2.68,7.27.56-2.2,1.22-4.58,3-6s5.09-.88,5.55,1.34a4.87,4.87,0,0,1-.21,2.17,49.48,49.48,0,0,1-4.75,11.83,27.18,27.18,0,0,1,10.66.66,5.34,5.34,0,0,1,2.15,1c1.43,1.24,1.31,3.6.26,5.17a11.87,11.87,0,0,1-4.42,3.42c4.22,2.21,5.68,8.55,2.6,12.19s-9.91,3-12-1.31c-1.06,3.54-2.25,7.29-5.07,9.68s-7.82,2.57-9.72-.59a3.08,3.08,0,0,1-5.95-1c-.11-3.11,1-5,3.31-7.05,1.45-1.33,3-2.46,3-4.43-2.36-.19-2.33.9-4.34,2.16s-4.2,2.56-6.56,2.32-4.53-2.85-3.41-4.94c-1.39,2.36-5.32,2.2-6.91,0s-.89-5.57,1.14-7.4a8.87,8.87,0,0,1,7.71-1.72,10.49,10.49,0,0,0-2.72-7.09,21.59,21.59,0,0,1-2.9-3.15c-.74-1.22-.86-3,.23-3.93,2.72-2.28,6.56,3.77,9.72,2.15,1.74-.89,2.85-3.91,4.56-3"/><path class="cls-4" d="M397,199a11.51,11.51,0,0,0-4.81-2.31c-1.86-.41-4.21-.11-5,1.61a4.27,4.27,0,0,0,.37,3.7,8.52,8.52,0,0,0,4.24,4.05,4.85,4.85,0,0,0,3.45.22,4.17,4.17,0,0,0,2.59-3.21,5.59,5.59,0,0,0-1-4.08"/><path class="cls-5" d="M397.83,226.34a170.38,170.38,0,0,1,2.39,17.87c1,11.65,1.24,23.62-1,35.14-.26,1.31,1.74,1.87,2,.56,2.33-11.72,2.16-23.86,1.12-35.7a175.55,175.55,0,0,0-2.46-18.42c-.26-1.32-2.27-.76-2,.55"/><path class="cls-3" d="M293.16,245.53c3.74-3.12,2.17-10.09,6.14-12.91a1.94,1.94,0,0,1,2.15-.3,2.39,2.39,0,0,1,.76,1.62q.63,3.5,1.27,7c.52-1.56,2.8-2,4.1-1a4.37,4.37,0,0,1,1.25,4.48,11.85,11.85,0,0,1-2.41,4.25,15.31,15.31,0,0,0-2.59,4.17c2.32,1.55,6.21-.75,7.93,1.44a3.28,3.28,0,0,1,.6,1.51,6.52,6.52,0,0,1-6.86,7.22c-.88-.11-2.1-.2-2.31.66a1.5,1.5,0,0,0,.21,1c.65,1.27,1.56,2.38,2.23,3.63a5.23,5.23,0,0,1,.6,4.1,2.66,2.66,0,0,1-3.38,1.7,2.1,2.1,0,0,1-2.18,2,5.09,5.09,0,0,1-3-1.31,20.3,20.3,0,0,1-5.24-6.09c-.6,1.78-.21,3.72-.43,5.59s-1.51,3.92-3.38,3.8c-1.28-.09-2.25-1.16-3.06-2.16a3.77,3.77,0,0,1-6.35-2.51c-.19-3,3-5.34,2.84-8.3a15.33,15.33,0,0,0-4.79,1.71c-1.56.88-3.3,2.08-5,1.42a3.43,3.43,0,0,1-1.83-3.52,9.91,9.91,0,0,1,1.51-3.94,1.72,1.72,0,0,1-2.52-1.11,2.81,2.81,0,0,1,1.33-2.79,8.27,8.27,0,0,1,3.08-1l6.22-1.2c-1.76-1.42-4.1-1.84-6.21-2.64s-4.28-2.35-4.52-4.6a1.83,1.83,0,0,1,.35-1.44,2.41,2.41,0,0,1,1.64-.57l4.81-.44a3,3,0,1,1,5-1.78s-2.79-4.73-1.76-8.05c.42-1.37,2.73-.67,3.86.2a1.56,1.56,0,0,0,.58.34c.8.17,1.19-.9,1.71-1.53a2.59,2.59,0,0,1,3.21-.38,5.49,5.49,0,0,1,2.1,2.74c1,2.51,2.29,5.45,1.62,8.08"/><path class="cls-4" d="M291.54,251.89a2.21,2.21,0,0,0-2.68.79,5.8,5.8,0,0,0-.92,2.88,10.38,10.38,0,0,0,.4,5.31,4.26,4.26,0,0,0,4.18,2.76,4.34,4.34,0,0,0,1.78-.73,6.55,6.55,0,0,0-.86-11.38"/><path class="cls-5" d="M291.87,271.53c7.71,15.51,4.66,33.82,11.41,49.66.52,1.23,2.32.17,1.8-1.05-6.75-15.85-3.67-34.1-11.41-49.66-.6-1.2-2.4-.14-1.8,1"/><path class="cls-6" d="M372.85,536.34c6-2.2,8-5.89,9.43-10,.18-.49-.1-1.58-.44-1.72-.79-.34-2-.67-2.61-.29-3.94,2.35-5.37,6.2-6.38,12m-5-6.4c2.4-3.19,4.6-6.46,7.15-9.42,2.33-2.7,5.75-3.89,8.84-2.25,3.7,2,7.1,2.56,10.9-.64a50,50,0,0,1,1.89,5.89c.7,4.21,1.3,8.45,1.72,12.69.06.68-.93,1.83-1.67,2.11a2.72,2.72,0,0,1-2.56-.52c-1.57-2.45-2.86-5.09-4.26-7.68-2-.58-2.91,1-3.87,2.27-3.29,4.19-7,7.79-12,9.91-3.21,1.37-4.12,4.1-3.66,7.3.42,2.93,1.17,5.82,1.79,8.72.35,1.61.78,3.21,1.05,4.84s.12,3.32-1.57,4.27c-1.41.8-3.68-.2-4.58-2.59a65.29,65.29,0,0,1-3-10.37c-1-5.17-1.59-10.43-2.53-15.62a22.37,22.37,0,0,0-1.75-4.38c-4.13-.61-8-.9-11.71-1.82a6.52,6.52,0,0,1-5.3-7.27c.08-1.11,1-2.16,1.59-3.43,5.71,6.16,5.71,6.16,13.28,4.25.84-2-.56-3.05-1.72-4.16-2.85-2.7-5.94-5.17-8.57-8.07-2.78-3.07-2.08-6.48,1.43-8.1,5.18-2.39,10.58-3.19,16.12-1.5.79.25,1.37,1.23,2.37,2.18-3.75,3.43-9.35.22-12.52,4.16-.44,2.08.87,3.1,2.51,3.41s3.25-.13,4.84.07a4.24,4.24,0,0,1,3.9,3.82c.37,2.94.3,5.94.57,8.89.1,1.09-.8,2.8,1.25,3"/><path class="cls-6" d="M249.77,512.83c-.81,7.56-7.6,6.72-11.1,10.84-.24,2.62-.44,5.88-.94,9.08a2.83,2.83,0,0,1-2,1.78c-.68.08-1.6-.77-2.19-1.42a3.22,3.22,0,0,1-.55-1.87c-.36-6.53-3.8-9.42-10.14-9.2a6.72,6.72,0,0,1-3.73-.94c-.9-.57-2-2.1-1.81-2.81a3.74,3.74,0,0,1,2.77-2.15c3.17-.06,6.35.36,9.24.58,3.15-3.25,3-7.09,3.26-10.61.73-8.9,1.24-17.84-.38-26.72-.55-3-.92-5.95,2.61-7.78.68.64,1.8,1.16,2,1.93,2.35,9.34,4,18.75,2.41,28.44a67.73,67.73,0,0,0-.93,8.86c-.08,3.35,1.92,4.91,5,4.19a28.48,28.48,0,0,0,2.71-1.1c.9-.32,1.83-.54,3.78-1.1"/><path class="cls-6" d="M417.43,510.65c-2.05,3.33-8.06,12.63-10.16,19.11a3.79,3.79,0,0,1-2.9,2c-1.83,0-2.78-1.61-2.85-3.29-.16-3.85,0-7.72,0-12.2,1.12-.15,3.17,4.12,4.16,3.65,1.62-.77,2.13-6.46,3.8-7.37,2.22-1.21,10.06-5.17,8-1.85"/><path class="cls-6" d="M391.25,515.13c-1.63,0-2.83.29-3.74-.11a2.58,2.58,0,0,1-.67-2.4,1.86,1.86,0,0,1,3.1-.57c.58.52.7,1.58,1.31,3.08"/><path class="cls-6" d="M298.38,512.1a2.57,2.57,0,0,1,2.49,3.22c-.42,2.3-4.56,3.24-4.56,3.24-.93-5.33,1.11-6.32,2.07-6.46M298,524.31c.24-1.36,3.89-4,5-5.19,1.44-1.62,1-6.09.41-7.86s-2.35-2.6-3.86-3.37c-2.07-1-5,1.3-5.73,3.14A108.49,108.49,0,0,0,290,522.25c-.64,2.26-.86,4.7-3.84,4.92-2.59.19-4.35-1.36-5.5-3.45a62.64,62.64,0,0,1-2.69-6.35,61.42,61.42,0,0,0-2.7-6.35c-1.47-2.65-4.15-2.89-6.58-1-1.37,1.07-1.57,4-5.06,2.66-.21-3.59-.35-7.5-.7-11.39-.38-4.27-.85-8.55-1.51-12.79a8.27,8.27,0,0,0-1.83-3.37,2.06,2.06,0,0,0-1.77-.37,2.13,2.13,0,0,0-1.43,1.1,11.39,11.39,0,0,0-.51,3.83c.92,11.54,1.84,23.08,3,34.59a35.87,35.87,0,0,0,2.09,7.56,1.84,1.84,0,0,0,1.52.94c.86-.13,2.14-.49,2.4-1.11,1-2.42,1.59-5,2.45-7.47.64-1.8,1-3.94,3.9-4.34,1.84,2.79,3.54,6,5.8,8.66,3.61,4.31,8,6.63,13.82,4.29,2.67-1.06,5,.54,7.81-.25,1.76-.49,5.24-1.68,6.4-4.11s-5.73-2.41-7.09-4.17"/><path class="cls-6" d="M458.84,491.9c.89,7.23-.95,11.88-3,17.35-2.07-6.85-2-7.36,3-17.35m-38.36,31.74c-.88.13-1.8.9-1.72-.64,0,0,1.6-3.59,4.5-3.07s-1.89,3.58-2.78,3.71m62.8,5.25c-3,.16-6.21.41-9.42.48a21.23,21.23,0,0,1-12.1-3.19c-4.58-2.94-5.4-5.56-3.4-10.84.59-1.54,1.45-3,1.95-4.54,2-6.29,3.94-12.6,3.68-19.35a14.38,14.38,0,0,0-2.53-8.37,3.61,3.61,0,0,0-5.85-.24,10.15,10.15,0,0,0-1.58,2.47c-3.61,9.94-7.27,19.92-5.36,30.81.68,3.84-.72,6.41-3.68,8.4a46.7,46.7,0,0,1-5,3.08c-3.75,1.88-6.14.72-7.37-3.39-.81-2.74-.17-6.07-3.49-8.3-5.81.48-12,1.39-14.64,8.09a4,4,0,0,0-.51,3.58c.73,1.72,2.47,1.94,4.14,1.16,2-1,4-2,6.88-3.44,1.45,1.93,2.35,3.3,3.41,4.52,4,4.59,7.53,5.52,13,3.29a41.47,41.47,0,0,0,5.1-2.87c1.9-1.14,3.78-2.34,5.67-3.5,2.3,1.43,4.21,2.66,6.15,3.82,7.46,4.44,15.5,4.46,23.64,2.89,2.16-.41,3.38-1.93,1.32-4.56"/></g></g></svg>